<?xml version="1.0" standalone="no"?>
<!DOCTYPE svg PUBLIC "-//W3C//DTD SVG 1.1//EN" "http://www.w3.org/Graphics/SVG/1.1/DTD/svg11.dtd" >
<svg xmlns="http://www.w3.org/2000/svg" xmlns:xlink="http://www.w3.org/1999/xlink" version="1.1">
<metadata>
Created by FontForge 20170731 at Mon May 31 19:55:53 2021
 By Aleksey,,,
Copyright (c) 1995 ParaGraph Intl., (c) 1998 ParaType Inc., ParaType Ltd. All rights reserved.
</metadata>
<defs>
<font id="FuturaPT-BoldObl" horiz-adv-x="1024" >
  <font-face 
    font-family="Futura PT Bold Italic"
    font-weight="400"
    font-style="italic"
    font-stretch="normal"
    units-per-em="2048"
    panose-1="2 11 9 2 2 2 4 9 2 3"
    ascent="1563"
    descent="-485"
    x-height="915"
    cap-height="1366"
    bbox="-723 -532 2568 1948"
    underline-thickness="102"
    underline-position="-307"
    slope="-7"
    unicode-range="U+0020-FB02"
  />
<missing-glyph horiz-adv-x="477" 
 />
    <glyph glyph-name="afii10017.var.accented" unicode="&#x410;`" horiz-adv-x="1423" 
d="M946 229h-487l-105 -229h-385l678 1366h389l330 -1366h-362zM723 805l-137 -305h295l-58 260q-20 92 -30 158q-8 42 -9 49q-24 -75 -61 -162zM829 1839h338l-270 -350h-231z" />
    <glyph glyph-name="afii10022.var.accented" unicode="&#x415;`" horiz-adv-x="989" 
d="M254 1366h747l-36 -301h-402l-28 -227h389l-37 -299h-389l-29 -238h418l-37 -301h-764zM612 1839h338l-270 -350h-231z" />
    <glyph glyph-name="afii10026.var.accented" unicode="&#x418;`" horiz-adv-x="1497" 
d="M254 1366h346l-104 -844l632 844h336l-168 -1366h-346l105 844l-637 -844h-332zM866 1839h338l-270 -350h-232z" />
    <glyph glyph-name="afii10032.var.accented" unicode="&#x41e;`" horiz-adv-x="1648" 
d="M879 1393q324 0 526 -197q188 -185 188 -471q0 -87 -16 -168.5t-38 -138t-52.5 -108t-52.5 -79t-45 -51.5q-203 -207 -537 -207q-178 0 -321.5 56.5t-239.5 154.5q-86 88 -135.5 211t-49.5 269q0 152 52 281.5t143 223.5q102 105 250.5 164.5t327.5 59.5zM864 1065
q-83 0 -160 -29.5t-129 -81.5q-51 -51 -82.5 -125t-31.5 -153q0 -72 24.5 -141.5t67.5 -116.5q46 -51 120.5 -84t170.5 -33q185 0 286 109q107 111 107 282q0 162 -94 260q-51 53 -125.5 83t-153.5 30zM942 1839h338l-270 -350h-232z" />
    <glyph glyph-name="afii10037.var.accented" unicode="&#x423;`" horiz-adv-x="1314" 
d="M92 1366h373l258 -612l301 612h399l-782 -1366h-375l242 410zM776 1839h338l-270 -350h-232z" />
    <glyph glyph-name="afii10045.var.accented" unicode="&#x42b;`" horiz-adv-x="1763" 
d="M1217 0l167 1366h347l-168 -1366h-346zM86 0l168 1366h346l-65 -537h178q236 0 346 -110q98 -98 98 -256q0 -205 -119 -324q-81 -81 -201.5 -110t-277.5 -29h-473zM467 272h117q124 0 170 31q57 39 57 135q0 57 -29 86q-33 33 -157 33h-123zM999 1839h338l-270 -350h-231
z" />
    <glyph glyph-name="afii10047.var.accented" unicode="&#x42d;`" horiz-adv-x="1280" 
d="M33 106l41 340q75 -68 157 -108q95 -45 220 -45q142 0 239 61q103 65 137 189h-518l37 291h504q-33 115 -133 178q-91 57 -228 57q-110 0 -208 -41q-67 -30 -148 -88l45 354q181 99 383 99q141 0 265 -46t212 -133q187 -183 187 -485q0 -338 -211 -553
q-108 -111 -237 -157t-288 -46q-249 0 -456 133zM635 1839h338l-271 -350h-231z" />
    <glyph glyph-name="afii10048.var.accented" unicode="&#x42e;`" horiz-adv-x="2242" 
d="M539 868h200q21 79 56 147t76 116t74.5 78.5t68.5 54.5q190 129 454 129q325 0 531 -197q188 -185 188 -471q0 -87 -16 -168.5t-38 -138t-53 -108t-53 -79t-45 -51.5q-203 -207 -532 -207q-140 0 -280 41t-238 125q-78 67 -138.5 175t-74.5 253h-217l-70 -567h-346
l168 1366h346zM1456 1065q-82 0 -157.5 -29t-129.5 -82q-51 -51 -82.5 -125t-31.5 -153q0 -72 24.5 -141.5t67.5 -116.5q46 -51 120.5 -84t170.5 -33q185 0 286 109q107 111 107 282q0 162 -94 260q-51 53 -125.5 83t-155.5 30zM1239 1839h338l-270 -350h-232z" />
    <glyph glyph-name="afii10049.var.accented" unicode="&#x42f;`" horiz-adv-x="1325" 
d="M29 0l446 522q-108 21 -176 101q-80 90 -80 239q0 104 36.5 196.5t104.5 160.5q88 88 188 117.5t228 29.5h516l-168 -1366h-346l58 465h-35l-350 -465h-422zM868 739l45 353h-102q-111 0 -168 -52q-57 -54 -57 -149q0 -78 55 -121q46 -31 139 -31h88zM780 1839h338
l-270 -350h-232z" />
    <glyph glyph-name="afii10023.var.accented" unicode="&#x401;`" horiz-adv-x="989" 
d="M254 1366h747l-36 -301h-402l-28 -227h389l-37 -299h-389l-29 -238h418l-37 -301h-764zM631 1874l180 -86l-244 -311l-133 45zM328 1817q57 0 95 -37.5t38 -93.5t-38 -95t-93 -39q-57 0 -96 39t-39 95q0 55 38.5 93t94.5 38zM952 1817q54 0 93.5 -38.5t39.5 -92.5
q0 -55 -38.5 -94.5t-92.5 -39.5q-57 0 -97 39t-40 95q0 55 39.5 93t95.5 38z" />
    <glyph glyph-name="afii10065.var.accented" unicode="&#x430;`" horiz-adv-x="1253" 
d="M848 915h338l-113 -915h-338l25 100q-78 -71 -147 -99t-164 -28q-173 0 -277 117.5t-104 315.5q0 231 137 383.5t344 152.5q97 0 160 -28t137 -103zM596 238q92 0 152.5 70t60.5 177q0 88 -48.5 139.5t-131.5 51.5q-92 0 -154.5 -71t-62.5 -175q0 -88 49.5 -140
t134.5 -52zM745 1430h338l-270 -351h-231z" />
    <glyph glyph-name="afii10070.var.accented" unicode="&#x435;`" horiz-adv-x="1148" 
d="M1075 389h-684q0 -113 47 -156q34 -34 105 -34q50 0 86 24q33 22 45 62h368q-34 -100 -100 -166q-79 -81 -186 -113.5t-211 -32.5q-219 0 -350 121q-125 121 -125 324q0 123 42 219t107 160q149 145 391 145q219 0 346 -127q123 -123 123 -348q0 -28 -4 -78zM414 580h319
q-3 67 -47 108q-40 37 -106 37q-72 0 -117 -45q-38 -38 -49 -100zM692 1430h338l-270 -351h-232z" />
    <glyph glyph-name="afii10074.var.accented" unicode="&#x438;`" horiz-adv-x="1224" 
d="M178 915h338l-59 -471l403 471h295l-113 -915h-337l59 483l-399 -483h-299zM731 1430h338l-270 -351h-232z" />
    <glyph glyph-name="afii10080.var.accented" unicode="&#x43e;`" horiz-adv-x="1234" 
d="M631 942q260 0 403 -143q127 -124 127 -326q0 -208 -133 -344q-152 -156 -407 -156q-133 0 -241 41.5t-179 112.5q-129 129 -129 328q0 197 137 331q161 156 422 156zM602 238q90 0 146 59q69 69 69 188q0 97 -55 146q-52 45 -127 45q-88 0 -150 -64q-69 -72 -69 -182
q0 -84 51 -139q53 -53 135 -53zM735 1430h338l-270 -351h-232z" />
    <glyph glyph-name="afii10085.var.accented" unicode="&#x443;`" horiz-adv-x="1204" 
d="M874 915h386l-857 -1384h-378l327 541l-323 843h374l99 -247q46 -114 76 -262q48 105 120 221zM733 1430h338l-270 -351h-232z" />
    <glyph glyph-name="afii10093.var.accented" unicode="&#x44b;`" horiz-adv-x="1568" 
d="M1161 915h338l-113 -915h-337zM479 610h172q56 0 94 -3.5t91 -23t90 -55.5q78 -74 78 -196q0 -66 -24 -128.5t-65 -103.5q-49 -49 -125 -74.5t-153 -25.5h-571l110 915h340zM430 213h100q74 0 107 29q31 28 31 77q0 44 -31 62q-21 16 -113 16h-71zM903 1430h338
l-270 -351h-232z" />
    <glyph glyph-name="afii10095.var.accented" unicode="&#x44d;`" horiz-adv-x="1009" 
d="M51 57l35 281q59 -55 119 -80q68 -31 160 -31q101 0 155 35q55 32 78 96h-350l24 205h338q-27 69 -96 103q-56 26 -137 26q-86 0 -156 -33q-47 -20 -102 -63l35 293q154 53 286 53q238 0 371 -133q125 -125 125 -317q0 -109 -38.5 -210.5t-109.5 -170.5
q-143 -138 -395 -138q-178 0 -342 84zM520 1430h338l-270 -351h-232z" />
    <glyph glyph-name="afii10096.var.accented" unicode="&#x44e;`" horiz-adv-x="1693" 
d="M477 606h103q46 147 165 238q130 98 345 98q260 0 403 -143q127 -124 127 -326q0 -208 -133 -344q-151 -156 -408 -156q-221 0 -358 103t-160 270h-115l-43 -346h-337l112 915h338zM1061 238q89 0 145 59q70 70 70 188q0 97 -55 146q-52 45 -127 45q-88 0 -150 -64
q-70 -73 -70 -182q0 -82 52 -139q53 -53 135 -53zM965 1430h338l-271 -351h-231z" />
    <glyph glyph-name="afii10097.var.accented" unicode="&#x44f;`" horiz-adv-x="1114" 
d="M20 0l293 328q-79 17 -127 65q-63 63 -63 174q0 77 26.5 141.5t69.5 106.5q45 44 113 67.5t120 28t126 4.5h466l-112 -915h-324l35 291h-22l-232 -291h-369zM668 492l26 210h-102q-75 0 -111 -36q-30 -30 -30 -78q0 -53 34 -74q34 -22 101 -22h82zM676 1430h338
l-271 -351h-231z" />
    <glyph glyph-name="afii10071.var.accented" unicode="&#x451;`" horiz-adv-x="1148" 
d="M1075 389h-684q-6 -107 47 -156q34 -34 105 -34q50 0 86 24q33 22 45 62h368q-34 -100 -100 -166q-79 -81 -186 -113.5t-211 -32.5q-219 0 -350 121q-125 121 -125 324q0 123 42 219t107 160q149 145 391 145q219 0 346 -127q79 -80 105 -195.5t14 -230.5zM414 580h319
q-3 67 -47 108q-40 37 -106 37q-72 0 -117 -45q-38 -38 -49 -100zM600 1440l188 -64l-223 -297l-149 41zM135 1260q0 60 44 103.5t104 43.5t103.5 -43.5t43.5 -103.5t-43.5 -104t-103.5 -44t-104 44t-44 104zM784 1260q0 60 44 103.5t104 43.5t103.5 -43.5t43.5 -103.5
t-43.5 -104t-103.5 -44t-104 44t-44 104z" />
    <glyph glyph-name="fi" unicode="fi" horiz-adv-x="1189" 
d="M702 655h-206l-82 -655h-338l82 655h-115l31 260h114l15 113q28 222 145 344q139 144 404 144q232 0 350 -115q60 -59 78 -124t18 -142q0 -53 -8 -97h-338q6 42 6 60q0 62 -39 98q-40 37 -104 37q-73 0 -117 -47q-40 -40 -55 -142l-17 -129h209zM838 915h333l-112 -915
h-334z" />
    <glyph glyph-name="fl" unicode="fl" horiz-adv-x="1191" 
d="M702 655h-206l-82 -655h-338l82 655h-115l31 260h114l15 113q30 225 143 344q137 144 397 144q227 0 349 -115q104 -97 104 -277q0 -40 -2.5 -74t-8.5 -76t-7 -50l-115 -924h-338l123 983q10 76 10 113q0 63 -39 100q-40 37 -104 37q-73 0 -117 -47q-40 -40 -55 -142
l-17 -129h209z" />
    <glyph glyph-name=".notdef" horiz-adv-x="477" 
 />
    <glyph glyph-name=".null" horiz-adv-x="0" 
 />
    <glyph glyph-name="nonmarkingreturn" horiz-adv-x="682" 
 />
    <glyph glyph-name="space" unicode=" " horiz-adv-x="477" 
 />
    <glyph glyph-name="exclam" unicode="!" horiz-adv-x="688" 
d="M315 385q88 0 145.5 -56.5t57.5 -144.5q0 -91 -59 -151t-148 -60q-91 0 -150 59t-59 150q0 89 59.5 146t153.5 57zM285 1366h344l-113 -924h-346z" />
    <glyph glyph-name="quotedbl" unicode="&#x22;" horiz-adv-x="845" 
d="M485 1366l-116 -549h-197l18 549h295zM870 1366l-118 -549h-195l18 549h295z" />
    <glyph glyph-name="numbersign" unicode="#" horiz-adv-x="1228" 
d="M991 612h207l-65 -239h-209l-105 -373h-274l106 373h-172l-106 -373h-271l107 373h-209l68 239h206l48 170h-205l65 238h207l98 346h269l-97 -346h172l99 346h272l-98 -346h205l-66 -238h-205zM717 612l49 170h-174l-47 -170h172z" />
    <glyph glyph-name="dollar" unicode="$" horiz-adv-x="1228" 
d="M1067 438q0 -175 -110.5 -294.5t-305.5 -153.5l-26 -219h-205l26 215q-90 12 -167 43.5t-185 99.5l154 258q91 -60 153.5 -84t128.5 -24q83 0 134 36.5t51 96.5q0 45 -31 75t-127 80q-122 62 -175 102t-87 93q-51 79 -51 196q0 159 98 268.5t276 147.5l25 213h205
l-25 -207q96 -13 156 -36t156 -82l-150 -261q-133 101 -240 101q-70 0 -109.5 -31.5t-39.5 -85.5q0 -51 34.5 -83.5t137.5 -78.5q166 -76 232.5 -162t66.5 -223z" />
    <glyph glyph-name="percent" unicode="%" horiz-adv-x="1792" 
d="M1323 1366h180l-960 -1366h-181zM1329 -16q-162 0 -254 90q-92 92 -92 217q0 67 28.5 137t82.5 123q107 102 278 102q172 0 264 -92q84 -80 84 -209q0 -150 -100 -254q-111 -114 -291 -114zM1366 473q-68 0 -113 -45q-49 -46 -49 -123q0 -61 39 -100t100 -39q64 0 109 45
q47 47 47 123q0 63 -39 102q-37 37 -94 37zM506 1200q-68 0 -113 -45q-49 -46 -49 -123q0 -61 39 -100t100 -39q64 0 109 45q47 47 47 123q0 63 -39 102q-37 37 -94 37zM469 711q-162 0 -254 90q-92 92 -92 217q0 67 28 137t82 123q107 102 279 102t264 -92q84 -80 84 -209
q0 -150 -100 -254q-111 -114 -291 -114z" />
    <glyph glyph-name="ampersand" unicode="&#x26;" horiz-adv-x="1474" 
d="M1372 410q-72 -63 -158 -125l203 -285h-370l-80 115q-90 -79 -193 -117q-100 -37 -229 -37q-210 0 -322 96q-19 16 -37 37t-41 57.5t-37 88t-14 110.5q0 133 84 240q100 124 316 186q-63 84 -90 143.5t-27 127.5q0 131 88 223q49 53 132 88t198 35q203 0 315 -121
q90 -97 90 -238q0 -129 -90 -215q-66 -62 -197 -119l154 -213q92 69 168 154zM770 885q75 22 119 69q39 42 39 95q0 42 -29 71q-32 35 -96 35q-57 0 -94 -37q-29 -29 -29 -69q0 -44 33 -91q9 -12 18 -23t39 -50zM809 338l-168 233q-90 -33 -149 -92q-54 -51 -54 -114
q0 -53 41 -86t111 -33q114 0 219 92z" />
    <glyph glyph-name="quotesingle" unicode="'" horiz-adv-x="460" 
d="M485 1366l-116 -549h-197l18 549h295z" />
    <glyph glyph-name="parenleft" unicode="(" horiz-adv-x="772" 
d="M549 -274l-254 -111q-156 383 -156 752q0 285 95 552t307 574l223 -133q-53 -77 -81 -125t-65 -127q-63 -128 -110 -285q-74 -244 -74 -473q0 -154 23.5 -301t64.5 -254q2 -7 6 -17t10.5 -25t10.5 -27z" />
    <glyph glyph-name="parenright" unicode=")" horiz-adv-x="772" 
d="M252 1384l256 109q58 -142 82.5 -225t44.5 -207q27 -156 27 -301q0 -297 -94.5 -566t-307.5 -579l-223 135q161 235 245.5 497.5t84.5 530.5q0 326 -115 606z" />
    <glyph glyph-name="asterisk" unicode="*" horiz-adv-x="1214" 
d="M414 1354l200 -90l9 229h225l-49 -229l223 90l45 -211l-233 -53l131 -175l-197 -131l-96 195l-144 -195l-163 131l172 172l-220 54z" />
    <glyph glyph-name="plus" unicode="+" 
d="M96 573v246h312v314h266v-314h309v-246h-309v-313h-266v313h-312z" />
    <glyph glyph-name="comma" unicode="," horiz-adv-x="628" 
d="M248 342h313l-373 -647h-249z" />
    <glyph glyph-name="hyphen" unicode="-" horiz-adv-x="722" 
d="M92 414l33 272h518l-33 -272h-518z" />
    <glyph glyph-name="period" unicode="." horiz-adv-x="628" 
d="M274 389q89 0 151 -59.5t62 -145.5q0 -89 -59 -150t-145 -61t-148.5 62t-62.5 147q0 86 59.5 146.5t142.5 60.5z" />
    <glyph glyph-name="slash" unicode="/" horiz-adv-x="1492" 
d="M-123 -385l1286 1878h269l-1289 -1878h-266z" />
    <glyph glyph-name="zero" unicode="0" horiz-adv-x="1228" 
d="M694 1397q236 0 381.5 -153.5t155.5 -414.5q2 -12 2 -36q0 -164 -45 -319.5t-127 -270.5q-86 -120 -197 -177t-260 -57q-256 0 -405.5 168t-149.5 457q0 233 81.5 416t229 285t334.5 102zM598 268q127 0 206 147t79 382q0 141 -48.5 220t-136.5 79q-84 0 -153 -65
t-108.5 -179.5t-39.5 -253.5q0 -153 53.5 -241.5t147.5 -88.5z" />
    <glyph glyph-name="one" unicode="1" horiz-adv-x="1228" 
d="M379 1366h541l-170 -1366h-344l131 1065h-195z" />
    <glyph glyph-name="two" unicode="2" horiz-adv-x="1228" 
d="M662 301h421l-39 -301h-1042q235 215 375 362q113 116 221 246q98 119 141 196.5t43 137.5q0 69 -43 111.5t-112 42.5q-88 0 -128.5 -53t-49.5 -173h-353q11 129 42 214t95 153q71 75 178.5 117.5t229.5 42.5q228 0 362 -120.5t134 -324.5q0 -186 -113 -323
q-43 -54 -111 -119q-100 -95 -251 -209z" />
    <glyph glyph-name="three" unicode="3" horiz-adv-x="1228" 
d="M584 -31q-260 0 -401 128.5t-144 367.5h356v-29q0 -83 50 -129.5t139 -46.5q87 0 138.5 45.5t51.5 122.5q0 72 -48 115t-130 43q-23 0 -43 -2l33 258q47 -6 61 -6q72 0 117 40.5t45 106.5q0 59 -40 96t-103 37q-70 0 -107 -39t-49 -127h-354q15 109 59 200t109 144
q127 103 338 103q227 0 357 -106t130 -292q0 -104 -40.5 -171t-137.5 -119q84 -45 120.5 -111.5t36.5 -171.5q0 -203 -150.5 -330t-393.5 -127z" />
    <glyph glyph-name="four" unicode="4" horiz-adv-x="1228" 
d="M1124 256h-137l-33 -256h-315l31 256h-647l18 276l670 834h411l-102 -836h137zM377 530h328l24 203q16 145 53 328q-71 -106 -123 -172z" />
    <glyph glyph-name="five" unicode="5" horiz-adv-x="1228" 
d="M401 1366h738l-37 -301h-479l-56 -168q53 6 107 6q217 0 336.5 -107.5t119.5 -301.5q0 -112 -46 -209.5t-126 -167t-193.5 -109t-244.5 -39.5q-189 0 -356 70q-25 10 -158 78l98 313q63 -54 116.5 -83.5t129.5 -53.5q95 -25 160 -25q118 0 192 60t74 155
q0 98 -75.5 150.5t-215.5 52.5q-81 0 -150.5 -14t-172.5 -51z" />
    <glyph glyph-name="six" unicode="6" horiz-adv-x="1228" 
d="M1104 1366l-428 -479q57 8 92 8q189 0 306.5 -118.5t117.5 -309.5q0 -218 -162.5 -358t-415.5 -140q-239 0 -395 132t-156 333q0 87 31 166q32 83 82.5 158t153.5 190l366 418h408zM838 459v8q-3 85 -60.5 136.5t-148.5 51.5q-97 0 -160 -58.5t-63 -147.5
q0 -86 61.5 -143.5t153.5 -57.5q95 0 156 59.5t61 151.5z" />
    <glyph glyph-name="seven" unicode="7" horiz-adv-x="1228" 
d="M242 1366h1048l-755 -1366h-379l417 752q79 146 189 313h-557z" />
    <glyph glyph-name="eight" unicode="8" horiz-adv-x="1228" 
d="M1147 1036q0 -115 -57 -182t-197 -117q103 -38 155 -81.5t82 -114.5q29 -71 29 -154q0 -191 -146 -304.5t-390 -113.5q-252 0 -398.5 108.5t-146.5 297.5q0 86 33.5 159.5t95.5 120.5q35 27 71.5 43.5t110.5 38.5q-92 52 -134 120t-42 163q0 163 137 270t346 107
q210 0 330.5 -96.5t120.5 -264.5zM678 885q63 0 105 39.5t42 99.5q0 61 -39 98t-102 37q-65 0 -108.5 -40.5t-43.5 -100.5q0 -58 41.5 -95.5t104.5 -37.5zM805 420v10q-6 63 -56.5 101t-127.5 38q-82 0 -135.5 -44t-53.5 -111t53.5 -111.5t135.5 -44.5q80 0 132 46t52 116z
" />
    <glyph glyph-name="nine" unicode="9" horiz-adv-x="1228" 
d="M180 0l432 479q-58 -12 -80 -12q-189 0 -314.5 125t-125.5 313q0 143 74.5 255t207.5 174.5t302 62.5q243 0 395 -129.5t152 -335.5q0 -214 -211 -453l-424 -479h-408zM881 924v12q-6 80 -63.5 130t-143.5 50q-95 0 -160 -61t-65 -150q0 -83 59.5 -138.5t150.5 -55.5
q96 0 159 60t63 153z" />
    <glyph glyph-name="colon" unicode=":" horiz-adv-x="628" 
d="M274 389q89 0 151 -59.5t62 -145.5q0 -89 -59 -150t-145 -61t-148.5 61.5t-62.5 147.5t59.5 146.5t142.5 60.5zM342 942q89 0 151 -59.5t62 -145.5q0 -89 -59.5 -150t-145.5 -61t-147.5 61.5t-61.5 147.5t59 146.5t142 60.5z" />
    <glyph glyph-name="semicolon" unicode=";" horiz-adv-x="628" 
d="M377 942q89 0 151 -59.5t62 -145.5q0 -89 -59.5 -150t-145.5 -61t-148.5 62t-62.5 147q0 86 59.5 146.5t143.5 60.5zM236 342h313l-373 -647h-248z" />
    <glyph glyph-name="less" unicode="&#x3c;" 
d="M68 797l886 450v-262l-606 -301l604 -303l2 -262l-886 454v224z" />
    <glyph glyph-name="equal" unicode="=" 
d="M96 758v231h887v-231h-887zM96 403v232h887v-232h-887z" />
    <glyph glyph-name="greater" unicode="&#x3e;" 
d="M1010 571l-887 -452v264l606 301l-604 301l-2 262l887 -452v-224z" />
    <glyph glyph-name="question" unicode="?" horiz-adv-x="1122" 
d="M500 385q89 0 145.5 -56.5t56.5 -144.5q0 -91 -58.5 -151t-147.5 -60q-91 0 -150 59t-59 150q0 89 60 146t153 57zM717 547l-10 -76h-318l41 330q51 -4 96 -4q117 0 184.5 47t67.5 129q0 63 -39.5 102t-105.5 39q-72 0 -109.5 -35.5t-44.5 -111.5h-321q17 131 49.5 201.5
t101.5 125.5q122 99 316 99q215 0 342 -113t127 -305q0 -173 -102 -289t-275 -139z" />
    <glyph glyph-name="at" unicode="@" horiz-adv-x="1501" 
d="M1010 930l24 76h180l-122 -388q-25 -78 -25 -106q0 -47 39 -47q37 0 80.5 43.5t77.5 112.5q53 109 53 221q0 175 -116 279t-310 104q-124 0 -239.5 -50.5t-200 -135t-135 -200.5t-50.5 -241q0 -153 73 -269t196 -157q95 -33 223 -33q185 0 377 62l20 -164
q-199 -62 -422 -62q-296 0 -470.5 165t-174.5 444q0 159 66.5 307.5t176 257.5t260 174.5t310.5 65.5q256 0 417 -147t161 -380q0 -140 -61.5 -269.5t-166.5 -211.5q-85 -66 -174 -66q-55 0 -96 32t-47 79q-50 -60 -122 -94.5t-150 -34.5q-109 0 -179.5 77t-70.5 197
q0 90 42 183.5t115 163.5q116 110 252 110q63 0 114.5 -27t74.5 -71zM735 483q74 0 137.5 71t63.5 161q0 57 -30 90t-81 33q-77 0 -140.5 -73t-63.5 -163q0 -54 31.5 -86.5t82.5 -32.5z" />
    <glyph glyph-name="A" unicode="A" horiz-adv-x="1423" 
d="M946 229h-487l-105 -229h-385l678 1366h389l330 -1366h-362zM723 805l-137 -305h295l-58 260q-20 92 -30 158q-8 42 -9 49q-24 -75 -61 -162z" />
    <glyph glyph-name="B" unicode="B" horiz-adv-x="1234" 
d="M86 0l168 1366h436q131 0 202.5 -15.5t121.5 -54.5q52 -39 80 -104.5t28 -142.5q0 -124 -61 -213q-31 -45 -64 -70.5t-98 -54.5q64 -15 97 -29.5t65 -42.5q92 -80 92 -227q0 -125 -71 -228t-189 -149q-50 -20 -108 -27.5t-156 -7.5h-543zM629 1094h-64l-33 -271h50
q113 0 163 36t50 116q0 69 -34.5 94t-131.5 25zM604 567h-104l-35 -295h94q127 0 181.5 39t54.5 127q0 75 -39.5 102t-151.5 27z" />
    <glyph glyph-name="C" unicode="C" horiz-adv-x="1243" 
d="M848 1393q111 0 208.5 -27t205.5 -88l-41 -338q-149 125 -334 125q-189 0 -309.5 -111.5t-120.5 -285.5q0 -164 106 -265.5t277 -101.5q158 0 313 86l-43 -348q-111 -39 -177 -52.5t-145 -13.5q-199 0 -355.5 86t-243.5 241t-87 351q0 153 58 291t157.5 236.5t238 156.5
t292.5 58z" />
    <glyph glyph-name="D" unicode="D" horiz-adv-x="1421" 
d="M86 0l168 1366h387q365 0 547 -170q172 -160 172 -461q0 -369 -230 -559q-73 -60 -156.5 -98.5t-169.5 -54t-141 -19.5t-126 -4h-451zM657 1065h-94l-94 -764h104q197 0 308 105q58 53 90.5 135t32.5 178q0 176 -99 268q-85 78 -248 78z" />
    <glyph glyph-name="E" unicode="E" horiz-adv-x="989" 
d="M254 1366h747l-36 -301h-402l-28 -227h389l-37 -299h-389l-29 -238h418l-37 -301h-764z" />
    <glyph glyph-name="F" unicode="F" horiz-adv-x="970" 
d="M254 1366h778l-37 -301h-432l-28 -231h393l-37 -299h-393l-66 -535h-346z" />
    <glyph glyph-name="G" unicode="G" horiz-adv-x="1540" 
d="M797 485l32 275h658q-6 -220 -68 -379q-72 -190 -243 -299t-394 -109q-198 0 -353 84.5t-241 238t-86 349.5q0 213 96.5 384t267.5 267.5t384 96.5q259 0 436 -148q66 -57 100.5 -106t75.5 -146l-301 -116q-51 113 -129 168t-190 55q-163 0 -273 -128.5t-110 -320.5
q0 -166 100.5 -272.5t257.5 -106.5q112 0 193 58t104 155h-317z" />
    <glyph glyph-name="H" unicode="H" horiz-adv-x="1482" 
d="M1104 1366h346l-168 -1366h-346l68 559h-502l-70 -559h-346l168 1366h346l-61 -506h501z" />
    <glyph glyph-name="I" unicode="I" horiz-adv-x="632" 
d="M254 1366h346l-168 -1366h-346z" />
    <glyph glyph-name="J" unicode="J" horiz-adv-x="985" 
d="M606 1366h346l-116 -940q-13 -111 -41.5 -192.5t-98.5 -151.5q-65 -65 -138 -87t-161 -22q-164 0 -270 76q-85 61 -141 168l256 199q11 -55 43 -92q28 -35 86 -35q44 0 75 33q36 39 52 161z" />
    <glyph glyph-name="K" unicode="K" horiz-adv-x="1376" 
d="M254 1366h346l-74 -598l451 598h397l-522 -696l467 -670h-416l-293 436q-42 63 -102 180l-76 -616h-346z" />
    <glyph glyph-name="L" unicode="L" horiz-adv-x="966" 
d="M254 1366h346l-131 -1065h436l-39 -301h-780z" />
    <glyph glyph-name="M" unicode="M" horiz-adv-x="1923" 
d="M1382 1366h359l43 -1366h-346l-17 612v43q0 86 17 228q-44 -116 -97 -226l-335 -657h-183l-116 528q-36 161 -58 377q-41 -208 -71 -313l-177 -592h-356l432 1366h342l103 -461q36 -153 61 -358q46 125 78 186z" />
    <glyph glyph-name="N" unicode="N" horiz-adv-x="1634" 
d="M1255 1366h347l-168 -1366h-379l-363 612q-85 138 -168 338v-61q0 -140 -14 -258l-78 -631h-346l168 1366h373l389 -659l59 -111l53 -104l27 -52q3 130 16 234z" />
    <glyph glyph-name="O" unicode="O" horiz-adv-x="1648" 
d="M879 1393q311 0 506.5 -175.5t207.5 -465.5v-27q0 -222 -92.5 -393t-261 -265t-387.5 -94q-220 0 -389.5 86.5t-263 243.5t-93.5 361q0 211 98 377.5t274.5 259t400.5 92.5zM1239 688q0 17 -2 25q-9 161 -110.5 256.5t-262.5 95.5q-175 0 -289 -110t-114 -279t105.5 -272
t277.5 -103q175 0 285 107.5t110 279.5z" />
    <glyph glyph-name="P" unicode="P" horiz-adv-x="1181" 
d="M86 0l168 1366h457q132 0 229 -25.5t168 -95.5q115 -113 115 -313q0 -206 -107 -322q-145 -157 -475 -157h-154l-55 -453h-346zM662 1079h-97l-41 -340h109q134 0 192 58q43 43 43 121q0 77 -39 116q-21 22 -55.5 32.5t-54 11.5t-57.5 1z" />
    <glyph glyph-name="Q" unicode="Q" horiz-adv-x="1648" 
d="M1489 313q-27 -46 -50.5 -75t-70.5 -76l160 -211l-305 -62l-93 127q-130 -43 -282 -43q-330 0 -536 192t-206 499q0 211 98 377.5t274.5 259t400.5 92.5q211 0 373.5 -84t251.5 -237t89 -351q0 -108 -27.5 -216t-76.5 -192zM1024 618l129 -184q86 111 86 252
q0 170 -103.5 274.5t-271.5 104.5q-175 0 -289 -110t-114 -279t105.5 -272t277.5 -103q43 0 80 6l-201 260z" />
    <glyph glyph-name="R" unicode="R" horiz-adv-x="1269" 
d="M1071 639q-37 -40 -73.5 -62t-106.5 -47l319 -530h-401l-311 543l-66 -543h-346l168 1366h444q139 0 229.5 -28.5t149.5 -90.5q50 -53 77.5 -133t27.5 -172q0 -186 -111 -303zM631 1092h-66l-43 -351h62q124 0 182.5 47t58.5 144q0 89 -42.5 124.5t-151.5 35.5z" />
    <glyph glyph-name="S" unicode="S" horiz-adv-x="1083" 
d="M686 1393q204 0 397 -125l-151 -262q-131 100 -240 100q-71 0 -112 -32t-41 -87q0 -49 34.5 -81.5t139.5 -82.5q169 -80 236 -164t67 -219q0 -205 -146.5 -336t-375.5 -131q-123 0 -224 32.5t-237 117.5l155 262q93 -63 156 -88t133 -25q82 0 132 38.5t50 101.5
q0 45 -32 77t-127 78q-183 92 -249.5 175t-66.5 221q0 186 142.5 308t359.5 122z" />
    <glyph glyph-name="T" unicode="T" horiz-adv-x="952" 
d="M1016 1065h-291l-133 -1065h-344l131 1065h-291l37 301h928z" />
    <glyph glyph-name="U" unicode="U" horiz-adv-x="1468" 
d="M1090 1366h346l-97 -791q-25 -198 -57.5 -293t-97.5 -157q-158 -152 -467 -152q-266 0 -418 124t-152 343q0 46 17 189l90 737h344l-90 -737q-6 -61 -6 -115q0 -213 225 -213q133 0 195 68q32 36 46.5 80.5t26.5 138.5z" />
    <glyph glyph-name="V" unicode="V" horiz-adv-x="1382" 
d="M1104 1366h389l-733 -1366h-293l-356 1366h368l156 -623q20 -78 28 -122t15 -127q33 102 78 186z" />
    <glyph glyph-name="W" unicode="W" horiz-adv-x="2060" 
d="M1796 1366h375l-588 -1366h-389l-92 545q-29 167 -31 354q-50 -173 -113 -326l-233 -573h-371l-243 1366h348l86 -512q35 -198 49 -448q34 125 57 188l54 131l258 641h327l101 -588q21 -108 39 -372q45 152 67 202l41 103z" />
    <glyph glyph-name="X" unicode="X" horiz-adv-x="1406" 
d="M1483 1366l-539 -668l422 -698h-397l-125 205q-68 115 -127 258q-63 -109 -133 -197l-213 -266h-430l596 719l-392 647h402l90 -160q66 -117 125 -252q96 150 137 199l166 213h418z" />
    <glyph glyph-name="Y" unicode="Y" horiz-adv-x="1275" 
d="M1384 1366l-596 -768l-73 -598h-346l75 608l-348 758h383l94 -219q65 -154 74 -184q2 -4 4 -11t5.5 -17.5l5.5 -16.5q22 42 67 108l236 340h419z" />
    <glyph glyph-name="Z" unicode="Z" horiz-adv-x="1292" 
d="M610 301h613l-37 -301h-1182l741 1065h-538l37 301h1097z" />
    <glyph glyph-name="bracketleft" unicode="[" horiz-adv-x="782" 
d="M598 -385h-530l229 1878h528l-22 -190h-246l-182 -1498h246z" />
    <glyph glyph-name="backslash" unicode="\" horiz-adv-x="1284" 
d="M156 1493h260l819 -1878h-260z" />
    <glyph glyph-name="bracketright" unicode="]" horiz-adv-x="782" 
d="M217 1493h528l-231 -1878h-530l24 190h246l184 1498h-245z" />
    <glyph glyph-name="asciicircum" unicode="^" 
d="M539 1153l-226 -477h-276l328 690h348l329 -690h-278z" />
    <glyph glyph-name="underscore" unicode="_" 
d="M-61 -365v271h1024v-271h-1024z" />
    <glyph glyph-name="grave" unicode="`" 
d="M475 1079l-182 351h336l78 -351h-232z" />
    <glyph glyph-name="a" unicode="a" horiz-adv-x="1253" 
d="M848 915h338l-113 -915h-338l25 100q-78 -71 -147 -99t-164 -28q-173 0 -277 117.5t-104 315.5q0 231 137 383.5t344 152.5q97 0 160 -28t137 -103zM596 238q92 0 152.5 70t60.5 177q0 88 -48.5 139.5t-131.5 51.5q-92 0 -154.5 -71t-62.5 -175q0 -88 49.5 -140
t134.5 -52z" />
    <glyph glyph-name="b" unicode="b" horiz-adv-x="1263" 
d="M250 1493h338l-86 -692q82 76 153.5 108.5t159.5 32.5q168 0 273.5 -121.5t105.5 -316.5q0 -233 -132.5 -382t-338.5 -149q-105 0 -172.5 32t-142.5 118l-5 -123h-337zM635 238q94 0 154.5 70t60.5 177q0 88 -48.5 139.5t-131.5 51.5q-93 0 -155 -70.5t-62 -175.5
q0 -88 49.5 -140t132.5 -52z" />
    <glyph glyph-name="c" unicode="c" horiz-adv-x="866" 
d="M578 942q147 0 276 -63l-35 -285q-50 45 -91.5 63.5t-94.5 18.5q-95 0 -156 -67.5t-61 -172.5q0 -91 50 -143.5t138 -52.5q46 0 85.5 15t94.5 54l-34 -286q-90 -30 -137.5 -40t-104.5 -10q-192 0 -314 127.5t-122 327.5q0 223 143 368.5t363 145.5z" />
    <glyph glyph-name="d" unicode="d" horiz-adv-x="1253" 
d="M918 1493h337l-184 -1493h-336l25 109q-82 -74 -155.5 -105t-166.5 -31q-167 0 -269.5 114.5t-102.5 301.5q0 154 61 281t167.5 199.5t235.5 72.5q95 0 164.5 -33t139.5 -112zM594 238q92 0 152.5 70t60.5 177q0 88 -48.5 139.5t-131.5 51.5q-93 0 -155 -70.5t-62 -175.5
q0 -88 49.5 -140t134.5 -52z" />
    <glyph glyph-name="e" unicode="e" horiz-adv-x="1148" 
d="M1075 389h-684q0 -113 47 -156q34 -34 105 -34q50 0 86 24q33 22 45 62h368q-34 -100 -100 -166q-79 -81 -186 -113.5t-211 -32.5q-219 0 -350 121q-125 121 -125 324q0 123 42 219t107 160q149 145 391 145q219 0 346 -127q123 -123 123 -348q0 -28 -4 -78zM414 580h319
q-3 67 -47 108q-40 37 -106 37q-72 0 -117 -45q-38 -38 -49 -100z" />
    <glyph glyph-name="f" unicode="f" horiz-adv-x="735" 
d="M752 655h-230l-82 -655h-338l82 655h-141l31 260h143l27 220q22 185 123.5 284t269.5 99q106 0 215 -45l-37 -287q-56 45 -113 45q-58 0 -89 -37t-40 -117l-20 -162h229z" />
    <glyph glyph-name="g" unicode="g" horiz-adv-x="1245" 
d="M842 915h336l-101 -802q-22 -185 -56 -287t-97 -166q-132 -129 -408 -129q-240 0 -360 111q-57 51 -86 108.5t-47 147.5h321q9 -47 54.5 -76t117.5 -29q96 0 146 50.5t63 164.5l10 86q-74 -69 -131.5 -95t-136.5 -26q-186 0 -295 123t-109 332q0 226 129.5 370t331.5 144
q99 0 170.5 -36.5t141.5 -123.5zM592 240q89 0 142.5 66.5t53.5 176.5q0 89 -47.5 141t-130.5 52q-89 0 -145.5 -65.5t-56.5 -168.5q0 -92 50.5 -147t133.5 -55z" />
    <glyph glyph-name="h" unicode="h" horiz-adv-x="1214" 
d="M250 1493h338l-82 -659q86 60 152.5 84t148.5 24q144 0 220.5 -83.5t76.5 -240.5q0 -57 -12 -151l-58 -467h-338l45 367q15 115 15 149q0 146 -123 146q-82 0 -121.5 -51t-54.5 -177l-54 -434h-337z" />
    <glyph glyph-name="i" unicode="i" horiz-adv-x="555" 
d="M178 915h338l-113 -915h-337zM195 1296q0 77 54 131t130 54t130 -54t54 -131q0 -76 -53.5 -130t-130.5 -54t-130.5 54t-53.5 130z" />
    <glyph glyph-name="j" unicode="j" horiz-adv-x="565" 
d="M174 915h338l-172 -1384h-336zM195 1296q0 77 54 131t130 54t130 -54t54 -131q0 -76 -53.5 -130t-130.5 -54t-130.5 54t-53.5 130z" />
    <glyph glyph-name="k" unicode="k" horiz-adv-x="1239" 
d="M250 1493h338l-113 -905l293 327h426l-399 -417l428 -498h-412l-135 154q-109 125 -219 276l-54 -430h-337z" />
    <glyph glyph-name="l" unicode="l" horiz-adv-x="583" 
d="M250 1493h338l-185 -1493h-337z" />
    <glyph glyph-name="m" unicode="m" horiz-adv-x="1804" 
d="M178 915h338l-27 -122q74 82 144 115.5t164 33.5q102 0 162 -35.5t104 -122.5q77 85 157 121.5t183 36.5q137 0 217 -72t80 -194q0 -55 -17 -195l-61 -481h-336l55 446q9 79 9 97q0 55 -30 87t-83 32q-82 0 -120.5 -50.5t-53.5 -175.5l-53 -436h-338l59 477q6 50 6 78
q0 50 -29 78.5t-81 28.5q-73 0 -114.5 -55t-55.5 -171l-54 -436h-337z" />
    <glyph glyph-name="n" unicode="n" horiz-adv-x="1214" 
d="M178 915h338l-29 -118q93 83 165 114t167 31q140 0 214.5 -71.5t74.5 -206.5q0 -71 -10 -150l-64 -514h-338l52 403q8 71 8 113q0 70 -32 108t-91 38q-81 0 -121 -55.5t-57 -192.5l-52 -414h-337z" />
    <glyph glyph-name="o" unicode="o" horiz-adv-x="1234" 
d="M631 942q242 0 386 -127.5t144 -341.5q0 -221 -150.5 -360.5t-389.5 -139.5q-246 0 -397.5 132.5t-151.5 349.5q0 214 156.5 350.5t402.5 136.5zM602 238q94 0 154.5 70t60.5 177q0 88 -49 139.5t-133 51.5q-94 0 -156.5 -71t-62.5 -175q0 -88 50.5 -140t135.5 -52z" />
    <glyph glyph-name="p" unicode="p" horiz-adv-x="1259" 
d="M174 915h338l-27 -116q89 79 161 111t161 32q173 0 275 -119t102 -323q0 -238 -119.5 -382.5t-316.5 -144.5q-104 0 -183.5 44t-146.5 139l-78 -625h-336zM625 238q94 0 154.5 70t60.5 177q0 88 -49 139.5t-132 51.5q-93 0 -155 -70.5t-62 -175.5q0 -88 50 -140t133 -52z
" />
    <glyph glyph-name="q" unicode="q" horiz-adv-x="1255" 
d="M850 915h338l-170 -1384h-338l68 553q-75 -63 -135.5 -87t-143.5 -24q-180 0 -288.5 122t-108.5 323q0 235 128 379.5t337 144.5q97 0 166 -28.5t145 -100.5zM596 238q92 0 151.5 70t59.5 177q0 88 -47 139.5t-129 51.5q-92 0 -153.5 -70.5t-61.5 -175.5q0 -88 48.5 -140
t131.5 -52z" />
    <glyph glyph-name="r" unicode="r" horiz-adv-x="833" 
d="M178 915h338l-27 -124q78 71 143.5 97.5t162.5 26.5q7 0 65 -4l-37 -311q-75 41 -153 41q-104 0 -152 -56t-67 -196l-48 -389h-337z" />
    <glyph glyph-name="s" unicode="s" horiz-adv-x="962" 
d="M559 946q162 0 340 -94l-80 -231q-71 44 -119.5 60.5t-103.5 16.5q-117 0 -117 -55q0 -17 12 -27.5t41 -17.5l111 -29q126 -34 185 -96t59 -160q0 -156 -115.5 -248t-310.5 -92q-113 0 -208 31.5t-214 108.5l125 221q98 -62 157.5 -84.5t127.5 -22.5q124 0 124 64
q0 34 -51 49l-110 25q-129 31 -187.5 94.5t-58.5 171.5q0 141 107.5 228t285.5 87z" />
    <glyph glyph-name="t" unicode="t" horiz-adv-x="681" 
d="M705 655h-181l-82 -655h-336l80 655h-143l31 260h145l35 302h338l-37 -302h180z" />
    <glyph glyph-name="u" unicode="u" horiz-adv-x="1222" 
d="M817 915h336l-57 -483q-19 -143 -50 -222t-88 -126q-130 -111 -387 -111q-220 0 -339 94t-119 267q0 57 8 125l57 456h336l-53 -436q-10 -92 -10 -106q0 -58 35.5 -88.5t101.5 -30.5q80 0 119 42t51 142z" />
    <glyph glyph-name="v" unicode="v" horiz-adv-x="1193" 
d="M874 915h375l-618 -915h-230l-356 915h350l105 -278q21 -56 65 -227q68 135 133 237z" />
    <glyph glyph-name="w" unicode="w" horiz-adv-x="1705" 
d="M1399 915h362l-528 -915h-242l-90 328q-29 105 -41 204q-46 -119 -84 -188l-186 -344h-248l-297 915h342l92 -284q35 -116 51 -211q35 93 91 196l161 299h226l88 -276q34 -106 51 -199q41 104 74 160z" />
    <glyph glyph-name="x" unicode="x" horiz-adv-x="1280" 
d="M1290 915l-436 -440l367 -475h-418l-88 123q-51 72 -90 141q-75 -95 -131 -151l-107 -113h-430l471 483l-332 432h422l68 -106q45 -70 71 -129q39 59 64 88l35 41l94 106h440z" />
    <glyph glyph-name="y" unicode="y" horiz-adv-x="1204" 
d="M874 915h386l-857 -1384h-378l327 541l-323 843h374l99 -247q46 -114 76 -262q48 105 120 221z" />
    <glyph glyph-name="z" unicode="z" horiz-adv-x="1144" 
d="M600 260h442l-43 -260h-1015l565 655h-399l43 260h966z" />
    <glyph glyph-name="braceleft" unicode="{" horiz-adv-x="1030" 
d="M657 809q-12 -104 -42.5 -155.5t-110.5 -102.5q54 -40 74 -79.5t20 -106.5q0 -28 -4 -74l-43 -322q-2 -16 -2 -41q0 -41 25 -58t92 -17l75 2l-28 -236q-108 -4 -135 -4q-166 0 -235 49t-69 176q0 36 5 70l47 362q4 32 4 58q0 52 -22 80t-72 39l26 225q99 18 117 92l12 47
l47 383q20 160 100 228.5t248 68.5q56 0 158 -6l-29 -234q-60 0 -89.5 -1.5t-57.5 -7t-39 -19t-19 -33.5t-12 -55z" />
    <glyph glyph-name="bar" unicode="|" 
d="M385 -512v2048h266v-2048h-266z" />
    <glyph glyph-name="braceright" unicode="}" horiz-adv-x="1030" 
d="M424 293q12 103 43 155t111 105q-55 38 -75 77.5t-20 108.5q0 32 4 72l41 326q4 32 4 43q0 49 -36 61t-156 12l29 234q36 1 58.5 2.5t29 2t22.5 1t47 0.5q151 0 216 -52.5t65 -172.5q0 -45 -4 -72l-47 -365q-4 -32 -4 -57q0 -54 22 -82t72 -37l-27 -225q-99 -21 -117 -94
l-16 -62l-41 -364q-19 -169 -92 -232t-254 -63l-158 4l29 236q20 -2 43 -2q100 0 132.5 21.5t41.5 94.5z" />
    <glyph glyph-name="asciitilde" unicode="~" 
d="M324 524q-52 0 -82 -25t-68 -100l-145 97l14 34q58 141 123.5 195.5t171.5 54.5q72 0 213 -53q88 -33 115.5 -40t60.5 -7q51 0 80.5 21t66.5 83l150 -88q-52 -111 -91.5 -159.5t-101.5 -81.5q-71 -33 -133 -33q-31 0 -70.5 11t-138.5 46q-87 30 -114 37.5t-51 7.5z" />
    <glyph glyph-name="uni00A0" unicode="&#xa0;" horiz-adv-x="477" 
 />
    <glyph glyph-name="exclamdown" unicode="&#xa1;" horiz-adv-x="688" 
d="M389 520q-89 0 -146 56.5t-57 144.5q0 91 59 152t148 61q91 0 150 -60t59 -151q0 -89 -60 -146t-153 -57zM420 -471h-344l110 901h344z" />
    <glyph glyph-name="cent" unicode="&#xa2;" horiz-adv-x="1228" 
d="M918 256q-110 -44 -205 -49l-23 -187h-192l24 213q-132 43 -212.5 162.5t-80.5 270.5q0 200 114.5 340t311.5 172l19 174h192l-20 -172q61 -10 92.5 -20.5t85.5 -37.5l-35 -288q-51 39 -93 55t-95 16q-97 0 -160 -65t-63 -166q0 -83 52 -136t134 -53q90 0 188 60z" />
    <glyph glyph-name="sterling" unicode="&#xa3;" horiz-adv-x="1228" 
d="M336 516h-256l24 197h148q-25 91 -25 161q0 210 138 357q152 160 405 160q215 0 334 -127q104 -109 104 -285q0 -61 -8 -102h-338q4 24 4 63q0 89 -35 129q-34 43 -98 43q-81 0 -127 -70q-41 -62 -41 -172q0 -79 29 -157h313l-24 -197h-256q0 -68 -6.5 -115.5
t-28.5 -99.5l92 -29q22 -6 56.5 -18.5t55.5 -17.5t40 -5q46 0 70.5 26t29.5 65h221q-7 -72 -35.5 -147.5t-72.5 -119.5q-84 -84 -230 -84q-41 0 -79 6.5t-61 13t-67 21.5l-71 25q-100 35 -170 35q-87 0 -109 -72h-235q23 123 92 205q81 97 205 117q24 63 24 118q0 44 -12 76
z" />
    <glyph glyph-name="currency" unicode="&#xa4;" horiz-adv-x="1366" 
d="M223 137l-143 144l211 211q-90 133 -90 282q0 147 90 281l-213 213l145 145l213 -213q137 90 287 90q143 0 281 -88l210 209l144 -143l-209 -209q50 -79 71 -144.5t21 -142.5q0 -144 -88 -278l211 -211l-143 -146l-211 211q-137 -92 -291 -92q-76 0 -143 20.5t-144 69.5z
M999 772q0 117 -81 199t-197 82t-197.5 -82t-81.5 -199q0 -115 81.5 -196.5t197.5 -81.5q115 0 196.5 81t81.5 197z" />
    <glyph glyph-name="yen" unicode="&#xa5;" horiz-adv-x="1228" 
d="M463 674h-334l27 215h204l-229 477h404l155 -393l246 393h410l-361 -477h215l-26 -215h-351l-14 -19l-12 -108h362l-26 -213h-363l-41 -334h-336l41 334h-346l27 213h346l12 108z" />
    <glyph glyph-name="brokenbar" unicode="&#xa6;" 
d="M385 694v842h266v-842h-266zM385 -512v842h266v-842h-266z" />
    <glyph glyph-name="section" unicode="&#xa7;" horiz-adv-x="1175" 
d="M1071 1110h-278q0 96 -31 125q-27 27 -78 27q-61 0 -96 -35q-37 -35 -37 -88q0 -44 43 -84q30 -26 143 -78l76 -35q117 -53 172 -121q68 -86 68 -213q0 -119 -69 -212t-187 -144q65 -40 96 -102q29 -59 29 -132q0 -176 -101 -282q-116 -121 -315 -121q-179 0 -281 106
q-100 104 -100 295h278q0 -29 1 -45.5t8.5 -41t21.5 -40.5q31 -36 88 -36q58 0 94 36q35 35 35 99q0 65 -57 110q-13 10 -32 20.5t-33.5 17t-51 22.5t-59.5 26q-70 31 -115.5 59t-81.5 70q-74 88 -74 217q0 140 80 238q64 77 164 115q-39 28 -65 64t-36.5 71.5t-14 58
t-3.5 43.5q0 78 32 149.5t91 123.5q118 100 305 100q191 0 287 -96q88 -83 88 -226q0 -29 -4 -61zM745 571q0 57 -30 95q-41 47 -107 47q-65 0 -112 -47q-47 -50 -47 -113q0 -59 36 -98q39 -39 101 -39q66 0 108 39q51 44 51 116z" />
    <glyph glyph-name="dieresis" unicode="&#xa8;" 
d="M815 1407q66 0 115 -49t49 -115q0 -69 -47 -116.5t-115 -47.5q-69 0 -118.5 48.5t-49.5 117.5q0 66 49 114t117 48zM401 1407q69 0 116.5 -48t47.5 -116q0 -69 -47 -116.5t-115 -47.5q-70 0 -117.5 47.5t-47.5 118.5q0 68 47 115t116 47z" />
    <glyph glyph-name="copyright" unicode="&#xa9;" horiz-adv-x="1556" 
d="M94 684q0 145 56.5 277t152.5 227.5t228.5 152t277.5 56.5q143 0 274 -57t226 -153t151 -228t56 -277q0 -116 -36 -224.5t-101.5 -196.5t-152.5 -154t-195.5 -102t-223.5 -36q-145 0 -277 56.5t-227.5 152.5t-152 228.5t-56.5 277.5zM1372 682q0 159 -76 294t-206 213.5
t-283 78.5q-155 0 -286 -78t-207 -212.5t-76 -293.5t76.5 -294.5t207.5 -214.5t285 -79q153 0 283 79t206 214t76 293zM1044 1067l9 -2v-293l-23 29q-76 82 -178 82q-89 0 -146 -57t-57 -148q0 -88 57 -143.5t146 -55.5q97 0 178 78l23 23v-285l-9 -4l-24 -6
q-98 -33 -176 -33q-189 0 -321 124t-132 302q0 181 131 306.5t320 125.5q91 0 202 -43z" />
    <glyph glyph-name="ordfeminine" unicode="&#xaa;" horiz-adv-x="708" 
d="M586 1294l6 54h192l-67 -543h-193l8 61q-64 -78 -167 -78q-116 0 -185 76q-67 74 -67 185q0 135 98 229q93 88 221 88q101 0 154 -72zM66 547l18 155h621l-19 -155h-620zM451 1200q-55 0 -95 -37q-41 -41 -41 -96q0 -46 29 -78q32 -37 88 -37q50 0 90 35q43 40 43 100
q0 49 -33 82q-31 31 -81 31z" />
    <glyph glyph-name="guillemotleft" unicode="&#xab;" horiz-adv-x="1114" 
d="M608 776l-260 -327l184 -312l-198 -117l-256 447l366 444zM1038 776l-260 -327l185 -312l-199 -117l-256 431l366 460z" />
    <glyph glyph-name="logicalnot" unicode="&#xac;" 
d="M932 0h-266v307h-621v240h887v-547z" />
    <glyph glyph-name="uni00AD" unicode="&#xad;" horiz-adv-x="722" 
d="M92 414l33 272h518l-33 -272h-518z" />
    <glyph glyph-name="registered" unicode="&#xae;" horiz-adv-x="1579" 
d="M94 684q0 194 97.5 358.5t264 259.5t361.5 95q147 0 280.5 -56.5t230 -151.5t153.5 -227t57 -278q-1 -145 -59 -277t-154.5 -228t-229.5 -153t-278 -57q-146 0 -280 57t-231 153.5t-154.5 228.5t-57.5 276zM1395 684q0 161 -76 295t-209 211.5t-293 77.5
q-159 0 -292 -77.5t-210 -212t-77 -294.5t77 -295.5t210.5 -214t291.5 -78.5q157 0 290 78.5t210.5 214t77.5 295.5zM952 623l-8 -5l244 -311h-305l-150 230v-230h-239v776h323q125 0 200 -67.5t75 -181.5q0 -74 -38.5 -132.5t-101.5 -78.5zM733 903v-158h15q108 0 108 80
q0 37 -28 57.5t-80 20.5h-15z" />
    <glyph glyph-name="macron" unicode="&#xaf;" 
d="M170 1104l25 201h811l-25 -201h-811z" />
    <glyph glyph-name="degree" unicode="&#xb0;" horiz-adv-x="1021" 
d="M586 743q-135 0 -228 93q-92 92 -92 221q0 127 92 217q96 92 222 92q64 0 123 -24.5t102 -65.5q92 -89 92 -219q0 -129 -92 -221q-93 -93 -219 -93zM434 1055q0 -61 42 -102.5t106 -41.5t105.5 41.5t41.5 102.5t-41.5 102t-105.5 41t-106 -41t-42 -102z" />
    <glyph glyph-name="plusminus" unicode="&#xb1;" 
d="M78 731v246h309v313h266v-313h312v-246h-312v-315h-266v315h-309zM78 102v246h887v-246h-887z" />
    <glyph glyph-name="twosuperior" unicode="&#xb2;" horiz-adv-x="841" 
d="M528 748h250l-24 -191h-641q75 69 155 152q73 73 183 192q45 52 65 76t43 66t23 75q0 40 -23 66q-21 24 -57 24q-50 0 -76 -41q-20 -34 -27 -80h-219q19 136 105 222q48 49 102 66.5t121 17.5q139 0 223 -76q80 -76 80 -182q0 -98 -61 -187q-68 -103 -222 -200z" />
    <glyph glyph-name="threesuperior" unicode="&#xb3;" horiz-adv-x="823" 
d="M395 1133h-213q19 118 99 192q46 41 98.5 54.5t118.5 13.5q141 0 219 -64q76 -64 76 -170q0 -63 -33 -112q-32 -47 -88 -66q41 -20 67 -53q39 -47 39 -113q0 -116 -80 -192q-89 -82 -249 -82q-164 0 -248 84q-80 80 -88 204h221q0 -51 28 -79q29 -29 76 -29q45 0 72 27
q31 31 31 77q0 43 -31 66q-28 20 -80 20h-10l20 150h17q55 0 80 20q26 21 26 56q0 43 -20 61q-19 19 -56 19q-38 0 -57 -19q-28 -25 -35 -65z" />
    <glyph glyph-name="acute" unicode="&#xb4;" 
d="M631 1430h338l-271 -351h-231z" />
    <glyph glyph-name="mu" unicode="&#xb5;" horiz-adv-x="1214" 
d="M332 -471h-328l170 1386h328l-53 -417q-7 -58 -7 -86q0 -93 43 -136q34 -34 90 -34q63 0 105 39q68 62 88 233l49 401h328l-113 -915h-327l14 115q-24 -50 -68 -90q-47 -41 -106 -41q-60 0 -96 36q-33 28 -48 84z" />
    <glyph glyph-name="mu" unicode="&#x3bc;" horiz-adv-x="1214" 
d="M332 -471h-328l170 1386h328l-53 -417q-7 -58 -7 -86q0 -93 43 -136q34 -34 90 -34q63 0 105 39q68 62 88 233l49 401h328l-113 -915h-327l14 115q-24 -50 -68 -90q-47 -41 -106 -41q-60 0 -96 36q-33 28 -48 84z" />
    <glyph glyph-name="paragraph" unicode="&#xb6;" horiz-adv-x="1370" 
d="M594 -195h-234l105 846q-169 0 -266 97q-80 80 -80 215q0 164 104 272q71 74 172 102.5t246 28.5h688l-26 -217h-148l-166 -1344h-233l166 1344h-162z" />
    <glyph glyph-name="periodcentered" unicode="&#xb7;" horiz-adv-x="475" 
d="M262 936q101 0 171.5 -69t70.5 -167q0 -103 -68 -173t-168 -70q-97 0 -168 71.5t-71 169.5t68 168t165 70z" />
    <glyph glyph-name="cedilla" unicode="&#xb8;" 
d="M430 -94l217 -90l-278 -299l-172 82z" />
    <glyph glyph-name="onesuperior" unicode="&#xb9;" horiz-adv-x="538" 
d="M195 1366h313l-102 -834h-205l80 662h-107z" />
    <glyph glyph-name="ordmasculine" unicode="&#xba;" horiz-adv-x="694" 
d="M434 1366q153 0 240 -92q71 -77 71 -187q0 -129 -83 -208q-97 -93 -250 -93t-244 99q-70 77 -70 188q0 113 80 197q96 96 256 96zM74 702h620l-16 -155h-621zM414 952q50 0 90 35q39 39 39 92q0 59 -31 90t-82 31q-53 0 -90 -37q-39 -39 -39 -94q0 -48 31 -82
q32 -35 82 -35z" />
    <glyph glyph-name="guillemotright" unicode="&#xbb;" horiz-adv-x="1114" 
d="M88 160l272 315l-188 320l197 116l256 -444l-367 -447zM508 160l272 315l-188 320l196 116l256 -444l-366 -447z" />
    <glyph glyph-name="onequarter" unicode="&#xbc;" horiz-adv-x="1536" 
d="M221 1366h314l-103 -834h-205l80 662h-106zM1128 1366h185l-965 -1366h-184zM993 313h172l39 316zM1419 819l-61 -506h96l-20 -157h-97l-18 -156h-193l19 156h-381l16 129l371 534h268z" />
    <glyph glyph-name="onehalf" unicode="&#xbd;" horiz-adv-x="1601" 
d="M221 1366h314l-103 -834h-205l80 662h-106zM1247 190h250l-24 -190h-642q84 78 156 152q60 59 182 192q45 52 65 76t43 66t23 75q0 41 -22 66q-21 24 -57 24q-50 0 -76 -41q-20 -34 -27 -80h-219q19 136 105 222q48 49 102 66.5t121 17.5q139 0 223 -76q80 -76 80 -182
q0 -97 -62 -187q-70 -106 -221 -201zM1128 1366h185l-965 -1366h-184z" />
    <glyph glyph-name="threequarters" unicode="&#xbe;" horiz-adv-x="1720" 
d="M1368 1366h184l-964 -1366h-185zM1178 313h172l39 316zM1604 819l-62 -506h96l-20 -157h-96l-19 -156h-192l18 156h-381l17 129l370 534h269zM406 1133h-213q19 119 98 192q46 41 98.5 54.5t118.5 13.5q141 0 219 -64q76 -64 76 -170q0 -63 -33 -112q-32 -47 -88 -66
q42 -20 68 -53q38 -46 38 -113q0 -117 -79 -192q-89 -82 -250 -82q-164 0 -248 84q-80 80 -88 204h221q0 -50 29 -79t76 -29q44 0 71 27q31 31 31 77q0 43 -31 66q-28 20 -80 20h-10l21 150h16q55 0 80 20q26 21 26 56q0 43 -20 61q-19 19 -55 19q-39 0 -58 -19
q-27 -24 -34 -65z" />
    <glyph glyph-name="questiondown" unicode="&#xbf;" horiz-adv-x="1122" 
d="M637 520q-88 0 -145.5 56.5t-57.5 144.5q0 92 59 152.5t148 60.5q91 0 150 -60t59 -151q0 -89 -59.5 -146t-153.5 -57zM420 340l12 96h318l-43 -350q-51 4 -97 4q-116 0 -184 -46t-68 -120q0 -63 40.5 -102t105.5 -39q72 0 109 35.5t44 111.5h324q-19 -130 -52 -201
t-102 -126q-126 -99 -315 -99q-214 0 -341.5 113.5t-127.5 304.5q0 166 103 280.5t274 137.5z" />
    <glyph glyph-name="Agrave" unicode="&#xc0;" horiz-adv-x="1423" 
d="M946 229h-487l-105 -229h-385l678 1366h389l330 -1366h-362zM723 805l-137 -305h295l-58 260q-20 92 -30 158q-8 42 -9 49q-24 -75 -61 -162zM731 1489l-182 350h336l78 -350h-232z" />
    <glyph glyph-name="Aacute" unicode="&#xc1;" horiz-adv-x="1423" 
d="M946 229h-487l-105 -229h-385l678 1366h389l330 -1366h-362zM723 805l-137 -305h295l-58 260q-20 92 -30 158q-8 42 -9 49q-24 -75 -61 -162zM877 1839h337l-270 -350h-231z" />
    <glyph glyph-name="Acircumflex" unicode="&#xc2;" horiz-adv-x="1423" 
d="M946 229h-487l-105 -229h-385l678 1366h389l330 -1366h-362zM723 805l-137 -305h295l-58 260q-20 92 -30 158q-8 42 -9 49q-24 -75 -61 -162zM891 1591l-219 -135l-144 141l394 250l307 -243l-168 -148z" />
    <glyph glyph-name="Atilde" unicode="&#xc3;" horiz-adv-x="1423" 
d="M946 229h-487l-105 -229h-385l678 1366h389l330 -1366h-362zM723 805l-137 -305h295l-58 260q-20 92 -30 158q-8 42 -9 49q-24 -75 -61 -162zM1106 1788l162 -94q-49 -93 -107 -142q-70 -63 -157 -63q-54 0 -136 31l-73 28q-11 4 -27.5 10.5t-26.5 10.5t-22.5 7t-22.5 3
q-37 0 -61.5 -27.5t-34.5 -58.5l-160 94q38 85 99 139q72 62 174 62q65 0 139 -29l59 -24q15 -6 39.5 -17t38.5 -15.5t25 -4.5q59 0 92 90z" />
    <glyph glyph-name="Adieresis" unicode="&#xc4;" horiz-adv-x="1423" 
d="M946 229h-487l-105 -229h-385l678 1366h389l330 -1366h-362zM723 805l-137 -305h295l-58 260q-20 92 -30 158q-8 42 -9 49q-24 -75 -61 -162zM1061 1817q66 0 115 -49t49 -115q0 -69 -47 -116.5t-115 -47.5q-69 0 -118.5 48.5t-49.5 117.5q0 66 49 114t117 48zM647 1817
q69 0 116.5 -48t47.5 -116q0 -69 -47 -116.5t-115 -47.5q-71 0 -118.5 47.5t-47.5 118.5q0 68 47.5 115t116.5 47z" />
    <glyph glyph-name="Aring" unicode="&#xc5;" horiz-adv-x="1423" 
d="M946 229h-487l-105 -229h-385l678 1366h389l330 -1366h-362zM723 805l-137 -305h295l-58 260q-20 92 -30 158q-8 42 -9 49q-24 -75 -61 -162zM844 1489q-131 0 -204 53.5t-73 149.5q0 92 74 146t199 54q123 0 194.5 -54t71.5 -148q0 -92 -71 -146.5t-191 -54.5zM838 1765
q-48 0 -75.5 -20t-27.5 -55q0 -34 27.5 -55t73.5 -21q49 0 76.5 20.5t27.5 55.5t-27.5 55t-74.5 20z" />
    <glyph glyph-name="AE" unicode="&#xc6;" horiz-adv-x="1890" 
d="M637 1366h854l76 -301h-434l63 -231h416l76 -302h-412l61 -231h422l74 -301h-764l-57 246h-561l-115 -246h-367zM737 862l-159 -344h372l-90 365q-26 108 -37 190q-62 -159 -86 -211z" />
    <glyph glyph-name="Ccedilla" unicode="&#xc7;" horiz-adv-x="1243" 
d="M848 1393q111 0 208.5 -27t205.5 -88l-41 -338q-149 125 -334 125q-189 0 -309.5 -111.5t-120.5 -285.5q0 -164 106 -265.5t277 -101.5q158 0 313 86l-43 -348q-111 -39 -177 -52.5t-145 -13.5q-199 0 -355.5 86t-243.5 241t-87 351q0 153 58 291t157.5 236.5t238 156.5
t292.5 58zM713 -94l229 -90l-278 -299l-189 82z" />
    <glyph glyph-name="Egrave" unicode="&#xc8;" horiz-adv-x="989" 
d="M254 1366h747l-36 -301h-402l-28 -227h389l-37 -299h-389l-29 -238h418l-37 -301h-764zM547 1489l-182 350h335l78 -350h-231z" />
    <glyph glyph-name="Eacute" unicode="&#xc9;" horiz-adv-x="989" 
d="M254 1366h747l-36 -301h-402l-28 -227h389l-37 -299h-389l-29 -238h418l-37 -301h-764zM672 1839h338l-271 -350h-231z" />
    <glyph glyph-name="Ecircumflex" unicode="&#xca;" horiz-adv-x="989" 
d="M254 1366h747l-36 -301h-402l-28 -227h389l-37 -299h-389l-29 -238h418l-37 -301h-764zM696 1591l-219 -135l-143 141l393 250l307 -243l-168 -148z" />
    <glyph glyph-name="Edieresis" unicode="&#xcb;" horiz-adv-x="989" 
d="M254 1366h747l-36 -301h-402l-28 -227h389l-37 -299h-389l-29 -238h418l-37 -301h-764zM856 1817q66 0 115 -49t49 -115q0 -69 -47 -116.5t-115 -47.5q-69 0 -118.5 48.5t-49.5 117.5q0 66 49 114t117 48zM442 1817q69 0 116.5 -48t47.5 -116q0 -69 -47 -116.5
t-115 -47.5q-70 0 -117.5 47.5t-47.5 118.5q0 68 47 115t116 47z" />
    <glyph glyph-name="Igrave" unicode="&#xcc;" horiz-adv-x="632" 
d="M254 1366h346l-168 -1366h-346zM332 1489l-182 350h335l78 -350h-231z" />
    <glyph glyph-name="Iacute" unicode="&#xcd;" horiz-adv-x="632" 
d="M254 1366h346l-168 -1366h-346zM467 1839h338l-270 -350h-232z" />
    <glyph glyph-name="Icircumflex" unicode="&#xce;" horiz-adv-x="632" 
d="M254 1366h346l-168 -1366h-346zM502 1591l-219 -135l-144 141l393 250l308 -243l-168 -148z" />
    <glyph glyph-name="Idieresis" unicode="&#xcf;" horiz-adv-x="632" 
d="M254 1366h346l-168 -1366h-346zM672 1817q66 0 115 -49t49 -115q0 -69 -47 -116.5t-115 -47.5q-69 0 -118.5 48.5t-49.5 117.5q0 66 49 114t117 48zM258 1817q69 0 116.5 -48t47.5 -116q0 -69 -47 -116.5t-115 -47.5q-70 0 -118 47.5t-48 118.5q0 68 47.5 115t116.5 47z
" />
    <glyph glyph-name="Eth" unicode="&#xd0;" horiz-adv-x="1507" 
d="M172 0l76 606h-187l31 246h184l64 514h422q169 0 274.5 -26.5t182.5 -86.5q100 -78 161 -206q66 -144 66 -314q0 -249 -122 -438t-323 -250q-80 -25 -164 -35t-214 -10h-451zM774 1065h-125l-26 -213h241l-28 -246h-246l-35 -305h119q128 0 201.5 29t128.5 104
q86 118 86 299q0 172 -76 252t-240 80z" />
    <glyph glyph-name="Ntilde" unicode="&#xd1;" horiz-adv-x="1634" 
d="M1255 1366h347l-168 -1366h-379l-363 612q-85 138 -168 338v-61q0 -140 -14 -258l-78 -631h-346l168 1366h373l389 -659l59 -111l53 -104l27 -52q3 130 16 234zM1198 1788l162 -94q-49 -93 -107 -142q-70 -63 -157 -63q-53 0 -135 31l-74 28q-11 4 -27.5 10.5t-26.5 10.5
t-22.5 7t-22.5 3q-37 0 -61.5 -27.5t-34.5 -58.5l-160 94q38 85 99 139q72 62 174 62q65 0 139 -29l60 -24q16 -6 39.5 -16.5t37.5 -15.5t25 -5q59 0 92 90z" />
    <glyph glyph-name="Ograve" unicode="&#xd2;" horiz-adv-x="1648" 
d="M879 1393q311 0 506.5 -175.5t207.5 -465.5v-27q0 -222 -92.5 -393t-261 -265t-387.5 -94q-220 0 -389.5 86.5t-263 243.5t-93.5 361q0 211 98 377.5t274.5 259t400.5 92.5zM1239 688q0 17 -2 25q-9 161 -110.5 256.5t-262.5 95.5q-175 0 -289 -110t-114 -279t105.5 -272
t277.5 -103q175 0 285 107.5t110 279.5zM786 1489l-182 350h336l78 -350h-232z" />
    <glyph glyph-name="Oacute" unicode="&#xd3;" horiz-adv-x="1648" 
d="M879 1393q311 0 506.5 -175.5t207.5 -465.5v-27q0 -222 -92.5 -393t-261 -265t-387.5 -94q-220 0 -389.5 86.5t-263 243.5t-93.5 361q0 211 98 377.5t274.5 259t400.5 92.5zM1239 688q0 17 -2 25q-9 161 -110.5 256.5t-262.5 95.5q-175 0 -289 -110t-114 -279t105.5 -272
t277.5 -103q175 0 285 107.5t110 279.5zM918 1839h337l-270 -350h-231z" />
    <glyph glyph-name="Ocircumflex" unicode="&#xd4;" horiz-adv-x="1648" 
d="M879 1393q311 0 506.5 -175.5t207.5 -465.5v-27q0 -222 -92.5 -393t-261 -265t-387.5 -94q-220 0 -389.5 86.5t-263 243.5t-93.5 361q0 211 98 377.5t274.5 259t400.5 92.5zM1239 688q0 17 -2 25q-9 161 -110.5 256.5t-262.5 95.5q-175 0 -289 -110t-114 -279t105.5 -272
t277.5 -103q175 0 285 107.5t110 279.5zM942 1591l-219 -135l-143 141l393 250l307 -243l-168 -148z" />
    <glyph glyph-name="Otilde" unicode="&#xd5;" horiz-adv-x="1648" 
d="M879 1393q311 0 506.5 -175.5t207.5 -465.5v-27q0 -222 -92.5 -393t-261 -265t-387.5 -94q-220 0 -389.5 86.5t-263 243.5t-93.5 361q0 211 98 377.5t274.5 259t400.5 92.5zM1239 688q0 17 -2 25q-9 161 -110.5 256.5t-262.5 95.5q-175 0 -289 -110t-114 -279t105.5 -272
t277.5 -103q175 0 285 107.5t110 279.5zM1126 1788l162 -94q-50 -94 -106 -142q-70 -63 -158 -63q-53 0 -135 31l-74 28q-10 4 -33.5 13.5t-37.5 13.5t-27 4q-37 0 -61.5 -27.5t-34.5 -58.5l-160 94q39 86 98 139q72 62 174 62q65 0 139 -29l60 -24q16 -6 39.5 -16.5
t37.5 -15.5t25 -5q59 0 92 90z" />
    <glyph glyph-name="Odieresis" unicode="&#xd6;" horiz-adv-x="1648" 
d="M879 1393q311 0 506.5 -175.5t207.5 -465.5v-27q0 -222 -92.5 -393t-261 -265t-387.5 -94q-220 0 -389.5 86.5t-263 243.5t-93.5 361q0 211 98 377.5t274.5 259t400.5 92.5zM1239 688q0 17 -2 25q-9 161 -110.5 256.5t-262.5 95.5q-175 0 -289 -110t-114 -279t105.5 -272
t277.5 -103q175 0 285 107.5t110 279.5zM1081 1817q66 0 115 -49t49 -115q0 -69 -47 -116.5t-115 -47.5q-69 0 -118.5 48.5t-49.5 117.5q0 66 49 114t117 48zM668 1817q69 0 116 -48t47 -116q0 -69 -46.5 -116.5t-114.5 -47.5q-70 0 -118 47.5t-48 118.5q0 68 47.5 115
t116.5 47z" />
    <glyph glyph-name="multiply" unicode="&#xd7;" 
d="M272 258l-172 174l250 250l-252 252l189 188l252 -252l249 252l175 -174l-250 -252l252 -252l-189 -188l-252 252z" />
    <glyph glyph-name="Oslash" unicode="&#xd8;" horiz-adv-x="1751" 
d="M39 80l227 203q-56 87 -81 177t-25 204q0 303 194 505q214 224 578 224q130 0 235 -30.5t205 -96.5l227 200l166 -180l-221 -196q103 -161 103 -367q0 -107 -22 -202.5t-58 -162.5t-65 -107t-60 -71q-203 -207 -533 -207q-265 0 -471 133l-233 -206zM543 526l557 496
q-82 43 -182 43q-178 0 -289 -111q-115 -112 -115 -284q0 -85 29 -144zM1266 842l-561 -498q97 -43 192 -43q182 0 287 109q49 51 77.5 124.5t28.5 157.5q0 74 -24 150z" />
    <glyph glyph-name="Ugrave" unicode="&#xd9;" horiz-adv-x="1468" 
d="M1090 1366h346l-97 -791q-25 -198 -57.5 -293t-97.5 -157q-158 -152 -467 -152q-266 0 -418 124t-152 343q0 46 17 189l90 737h344l-90 -737q-6 -61 -6 -115q0 -213 225 -213q133 0 195 68q32 36 46.5 80.5t26.5 138.5zM741 1489l-182 350h336l78 -350h-232z" />
    <glyph glyph-name="Uacute" unicode="&#xda;" horiz-adv-x="1468" 
d="M1090 1366h346l-97 -791q-25 -198 -57.5 -293t-97.5 -157q-158 -152 -467 -152q-266 0 -418 124t-152 343q0 46 17 189l90 737h344l-90 -737q-6 -61 -6 -115q0 -213 225 -213q133 0 195 68q32 36 46.5 80.5t26.5 138.5zM877 1839h337l-270 -350h-231z" />
    <glyph glyph-name="Ucircumflex" unicode="&#xdb;" horiz-adv-x="1468" 
d="M1090 1366h346l-97 -791q-25 -198 -57.5 -293t-97.5 -157q-158 -152 -467 -152q-266 0 -418 124t-152 343q0 46 17 189l90 737h344l-90 -737q-6 -61 -6 -115q0 -213 225 -213q133 0 195 68q32 36 46.5 80.5t26.5 138.5zM901 1591l-219 -135l-143 141l393 250l307 -243
l-168 -148z" />
    <glyph glyph-name="Udieresis" unicode="&#xdc;" horiz-adv-x="1468" 
d="M1090 1366h346l-97 -791q-25 -198 -57.5 -293t-97.5 -157q-158 -152 -467 -152q-266 0 -418 124t-152 343q0 46 17 189l90 737h344l-90 -737q-6 -61 -6 -115q0 -213 225 -213q133 0 195 68q32 36 46.5 80.5t26.5 138.5zM1061 1817q66 0 115 -49t49 -115q0 -69 -47 -116.5
t-115 -47.5q-69 0 -118.5 48.5t-49.5 117.5q0 66 49 114t117 48zM647 1817q69 0 116.5 -48t47.5 -116q0 -69 -47 -116.5t-115 -47.5q-71 0 -118.5 47.5t-47.5 118.5q0 68 47.5 115t116.5 47z" />
    <glyph glyph-name="Yacute" unicode="&#xdd;" horiz-adv-x="1275" 
d="M1384 1366l-596 -768l-73 -598h-346l75 608l-348 758h383l94 -219q65 -154 74 -184q2 -4 4 -11t5.5 -17.5l5.5 -16.5q22 42 67 108l236 340h419zM774 1839h338l-270 -350h-232z" />
    <glyph glyph-name="Thorn" unicode="&#xde;" horiz-adv-x="1368" 
d="M86 0l168 1366h346l-27 -203h115q145 0 218.5 -15t131.5 -56q74 -51 116 -145.5t42 -209.5q0 -106 -35 -203.5t-96 -160.5q-72 -73 -168.5 -102t-267.5 -29h-168l-29 -242h-346zM635 889h-96l-41 -346h108q117 0 176.5 47.5t59.5 138.5q0 85 -49 122.5t-158 37.5z" />
    <glyph glyph-name="germandbls" unicode="&#xdf;" horiz-adv-x="1245" 
d="M403 0h-337l124 1006q20 161 49.5 242.5t90.5 142.5q127 127 344 127q215 0 344 -110t129 -294q0 -134 -78 -231q-33 -40 -66 -62t-98 -45q63 -25 93 -41.5t57 -40.5q108 -97 108 -274q0 -142 -75.5 -250t-200.5 -145q-57 -15 -112 -20t-187 -5h-88l37 291q37 -4 73 -4
q100 0 154.5 46t54.5 132q0 82 -45 124t-131 42q-28 0 -65 -2l36 303l50 -4q73 0 119 44t46 115q0 68 -38.5 108t-104.5 40q-69 0 -105 -41.5t-46 -134.5z" />
    <glyph glyph-name="agrave" unicode="&#xe0;" horiz-adv-x="1253" 
d="M848 915h338l-113 -915h-338l25 100q-78 -71 -147 -99t-164 -28q-173 0 -277 117.5t-104 315.5q0 231 137 383.5t344 152.5q97 0 160 -28t137 -103zM596 238q92 0 152.5 70t60.5 177q0 88 -48.5 139.5t-131.5 51.5q-92 0 -154.5 -71t-62.5 -175q0 -88 49.5 -140
t134.5 -52zM588 1079l-182 351h335l78 -351h-231z" />
    <glyph glyph-name="aacute" unicode="&#xe1;" horiz-adv-x="1253" 
d="M848 915h338l-113 -915h-338l25 100q-78 -71 -147 -99t-164 -28q-173 0 -277 117.5t-104 315.5q0 231 137 383.5t344 152.5q97 0 160 -28t137 -103zM596 238q92 0 152.5 70t60.5 177q0 88 -48.5 139.5t-131.5 51.5q-92 0 -154.5 -71t-62.5 -175q0 -88 49.5 -140
t134.5 -52zM702 1430h338l-270 -351h-231z" />
    <glyph glyph-name="acircumflex" unicode="&#xe2;" horiz-adv-x="1253" 
d="M848 915h338l-113 -915h-338l25 100q-78 -71 -147 -99t-164 -28q-173 0 -277 117.5t-104 315.5q0 231 137 383.5t344 152.5q97 0 160 -28t137 -103zM596 238q92 0 152.5 70t60.5 177q0 88 -48.5 139.5t-131.5 51.5q-92 0 -154.5 -71t-62.5 -175q0 -88 49.5 -140
t134.5 -52zM729 1176l-223 -154l-127 152l393 262l264 -273l-157 -141z" />
    <glyph glyph-name="atilde" unicode="&#xe3;" horiz-adv-x="1253" 
d="M848 915h338l-113 -915h-338l25 100q-78 -71 -147 -99t-164 -28q-173 0 -277 117.5t-104 315.5q0 231 137 383.5t344 152.5q97 0 160 -28t137 -103zM596 238q92 0 152.5 70t60.5 177q0 88 -48.5 139.5t-131.5 51.5q-92 0 -154.5 -71t-62.5 -175q0 -88 49.5 -140
t134.5 -52zM963 1374l161 -94q-49 -92 -106 -141q-72 -64 -158 -64q-53 0 -135 31l-74 29q-10 4 -27 10.5t-26.5 10t-22 6.5t-22.5 3q-37 0 -61.5 -27.5t-34.5 -58.5l-160 95q39 86 98 139q70 61 174 61q68 0 140 -28l59 -25q16 -6 39.5 -16.5t37.5 -15.5t25 -5q60 0 93 90z
" />
    <glyph glyph-name="adieresis" unicode="&#xe4;" horiz-adv-x="1253" 
d="M848 915h338l-113 -915h-338l25 100q-78 -71 -147 -99t-164 -28q-173 0 -277 117.5t-104 315.5q0 231 137 383.5t344 152.5q97 0 160 -28t137 -103zM596 238q92 0 152.5 70t60.5 177q0 88 -48.5 139.5t-131.5 51.5q-92 0 -154.5 -71t-62.5 -175q0 -88 49.5 -140
t134.5 -52zM930 1407q66 0 115 -49t49 -115q0 -69 -47 -116.5t-115 -47.5q-69 0 -118.5 48.5t-49.5 117.5q0 66 49 114t117 48zM516 1407q69 0 116.5 -48t47.5 -116q0 -69 -47 -116.5t-115 -47.5q-70 0 -118 47.5t-48 118.5q0 68 47.5 115t116.5 47z" />
    <glyph glyph-name="aring" unicode="&#xe5;" horiz-adv-x="1253" 
d="M848 915h338l-113 -915h-338l25 100q-78 -71 -147 -99t-164 -28q-173 0 -277 117.5t-104 315.5q0 231 137 383.5t344 152.5q97 0 160 -28t137 -103zM596 238q92 0 152.5 70t60.5 177q0 88 -48.5 139.5t-131.5 51.5q-92 0 -154.5 -71t-62.5 -175q0 -88 49.5 -140
t134.5 -52zM700 1079q-131 0 -203.5 53t-72.5 150q0 92 73.5 146.5t198.5 54.5q123 0 195 -54.5t72 -148.5q0 -92 -71.5 -146.5t-191.5 -54.5zM694 1356q-47 0 -74.5 -20.5t-27.5 -55.5q0 -34 27.5 -55t72.5 -21q49 0 77 20.5t28 55.5t-28 55.5t-75 20.5z" />
    <glyph glyph-name="ae" unicode="&#xe6;" horiz-adv-x="1767" 
d="M1694 403h-684v-10q0 -86 49 -135q47 -47 125 -47q114 0 155 82h326q-32 -144 -158 -232q-129 -88 -321 -88q-135 0 -221 33q-81 33 -131 92q-77 -65 -175 -94q-105 -31 -219 -31q-193 0 -297 95q-86 80 -86 196q0 123 76 199q102 102 301 102q153 0 268 -86q7 35 7 62
q0 95 -47 139q-45 43 -146 43q-124 0 -289 -68l17 240q193 47 329 47q100 0 191 -27q88 -29 145 -92q52 52 131 84q87 35 205 35q196 0 305 -100q144 -130 144 -408v-31zM504 360q-62 0 -103 -24q-41 -25 -41 -66t37 -65q44 -31 117 -31q63 0 104 29q37 26 37 65
q0 43 -47 70q-41 22 -104 22zM1040 594h346q-5 68 -57 104q-42 31 -110 31q-78 0 -125 -39q-42 -33 -54 -96z" />
    <glyph glyph-name="ccedilla" unicode="&#xe7;" horiz-adv-x="866" 
d="M578 942q147 0 276 -63l-35 -285q-50 45 -91.5 63.5t-94.5 18.5q-95 0 -156 -67.5t-61 -172.5q0 -91 50 -143.5t138 -52.5q46 0 85.5 15t94.5 54l-34 -286q-90 -30 -137.5 -40t-104.5 -10q-192 0 -314 127.5t-122 327.5q0 223 143 368.5t363 145.5zM455 -94l217 -90
l-279 -299l-172 82z" />
    <glyph glyph-name="egrave" unicode="&#xe8;" horiz-adv-x="1148" 
d="M1075 389h-684q0 -113 47 -156q34 -34 105 -34q50 0 86 24q33 22 45 62h368q-34 -100 -100 -166q-79 -81 -186 -113.5t-211 -32.5q-219 0 -350 121q-125 121 -125 324q0 123 42 219t107 160q149 145 391 145q219 0 346 -127q123 -123 123 -348q0 -28 -4 -78zM414 580h319
q-3 67 -47 108q-40 37 -106 37q-72 0 -117 -45q-38 -38 -49 -100zM516 1079l-182 351h336l78 -351h-232z" />
    <glyph glyph-name="eacute" unicode="&#xe9;" horiz-adv-x="1148" 
d="M1075 389h-684q0 -113 47 -156q34 -34 105 -34q50 0 86 24q33 22 45 62h368q-34 -100 -100 -166q-79 -81 -186 -113.5t-211 -32.5q-219 0 -350 121q-125 121 -125 324q0 123 42 219t107 160q149 145 391 145q219 0 346 -127q123 -123 123 -348q0 -28 -4 -78zM414 580h319
q-3 67 -47 108q-40 37 -106 37q-72 0 -117 -45q-38 -38 -49 -100zM651 1430h338l-270 -351h-232z" />
    <glyph glyph-name="ecircumflex" unicode="&#xea;" horiz-adv-x="1148" 
d="M1075 389h-684q0 -113 47 -156q34 -34 105 -34q50 0 86 24q33 22 45 62h368q-34 -100 -100 -166q-79 -81 -186 -113.5t-211 -32.5q-219 0 -350 121q-125 121 -125 324q0 123 42 219t107 160q149 145 391 145q219 0 346 -127q123 -123 123 -348q0 -28 -4 -78zM414 580h319
q-3 67 -47 108q-40 37 -106 37q-72 0 -117 -45q-38 -38 -49 -100zM688 1176l-223 -154l-127 152l393 262l264 -273l-157 -141z" />
    <glyph glyph-name="edieresis" unicode="&#xeb;" horiz-adv-x="1148" 
d="M1075 389h-684q0 -113 47 -156q34 -34 105 -34q50 0 86 24q33 22 45 62h368q-34 -100 -100 -166q-79 -81 -186 -113.5t-211 -32.5q-219 0 -350 121q-125 121 -125 324q0 123 42 219t107 160q149 145 391 145q219 0 346 -127q123 -123 123 -348q0 -28 -4 -78zM414 580h319
q-3 67 -47 108q-40 37 -106 37q-72 0 -117 -45q-38 -38 -49 -100zM856 1407q66 0 115 -49t49 -115q0 -69 -47 -116.5t-115 -47.5q-69 0 -118.5 48.5t-49.5 117.5q0 66 49 114t117 48zM442 1407q69 0 116.5 -48t47.5 -116q0 -69 -47 -116.5t-115 -47.5q-70 0 -117.5 47.5
t-47.5 118.5q0 68 47 115t116 47z" />
    <glyph glyph-name="igrave" unicode="&#xec;" horiz-adv-x="583" 
d="M178 915h338l-113 -915h-337zM291 1079l-182 351h335l78 -351h-231z" />
    <glyph glyph-name="iacute" unicode="&#xed;" horiz-adv-x="583" 
d="M178 915h338l-113 -915h-337zM365 1430h337l-270 -351h-231z" />
    <glyph glyph-name="icircumflex" unicode="&#xee;" horiz-adv-x="583" 
d="M178 915h338l-113 -915h-337zM408 1176l-224 -154l-127 152l394 262l264 -273l-158 -141z" />
    <glyph glyph-name="idieresis" unicode="&#xef;" horiz-adv-x="583" 
d="M178 915h338l-113 -915h-337zM596 1407q66 0 115 -49t49 -115q0 -69 -47 -116.5t-115 -47.5q-69 0 -118.5 48.5t-49.5 117.5q0 66 49 114t117 48zM182 1407q69 0 116.5 -48t47.5 -116q0 -69 -47 -116.5t-115 -47.5q-70 0 -118 47.5t-48 118.5q0 68 47.5 115t116.5 47z
" />
    <glyph glyph-name="eth" unicode="&#xf0;" horiz-adv-x="1282" 
d="M279 1255l81 238q277 0 463 -109l348 152l66 -158l-258 -110q55 -44 92 -95.5t68 -125.5q63 -151 63 -355q0 -383 -174 -563q-149 -156 -426 -156q-121 0 -219 31t-180 113q-131 134 -131 323q0 101 36.5 191t102.5 157q71 71 177.5 113.5t234.5 42.5q167 0 288 -102
q-1 18 -3.5 34.5t-14 55t-29.5 71t-54.5 70t-84.5 62.5l-436 -199l-62 158l318 137q-83 31 -176 31q-32 0 -90 -7zM606 238q90 0 146 59q69 69 69 188q0 97 -55 146q-52 45 -127 45q-88 0 -150 -64q-69 -72 -69 -182q0 -84 51 -139q53 -53 135 -53z" />
    <glyph glyph-name="ntilde" unicode="&#xf1;" horiz-adv-x="1214" 
d="M178 915h338l-29 -118q93 83 165 114t167 31q140 0 214.5 -71.5t74.5 -206.5q0 -71 -10 -150l-64 -514h-338l52 403q8 71 8 113q0 70 -32 108t-91 38q-81 0 -121 -55.5t-57 -192.5l-52 -414h-337zM942 1374l162 -94q-48 -91 -107 -141q-72 -64 -157 -64q-53 0 -135 31
l-74 29q-10 4 -27 10.5t-26.5 10t-22.5 6.5t-23 3q-37 0 -61.5 -27.5t-34.5 -58.5l-160 95q38 85 99 139q70 61 174 61q67 0 139 -28l60 -25q16 -6 39.5 -16.5t37.5 -15.5t25 -5q59 0 92 90z" />
    <glyph glyph-name="ograve" unicode="&#xf2;" horiz-adv-x="1234" 
d="M631 942q242 0 386 -127.5t144 -341.5q0 -221 -150.5 -360.5t-389.5 -139.5q-246 0 -397.5 132.5t-151.5 349.5q0 214 156.5 350.5t402.5 136.5zM602 238q94 0 154.5 70t60.5 177q0 88 -49 139.5t-133 51.5q-94 0 -156.5 -71t-62.5 -175q0 -88 50.5 -140t135.5 -52z
M516 1079l-182 351h336l78 -351h-232z" />
    <glyph glyph-name="oacute" unicode="&#xf3;" horiz-adv-x="1234" 
d="M631 942q242 0 386 -127.5t144 -341.5q0 -221 -150.5 -360.5t-389.5 -139.5q-246 0 -397.5 132.5t-151.5 349.5q0 214 156.5 350.5t402.5 136.5zM602 238q94 0 154.5 70t60.5 177q0 88 -49 139.5t-133 51.5q-94 0 -156.5 -71t-62.5 -175q0 -88 50.5 -140t135.5 -52z
M672 1430h338l-271 -351h-231z" />
    <glyph glyph-name="ocircumflex" unicode="&#xf4;" horiz-adv-x="1234" 
d="M631 942q242 0 386 -127.5t144 -341.5q0 -221 -150.5 -360.5t-389.5 -139.5q-246 0 -397.5 132.5t-151.5 349.5q0 214 156.5 350.5t402.5 136.5zM602 238q94 0 154.5 70t60.5 177q0 88 -49 139.5t-133 51.5q-94 0 -156.5 -71t-62.5 -175q0 -88 50.5 -140t135.5 -52z
M688 1176l-223 -154l-127 152l393 262l264 -273l-157 -141z" />
    <glyph glyph-name="otilde" unicode="&#xf5;" horiz-adv-x="1234" 
d="M631 942q242 0 386 -127.5t144 -341.5q0 -221 -150.5 -360.5t-389.5 -139.5q-246 0 -397.5 132.5t-151.5 349.5q0 214 156.5 350.5t402.5 136.5zM602 238q94 0 154.5 70t60.5 177q0 88 -49 139.5t-133 51.5q-94 0 -156.5 -71t-62.5 -175q0 -88 50.5 -140t135.5 -52z
M901 1374l162 -94q-48 -91 -107 -141q-72 -64 -157 -64q-53 0 -135 31l-74 29q-10 4 -27 10.5t-26.5 10t-22 6.5t-22.5 3q-37 0 -62 -27.5t-35 -58.5l-159 95q39 86 98 139q70 61 174 61q67 0 139 -28l60 -25q16 -6 39.5 -16.5t37.5 -15.5t25 -5q59 0 92 90z" />
    <glyph glyph-name="odieresis" unicode="&#xf6;" horiz-adv-x="1234" 
d="M631 942q242 0 386 -127.5t144 -341.5q0 -221 -150.5 -360.5t-389.5 -139.5q-246 0 -397.5 132.5t-151.5 349.5q0 214 156.5 350.5t402.5 136.5zM602 238q94 0 154.5 70t60.5 177q0 88 -49 139.5t-133 51.5q-94 0 -156.5 -71t-62.5 -175q0 -88 50.5 -140t135.5 -52z
M856 1407q66 0 115 -49t49 -115q0 -69 -47 -116.5t-115 -47.5q-69 0 -118.5 48.5t-49.5 117.5q0 66 49 114t117 48zM442 1407q69 0 116.5 -48t47.5 -116q0 -69 -47 -116.5t-115 -47.5q-70 0 -117.5 47.5t-47.5 118.5q0 68 47 115t116 47z" />
    <glyph glyph-name="divide" unicode="&#xf7;" 
d="M387 1044q0 63 44.5 107.5t107.5 44.5q64 0 108.5 -44.5t44.5 -107.5t-45 -107.5t-108 -43.5q-62 0 -107 44t-45 107zM387 348q0 63 44.5 107.5t107.5 44.5q64 0 108.5 -44.5t44.5 -107.5t-45 -107.5t-108 -43.5q-62 0 -107 44t-45 107zM96 573v246h887v-246h-887z" />
    <glyph glyph-name="oslash" unicode="&#xf8;" horiz-adv-x="1282" 
d="M16 10l179 158q-99 120 -99 283q0 198 137 335q156 156 410 156q182 0 326 -82l186 166l111 -121l-174 -153q94 -120 94 -287q0 -204 -129 -336q-154 -156 -430 -156q-99 0 -170.5 19.5t-139.5 66.5l-190 -168zM838 532l-308 -274q42 -22 95 -22q91 0 147 59
q70 73 70 188q0 17 -4 49zM442 385l306 270q-33 23 -76 23q-92 0 -154 -55q-78 -70 -78 -199q0 -9 1 -22t1 -17z" />
    <glyph glyph-name="ugrave" unicode="&#xf9;" horiz-adv-x="1222" 
d="M817 915h336l-57 -483q-19 -143 -50 -222t-88 -126q-130 -111 -387 -111q-220 0 -339 94t-119 267q0 57 8 125l57 456h336l-53 -436q-10 -92 -10 -106q0 -58 35.5 -88.5t101.5 -30.5q80 0 119 42t51 142zM573 1079l-182 351h336l78 -351h-232z" />
    <glyph glyph-name="uacute" unicode="&#xfa;" horiz-adv-x="1222" 
d="M817 915h336l-57 -483q-19 -143 -50 -222t-88 -126q-130 -111 -387 -111q-220 0 -339 94t-119 267q0 57 8 125l57 456h336l-53 -436q-10 -92 -10 -106q0 -58 35.5 -88.5t101.5 -30.5q80 0 119 42t51 142zM729 1430h338l-270 -351h-232z" />
    <glyph glyph-name="ucircumflex" unicode="&#xfb;" horiz-adv-x="1222" 
d="M817 915h336l-57 -483q-19 -143 -50 -222t-88 -126q-130 -111 -387 -111q-220 0 -339 94t-119 267q0 57 8 125l57 456h336l-53 -436q-10 -92 -10 -106q0 -58 35.5 -88.5t101.5 -30.5q80 0 119 42t51 142zM717 1176l-223 -154l-127 152l393 262l264 -273l-158 -141z" />
    <glyph glyph-name="udieresis" unicode="&#xfc;" horiz-adv-x="1222" 
d="M817 915h336l-57 -483q-19 -143 -50 -222t-88 -126q-130 -111 -387 -111q-220 0 -339 94t-119 267q0 57 8 125l57 456h336l-53 -436q-10 -92 -10 -106q0 -58 35.5 -88.5t101.5 -30.5q80 0 119 42t51 142zM885 1407q66 0 115 -49t49 -115q0 -69 -47 -116.5t-115 -47.5
q-69 0 -118.5 48.5t-49.5 117.5q0 66 49 114t117 48zM471 1407q69 0 116.5 -48t47.5 -116q0 -69 -47 -116.5t-115 -47.5q-71 0 -118.5 47.5t-47.5 118.5q0 68 47.5 115t116.5 47z" />
    <glyph glyph-name="yacute" unicode="&#xfd;" horiz-adv-x="1204" 
d="M874 915h386l-857 -1384h-378l327 541l-323 843h374l99 -247q46 -114 76 -262q48 105 120 221zM713 1430h338l-271 -351h-231z" />
    <glyph glyph-name="thorn" unicode="&#xfe;" horiz-adv-x="1257" 
d="M244 1493h338l-72 -582l-27 -112q89 79 161 111t161 32q173 0 275 -119t102 -323q0 -238 -120 -382.5t-317 -144.5q-104 0 -182.5 44t-146.5 139l-76 -625h-336zM623 238q94 0 154.5 70t60.5 177q0 88 -49 139.5t-132 51.5q-93 0 -155 -70.5t-62 -175.5q0 -88 50 -140
t133 -52z" />
    <glyph glyph-name="ydieresis" unicode="&#xff;" horiz-adv-x="1204" 
d="M874 915h386l-857 -1384h-378l327 541l-323 843h374l99 -247q46 -114 76 -262q48 105 120 221zM885 1407q66 0 115 -49t49 -115q0 -69 -47 -116.5t-115 -47.5q-69 0 -118.5 48.5t-49.5 117.5q0 66 49 114t117 48zM471 1407q69 0 116.5 -48t47.5 -116q0 -69 -47 -116.5
t-115 -47.5q-71 0 -118.5 47.5t-47.5 118.5q0 68 47.5 115t116.5 47z" />
    <glyph glyph-name="Amacron" unicode="&#x100;" horiz-adv-x="1423" 
d="M946 229h-487l-105 -229h-385l678 1366h389l330 -1366h-362zM723 805l-137 -305h295l-58 260q-20 92 -30 158q-8 42 -9 49q-24 -75 -61 -162zM438 1534l25 201h770l-25 -201h-770z" />
    <glyph glyph-name="amacron" unicode="&#x101;" horiz-adv-x="1253" 
d="M848 915h338l-113 -915h-338l25 100q-78 -71 -147 -99t-164 -28q-173 0 -277 117.5t-104 315.5q0 231 137 383.5t344 152.5q97 0 160 -28t137 -103zM596 238q92 0 152.5 70t60.5 177q0 88 -48.5 139.5t-131.5 51.5q-92 0 -154.5 -71t-62.5 -175q0 -88 49.5 -140
t134.5 -52zM272 1104l25 201h811l-25 -201h-811z" />
    <glyph glyph-name="Abreve" unicode="&#x102;" horiz-adv-x="1423" 
d="M946 229h-487l-105 -229h-385l678 1366h389l330 -1366h-362zM723 805l-137 -305h295l-58 260q-20 92 -30 158q-8 42 -9 49q-24 -75 -61 -162zM514 1763q0 4 1 17.5t1 23.5h203q9 -127 133 -127q64 0 104 31t62 96h209q-26 -152 -124 -233.5t-253 -81.5q-148 0 -242 76.5
t-94 197.5z" />
    <glyph glyph-name="abreve" unicode="&#x103;" horiz-adv-x="1253" 
d="M848 915h338l-113 -915h-338l25 100q-78 -71 -147 -99t-164 -28q-173 0 -277 117.5t-104 315.5q0 231 137 383.5t344 152.5q97 0 160 -28t137 -103zM596 238q92 0 152.5 70t60.5 177q0 88 -48.5 139.5t-131.5 51.5q-92 0 -154.5 -71t-62.5 -175q0 -88 49.5 -140
t134.5 -52zM350 1354q0 4 1 17.5t1 23.5h203q9 -127 133 -127q64 0 104 31t62 96h209q-26 -152 -124 -234t-253 -82q-148 0 -242 77t-94 198z" />
    <glyph glyph-name="Aogonek" unicode="&#x104;" horiz-adv-x="1423" 
d="M942 250h-475l-113 -250h-385l678 1366h389l330 -1366h-203q-36 -26 -78 -68q-45 -45 -45 -82q0 -33 21 -51q18 -18 51 -18q49 0 100 37l-65 -176q-67 -37 -139 -37q-82 0 -127 47q-45 48 -45 117q0 76 57 141q45 51 111 90zM823 760q-30 141 -39 207q-28 -90 -61 -162
l-127 -283h278z" />
    <glyph glyph-name="aogonek" unicode="&#x105;" horiz-adv-x="1253" 
d="M848 915h338l-113 -915h-82q-37 -26 -78 -70q-41 -41 -41 -86q0 -30 19 -45q21 -18 61 -18q34 0 99 37l-66 -180q-67 -27 -129 -27q-89 0 -137 45q-45 42 -45 117q0 65 53 131q52 61 115 96h-107l25 100q-70 -62 -119 -86q-82 -41 -192 -41q-156 0 -254 93
q-127 117 -127 340q0 130 43 231t108 168q137 137 340 137q106 0 176 -41q38 -21 113 -90v104zM596 238q88 0 145 63q68 75 68 184q0 89 -55 144q-50 47 -125 47q-84 0 -144 -60q-73 -73 -73 -186q0 -85 51 -139q50 -53 133 -53z" />
    <glyph glyph-name="Cacute" unicode="&#x106;" horiz-adv-x="1243" 
d="M848 1393q111 0 208.5 -27t205.5 -88l-41 -338q-149 125 -334 125q-189 0 -309.5 -111.5t-120.5 -285.5q0 -164 106 -265.5t277 -101.5q158 0 313 86l-43 -348q-111 -39 -177 -52.5t-145 -13.5q-199 0 -355.5 86t-243.5 241t-87 351q0 153 58 291t157.5 236.5t238 156.5
t292.5 58zM897 1839h338l-270 -350h-232z" />
    <glyph glyph-name="cacute" unicode="&#x107;" horiz-adv-x="866" 
d="M578 942q147 0 276 -63l-35 -285q-50 45 -91.5 63.5t-94.5 18.5q-95 0 -156 -67.5t-61 -172.5q0 -91 50 -143.5t138 -52.5q46 0 85.5 15t94.5 54l-34 -286q-90 -30 -137.5 -40t-104.5 -10q-192 0 -314 127.5t-122 327.5q0 223 143 368.5t363 145.5zM672 1430h338
l-271 -351h-231z" />
    <glyph glyph-name="Ccircumflex" unicode="&#x108;" horiz-adv-x="1243" 
d="M848 1393q111 0 208.5 -27t205.5 -88l-41 -338q-149 125 -334 125q-189 0 -309.5 -111.5t-120.5 -285.5q0 -164 106 -265.5t277 -101.5q158 0 313 86l-43 -348q-111 -39 -177 -52.5t-145 -13.5q-199 0 -355.5 86t-243.5 241t-87 351q0 153 58 291t157.5 236.5t238 156.5
t292.5 58zM911 1591l-219 -135l-143 141l393 250l307 -243l-168 -148z" />
    <glyph glyph-name="ccircumflex" unicode="&#x109;" horiz-adv-x="866" 
d="M578 942q147 0 276 -63l-35 -285q-50 45 -91.5 63.5t-94.5 18.5q-95 0 -156 -67.5t-61 -172.5q0 -91 50 -143.5t138 -52.5q46 0 85.5 15t94.5 54l-34 -286q-90 -30 -137.5 -40t-104.5 -10q-192 0 -314 127.5t-122 327.5q0 223 143 368.5t363 145.5zM647 1176l-223 -154
l-127 152l393 262l264 -273l-157 -141z" />
    <glyph glyph-name="Cdotaccent" unicode="&#x10a;" horiz-adv-x="1243" 
d="M848 1393q111 0 208.5 -27t205.5 -88l-41 -338q-149 125 -334 125q-189 0 -309.5 -111.5t-120.5 -285.5q0 -164 106 -265.5t277 -101.5q158 0 313 86l-43 -348q-111 -39 -177 -52.5t-145 -13.5q-199 0 -355.5 86t-243.5 241t-87 351q0 153 58 291t157.5 236.5t238 156.5
t292.5 58zM717 1661q0 78 54 132t132 54t132.5 -54t54.5 -132t-54.5 -132t-132.5 -54t-132 54t-54 132z" />
    <glyph glyph-name="cdotaccent" unicode="&#x10b;" horiz-adv-x="866" 
d="M578 942q147 0 276 -63l-35 -285q-50 45 -91.5 63.5t-94.5 18.5q-95 0 -156 -67.5t-61 -172.5q0 -91 50 -143.5t138 -52.5q46 0 85.5 15t94.5 54l-34 -286q-90 -30 -137.5 -40t-104.5 -10q-192 0 -314 127.5t-122 327.5q0 223 143 368.5t363 145.5zM434 1251
q0 78 54.5 132.5t132.5 54.5t132 -54.5t54 -132.5t-54 -132t-132 -54t-132.5 54t-54.5 132z" />
    <glyph glyph-name="Ccaron" unicode="&#x10c;" horiz-adv-x="1243" 
d="M848 1393q111 0 208.5 -27t205.5 -88l-41 -338q-149 125 -334 125q-189 0 -309.5 -111.5t-120.5 -285.5q0 -164 106 -265.5t277 -101.5q158 0 313 86l-43 -348q-111 -39 -177 -52.5t-145 -13.5q-199 0 -355.5 86t-243.5 241t-87 351q0 153 58 291t157.5 236.5t238 156.5
t292.5 58zM715 1847l180 -135l217 135l137 -147l-377 -244l-321 250z" />
    <glyph glyph-name="ccaron" unicode="&#x10d;" horiz-adv-x="866" 
d="M578 942q147 0 276 -63l-35 -285q-50 45 -91.5 63.5t-94.5 18.5q-95 0 -156 -67.5t-61 -172.5q0 -91 50 -143.5t138 -52.5q46 0 85.5 15t94.5 54l-34 -286q-90 -30 -137.5 -40t-104.5 -10q-192 0 -314 127.5t-122 327.5q0 223 143 368.5t363 145.5zM498 1432l155 -150
l211 154l135 -148l-374 -266l-295 272z" />
    <glyph glyph-name="Dcaron" unicode="&#x10e;" horiz-adv-x="1421" 
d="M86 0l168 1366h387q365 0 547 -170q172 -160 172 -461q0 -369 -230 -559q-73 -60 -156.5 -98.5t-169.5 -54t-141 -19.5t-126 -4h-451zM657 1065h-94l-94 -764h104q197 0 308 105q58 53 90.5 135t32.5 178q0 176 -99 268q-85 78 -248 78zM592 1847l180 -135l217 135
l137 -147l-376 -244l-322 250z" />
    <glyph glyph-name="dcaron" unicode="&#x10f;" horiz-adv-x="1617" 
d="M918 1493h337l-184 -1493h-336l25 109q-82 -74 -155.5 -105t-166.5 -31q-167 0 -269.5 114.5t-102.5 301.5q0 154 61 281t167.5 199.5t235.5 72.5q95 0 164.5 -33t139.5 -112zM594 238q92 0 152.5 70t60.5 177q0 88 -48.5 139.5t-131.5 51.5q-93 0 -155 -70.5t-62 -175.5
q0 -88 49.5 -140t134.5 -52zM1475 1434l307 -54l-287 -413l-205 37z" />
    <glyph glyph-name="Dcroat" unicode="&#x110;" horiz-adv-x="1507" 
d="M172 0l76 606h-187l31 246h184l64 514h422q169 0 274.5 -26.5t182.5 -86.5q100 -78 161 -206q66 -144 66 -314q0 -249 -122 -438t-323 -250q-80 -25 -164 -35t-214 -10h-451zM774 1065h-125l-26 -213h241l-28 -246h-246l-35 -305h119q128 0 201.5 29t128.5 104
q86 118 86 299q0 172 -76 252t-240 80z" />
    <glyph glyph-name="dcroat" unicode="&#x111;" horiz-adv-x="1331" 
d="M895 1317l23 176h337l-22 -176h201l-29 -225h-199l-135 -1092h-336l25 109q-82 -74 -155.5 -105t-166.5 -31q-167 0 -269.5 114.5t-102.5 301.5q0 154 61 281t167.5 199.5t235.5 72.5q95 0 164.5 -33t139.5 -112l32 295h-348l29 225h348zM594 238q92 0 152.5 70t60.5 177
q0 88 -48.5 139.5t-131.5 51.5q-93 0 -155 -70.5t-62 -175.5q0 -88 49.5 -140t134.5 -52z" />
    <glyph glyph-name="Emacron" unicode="&#x112;" horiz-adv-x="989" 
d="M254 1366h747l-36 -301h-402l-28 -227h389l-37 -299h-389l-29 -238h418l-37 -301h-764zM244 1534l24 201h770l-24 -201h-770z" />
    <glyph glyph-name="emacron" unicode="&#x113;" horiz-adv-x="1148" 
d="M1075 389h-684q0 -113 47 -156q34 -34 105 -34q50 0 86 24q33 22 45 62h368q-34 -100 -100 -166q-79 -81 -186 -113.5t-211 -32.5q-219 0 -350 121q-125 121 -125 324q0 123 42 219t107 160q149 145 391 145q219 0 346 -127q123 -123 123 -348q0 -28 -4 -78zM414 580h319
q-3 67 -47 108q-40 37 -106 37q-72 0 -117 -45q-38 -38 -49 -100zM190 1104l25 201h811l-25 -201h-811z" />
    <glyph glyph-name="Edotaccent" unicode="&#x116;" horiz-adv-x="989" 
d="M254 1366h747l-36 -301h-402l-28 -227h389l-37 -299h-389l-29 -238h418l-37 -301h-764zM463 1661q0 78 54 132t132 54t132.5 -54t54.5 -132t-54.5 -132t-132.5 -54t-132 54t-54 132z" />
    <glyph glyph-name="edotaccent" unicode="&#x117;" horiz-adv-x="1148" 
d="M1075 389h-684q0 -113 47 -156q34 -34 105 -34q50 0 86 24q33 22 45 62h368q-34 -100 -100 -166q-79 -81 -186 -113.5t-211 -32.5q-219 0 -350 121q-125 121 -125 324q0 123 42 219t107 160q149 145 391 145q219 0 346 -127q123 -123 123 -348q0 -28 -4 -78zM414 580h319
q-3 67 -47 108q-40 37 -106 37q-72 0 -117 -45q-38 -38 -49 -100zM432 1251q0 78 54 132.5t132 54.5t132.5 -54.5t54.5 -132.5t-54.5 -132t-132.5 -54t-132 54t-54 132z" />
    <glyph glyph-name="Eogonek" unicode="&#x118;" horiz-adv-x="989" 
d="M254 1366h747l-36 -301h-402l-28 -236h389l-37 -299h-389l-29 -229h418l-37 -301h-82q-36 -26 -78 -68q-45 -45 -45 -82q0 -33 21 -51q18 -18 51 -18q49 0 100 37l-65 -176q-67 -37 -140 -37q-82 0 -127 47q-45 48 -45 117q0 75 58 141q46 52 110 90h-522z" />
    <glyph glyph-name="eogonek" unicode="&#x119;" horiz-adv-x="1148" 
d="M1075 389h-684q2 -42 8.5 -71.5t23.5 -55t48.5 -38.5t79.5 -13q63 0 94 29q28 25 35 65h369q-19 -102 -101 -182q-57 -54 -145 -107q-9 -6 -34 -22.5t-35 -23.5t-26 -19.5t-28 -24.5q-41 -36 -41 -82q0 -30 18 -45q21 -18 62 -18q33 0 98 37l-65 -180q-58 -27 -129 -27
q-90 0 -138 45q-45 42 -45 117q0 62 41 114q39 51 92 86q-118 0 -212 26t-166 95q-125 120 -125 322q0 232 143 375q151 151 395 151q221 0 346 -125t125 -346q0 -53 -4 -82zM414 580h319q-3 59 -39 100t-112 41t-119 -43q-40 -43 -49 -98z" />
    <glyph glyph-name="Ecaron" unicode="&#x11a;" horiz-adv-x="989" 
d="M254 1366h747l-36 -301h-402l-28 -227h389l-37 -299h-389l-29 -238h418l-37 -301h-764zM489 1847l181 -135l217 135l137 -147l-377 -244l-321 250z" />
    <glyph glyph-name="ecaron" unicode="&#x11b;" horiz-adv-x="1148" 
d="M1075 389h-684q0 -113 47 -156q34 -34 105 -34q50 0 86 24q33 22 45 62h368q-34 -100 -100 -166q-79 -81 -186 -113.5t-211 -32.5q-219 0 -350 121q-125 121 -125 324q0 123 42 219t107 160q149 145 391 145q219 0 346 -127q123 -123 123 -348q0 -28 -4 -78zM414 580h319
q-3 67 -47 108q-40 37 -106 37q-72 0 -117 -45q-38 -38 -49 -100zM487 1432l156 -150l211 154l135 -148l-375 -266l-295 272z" />
    <glyph glyph-name="Gcircumflex" unicode="&#x11c;" horiz-adv-x="1540" 
d="M797 485l32 275h658q-6 -220 -68 -379q-72 -190 -243 -299t-394 -109q-198 0 -353 84.5t-241 238t-86 349.5q0 213 96.5 384t267.5 267.5t384 96.5q259 0 436 -148q66 -57 100.5 -106t75.5 -146l-301 -116q-51 113 -129 168t-190 55q-163 0 -273 -128.5t-110 -320.5
q0 -166 100.5 -272.5t257.5 -106.5q112 0 193 58t104 155h-317zM911 1591l-219 -135l-143 141l393 250l307 -243l-168 -148z" />
    <glyph glyph-name="gcircumflex" unicode="&#x11d;" horiz-adv-x="1245" 
d="M842 915h336l-101 -802q-22 -185 -56 -287t-97 -166q-132 -129 -408 -129q-240 0 -360 111q-57 51 -86 108.5t-47 147.5h321q9 -47 54.5 -76t117.5 -29q96 0 146 50.5t63 164.5l10 86q-74 -69 -131.5 -95t-136.5 -26q-186 0 -295 123t-109 332q0 226 129.5 370t331.5 144
q99 0 170.5 -36.5t141.5 -123.5zM592 240q89 0 142.5 66.5t53.5 176.5q0 89 -47.5 141t-130.5 52q-89 0 -145.5 -65.5t-56.5 -168.5q0 -92 50.5 -147t133.5 -55zM750 1176l-224 -154l-127 152l394 262l264 -273l-158 -141z" />
    <glyph glyph-name="Gbreve" unicode="&#x11e;" horiz-adv-x="1540" 
d="M797 485l32 275h658q-6 -220 -68 -379q-72 -190 -243 -299t-394 -109q-198 0 -353 84.5t-241 238t-86 349.5q0 213 96.5 384t267.5 267.5t384 96.5q259 0 436 -148q66 -57 100.5 -106t75.5 -146l-301 -116q-51 113 -129 168t-190 55q-163 0 -273 -128.5t-110 -320.5
q0 -166 100.5 -272.5t257.5 -106.5q112 0 193 58t104 155h-317zM535 1763q0 4 1 17.5t1 23.5h202q9 -127 133 -127q64 0 104 31t62 96h209q-26 -152 -124 -233.5t-253 -81.5q-148 0 -241.5 76.5t-93.5 197.5z" />
    <glyph glyph-name="gbreve" unicode="&#x11f;" horiz-adv-x="1245" 
d="M842 915h336l-101 -802q-22 -185 -56 -287t-97 -166q-132 -129 -408 -129q-240 0 -360 111q-57 51 -86 108.5t-47 147.5h321q9 -47 54.5 -76t117.5 -29q96 0 146 50.5t63 164.5l10 86q-74 -69 -131.5 -95t-136.5 -26q-186 0 -295 123t-109 332q0 226 129.5 370t331.5 144
q99 0 170.5 -36.5t141.5 -123.5zM592 240q89 0 142.5 66.5t53.5 176.5q0 89 -47.5 141t-130.5 52q-89 0 -145.5 -65.5t-56.5 -168.5q0 -92 50.5 -147t133.5 -55zM360 1354q0 4 1 17.5t1 23.5h203q9 -127 133 -127q64 0 104 31t62 96h209q-26 -152 -124 -234t-253 -82
q-148 0 -242 77t-94 198z" />
    <glyph glyph-name="Gdotaccent" unicode="&#x120;" horiz-adv-x="1540" 
d="M797 485l32 275h658q-6 -220 -68 -379q-72 -190 -243 -299t-394 -109q-198 0 -353 84.5t-241 238t-86 349.5q0 213 96.5 384t267.5 267.5t384 96.5q259 0 436 -148q66 -57 100.5 -106t75.5 -146l-301 -116q-51 113 -129 168t-190 55q-163 0 -273 -128.5t-110 -320.5
q0 -166 100.5 -272.5t257.5 -106.5q112 0 193 58t104 155h-317zM684 1714q0 78 54 132.5t132 54.5t132.5 -54.5t54.5 -132.5t-54.5 -132t-132.5 -54t-132 54t-54 132z" />
    <glyph glyph-name="gdotaccent" unicode="&#x121;" horiz-adv-x="1245" 
d="M842 915h336l-101 -802q-22 -185 -56 -287t-97 -166q-132 -129 -408 -129q-240 0 -360 111q-57 51 -86 108.5t-47 147.5h321q9 -47 54.5 -76t117.5 -29q96 0 146 50.5t63 164.5l10 86q-74 -69 -131.5 -95t-136.5 -26q-186 0 -295 123t-109 332q0 226 129.5 370t331.5 144
q99 0 170.5 -36.5t141.5 -123.5zM592 240q89 0 142.5 66.5t53.5 176.5q0 89 -47.5 141t-130.5 52q-89 0 -145.5 -65.5t-56.5 -168.5q0 -92 50.5 -147t133.5 -55zM436 1251q0 78 54.5 132.5t132.5 54.5t132 -54.5t54 -132.5t-54 -132t-132 -54t-132.5 54t-54.5 132z" />
    <glyph glyph-name="Gcommaaccent" unicode="&#x122;" horiz-adv-x="1540" 
d="M797 485l32 275h658q-6 -220 -68 -379q-72 -190 -243 -299t-394 -109q-198 0 -353 84.5t-241 238t-86 349.5q0 213 96.5 384t267.5 267.5t384 96.5q259 0 436 -148q66 -57 100.5 -106t75.5 -146l-301 -116q-51 113 -129 168t-190 55q-163 0 -273 -128.5t-110 -320.5
q0 -166 100.5 -272.5t257.5 -106.5q112 0 193 58t104 155h-317zM635 -102l307 -33l-246 -397l-204 24z" />
    <glyph glyph-name="gcommaaccent" unicode="&#x123;" horiz-adv-x="1245" 
d="M842 915h336l-101 -802q-22 -185 -56 -287t-97 -166q-132 -129 -408 -129q-240 0 -360 111q-57 51 -86 108.5t-47 147.5h321q9 -47 54.5 -76t117.5 -29q96 0 146 50.5t63 164.5l10 86q-74 -69 -131.5 -95t-136.5 -26q-186 0 -295 123t-109 332q0 226 129.5 370t331.5 144
q99 0 170.5 -36.5t141.5 -123.5zM592 240q89 0 142.5 66.5t53.5 176.5q0 89 -47.5 141t-130.5 52q-89 0 -145.5 -65.5t-56.5 -168.5q0 -92 50.5 -147t133.5 -55zM748 1042l-308 33l246 377l205 -25z" />
    <glyph glyph-name="Hcircumflex" unicode="&#x124;" horiz-adv-x="1482" 
d="M1104 1366h346l-168 -1366h-346l68 559h-502l-70 -559h-346l168 1366h346l-61 -506h501zM901 1591l-219 -135l-143 141l393 250l307 -243l-168 -148z" />
    <glyph glyph-name="hcircumflex" unicode="&#x125;" horiz-adv-x="1214" 
d="M250 1493h338l-82 -659q86 60 152.5 84t148.5 24q144 0 220.5 -83.5t76.5 -240.5q0 -57 -12 -151l-58 -467h-338l45 367q15 115 15 149q0 146 -123 146q-82 0 -121.5 -51t-54.5 -177l-54 -434h-337zM442 1688l-223 -154l-127 152l393 262l265 -273l-158 -141z" />
    <glyph glyph-name="Hbar" unicode="&#x126;" horiz-adv-x="1482" 
d="M600 1366l-14 -109h504l14 109h346l-14 -109h114l-28 -239h-115l-125 -1018h-346l68 559h-504l-68 -559h-346l125 1018h-115l29 239h115l14 109h346zM1061 1018h-504l-20 -156h503z" />
    <glyph glyph-name="hbar" unicode="&#x127;" horiz-adv-x="1220" 
d="M72 0l135 1092h-170l29 225h170l20 176h338l-21 -176h340l-28 -225h-340l-33 -258q86 60 152.5 84t148.5 24q144 0 220.5 -83.5t76.5 -240.5q0 -57 -12 -151l-58 -467h-338l46 367q14 107 14 149q0 146 -123 146q-82 0 -121.5 -51t-54.5 -177l-53 -434h-338z" />
    <glyph glyph-name="Imacron" unicode="&#x12a;" horiz-adv-x="632" 
d="M254 1366h346l-168 -1366h-346zM29 1534l24 201h770l-24 -201h-770z" />
    <glyph glyph-name="imacron" unicode="&#x12b;" horiz-adv-x="583" 
d="M178 915h338l-113 -915h-337zM-61 1104l24 201h811l-24 -201h-811z" />
    <glyph glyph-name="Iogonek" unicode="&#x12e;" horiz-adv-x="632" 
d="M254 1366h346l-168 -1366q-36 -26 -78 -68q-45 -45 -45 -82q0 -33 21 -51q18 -18 51 -18q49 0 100 37l-65 -176q-67 -37 -140 -37q-81 0 -126 47q-46 49 -46 117q0 75 58 141q46 52 110 90h-186z" />
    <glyph glyph-name="iogonek" unicode="&#x12f;" horiz-adv-x="583" 
d="M397 1460q79 0 137 -57.5t58 -138.5q0 -85 -58.5 -145t-140.5 -60q-85 0 -144 59t-59 144q0 82 60 140t147 58zM178 915h338l-113 -915q-25 -18 -77 -70q-1 -2 -6 -7t-7 -7.5t-6.5 -8t-7 -9.5t-5.5 -10t-5 -11.5t-3 -12.5t-1 -14q0 -34 20 -51q18 -18 51 -18q43 0 107 37
l-66 -176q-59 -31 -129 -31q-88 0 -135 47t-47 117q0 77 66 145q46 46 102 80h-188z" />
    <glyph glyph-name="Idotaccent" unicode="&#x130;" horiz-adv-x="632" 
d="M254 1366h346l-168 -1366h-346zM258 1661q0 78 54 132t132 54t132.5 -54t54.5 -132t-54.5 -132t-132.5 -54t-132 54t-54 132z" />
    <glyph glyph-name="dotlessi" unicode="&#x131;" horiz-adv-x="583" 
d="M178 915h338l-113 -915h-337z" />
    <glyph glyph-name="Jcircumflex" unicode="&#x134;" horiz-adv-x="985" 
d="M606 1366h346l-116 -940q-13 -111 -41.5 -192.5t-98.5 -151.5q-65 -65 -138 -87t-161 -22q-164 0 -270 76q-85 61 -141 168l256 199q11 -55 43 -92q28 -35 86 -35q44 0 75 33q36 39 52 161zM850 1591l-219 -135l-144 141l394 250l307 -243l-168 -148z" />
    <glyph glyph-name="jcircumflex" unicode="&#x135;" horiz-adv-x="565" 
d="M174 915h338l-172 -1384h-336zM408 1176l-224 -154l-127 152l394 262l264 -273l-158 -141z" />
    <glyph glyph-name="Kcommaaccent" unicode="&#x136;" horiz-adv-x="1376" 
d="M254 1366h346l-74 -598l451 598h397l-522 -696l467 -670h-416l-293 436q-42 63 -102 180l-76 -616h-346zM512 -102l307 -33l-246 -397l-204 24z" />
    <glyph glyph-name="kcommaaccent" unicode="&#x137;" horiz-adv-x="1239" 
d="M250 1493h338l-113 -905l293 327h426l-399 -417l428 -498h-412l-135 154q-109 125 -219 276l-54 -430h-337zM451 -102l307 -33l-246 -377l-205 25z" />
    <glyph glyph-name="Lacute" unicode="&#x139;" horiz-adv-x="966" 
d="M254 1366h346l-131 -1065h436l-39 -301h-780zM467 1839h338l-270 -350h-232z" />
    <glyph glyph-name="lacute" unicode="&#x13a;" horiz-adv-x="583" 
d="M250 1493h338l-185 -1493h-337zM436 1942h338l-270 -351h-232z" />
    <glyph glyph-name="Lcommaaccent" unicode="&#x13b;" horiz-adv-x="966" 
d="M254 1366h346l-131 -1065h436l-39 -301h-780zM369 -102l307 -33l-246 -397l-205 24z" />
    <glyph glyph-name="lcommaaccent" unicode="&#x13c;" horiz-adv-x="583" 
d="M250 1493h338l-185 -1493h-337zM164 -102l307 -33l-246 -377l-205 25z" />
    <glyph glyph-name="Lcaron" unicode="&#x13d;" horiz-adv-x="966" 
d="M254 1366h346l-131 -1065h436l-39 -301h-780zM860 1393l307 -54l-286 -413l-205 37z" />
    <glyph glyph-name="lcaron" unicode="&#x13e;" horiz-adv-x="962" 
d="M250 1493h338l-185 -1493h-337zM819 1434l307 -54l-286 -413l-205 37z" />
    <glyph glyph-name="Ldot" unicode="&#x13f;" horiz-adv-x="966" 
d="M254 1366h346l-131 -1065h436l-39 -301h-780zM645 709q0 78 54 132t132 54t132.5 -54t54.5 -132t-54.5 -132.5t-132.5 -54.5t-132 54.5t-54 132.5z" />
    <glyph glyph-name="ldot" unicode="&#x140;" horiz-adv-x="905" 
d="M250 1493h338l-185 -1493h-337zM594 750q0 78 54 132t132 54t132.5 -54t54.5 -132t-54.5 -132.5t-132.5 -54.5t-132 54.5t-54 132.5z" />
    <glyph glyph-name="Lslash" unicode="&#x141;" horiz-adv-x="1056" 
d="M283 782l71 584h346l-55 -455l225 133l-34 -282l-226 -133l-41 -328h426l-37 -301h-772l62 500l-191 -113l35 283z" />
    <glyph glyph-name="lslash" unicode="&#x142;" horiz-adv-x="618" 
d="M199 920l71 573h328l-55 -436l178 110l-31 -241l-176 -111l-100 -815h-328l84 678l-178 -111l28 242z" />
    <glyph glyph-name="Nacute" unicode="&#x143;" horiz-adv-x="1634" 
d="M1255 1366h347l-168 -1366h-379l-363 612q-85 138 -168 338v-61q0 -140 -14 -258l-78 -631h-346l168 1366h373l389 -659l59 -111l53 -104l27 -52q3 130 16 234zM969 1839h338l-271 -350h-231z" />
    <glyph glyph-name="nacute" unicode="&#x144;" horiz-adv-x="1214" 
d="M178 915h338l-29 -118q93 83 165 114t167 31q140 0 214.5 -71.5t74.5 -206.5q0 -71 -10 -150l-64 -514h-338l52 403q8 71 8 113q0 70 -32 108t-91 38q-81 0 -121 -55.5t-57 -192.5l-52 -414h-337zM743 1430h338l-270 -351h-231z" />
    <glyph glyph-name="Ncommaaccent" unicode="&#x145;" horiz-adv-x="1634" 
d="M1255 1366h347l-168 -1366h-379l-363 612q-85 138 -168 338v-61q0 -140 -14 -258l-78 -631h-346l168 1366h373l389 -659l59 -111l53 -104l27 -52q3 130 16 234zM594 -102l307 -33l-246 -397l-204 24z" />
    <glyph glyph-name="ncommaaccent" unicode="&#x146;" horiz-adv-x="1214" 
d="M178 915h338l-29 -118q93 83 165 114t167 31q140 0 214.5 -71.5t74.5 -206.5q0 -71 -10 -150l-64 -514h-338l52 403q8 71 8 113q0 70 -32 108t-91 38q-81 0 -121 -55.5t-57 -192.5l-52 -414h-337zM430 -102l307 -33l-245 -377l-205 25z" />
    <glyph glyph-name="Ncaron" unicode="&#x147;" horiz-adv-x="1634" 
d="M1255 1366h347l-168 -1366h-379l-363 612q-85 138 -168 338v-61q0 -140 -14 -258l-78 -631h-346l168 1366h373l389 -659l59 -111l53 -104l27 -52q3 130 16 234zM766 1847l180 -135l217 135l137 -147l-376 -244l-322 250z" />
    <glyph glyph-name="ncaron" unicode="&#x148;" horiz-adv-x="1214" 
d="M178 915h338l-29 -118q93 83 165 114t167 31q140 0 214.5 -71.5t74.5 -206.5q0 -71 -10 -150l-64 -514h-338l52 403q8 71 8 113q0 70 -32 108t-91 38q-81 0 -121 -55.5t-57 -192.5l-52 -414h-337zM569 1432l156 -150l211 154l135 -148l-375 -266l-295 272z" />
    <glyph glyph-name="Omacron" unicode="&#x14c;" horiz-adv-x="1648" 
d="M879 1393q311 0 506.5 -175.5t207.5 -465.5v-27q0 -222 -92.5 -393t-261 -265t-387.5 -94q-220 0 -389.5 86.5t-263 243.5t-93.5 361q0 211 98 377.5t274.5 259t400.5 92.5zM1239 688q0 17 -2 25q-9 161 -110.5 256.5t-262.5 95.5q-175 0 -289 -110t-114 -279t105.5 -272
t277.5 -103q175 0 285 107.5t110 279.5zM479 1534l25 201h770l-25 -201h-770z" />
    <glyph glyph-name="omacron" unicode="&#x14d;" horiz-adv-x="1234" 
d="M631 942q242 0 386 -127.5t144 -341.5q0 -221 -150.5 -360.5t-389.5 -139.5q-246 0 -397.5 132.5t-151.5 349.5q0 214 156.5 350.5t402.5 136.5zM602 238q94 0 154.5 70t60.5 177q0 88 -49 139.5t-133 51.5q-94 0 -156.5 -71t-62.5 -175q0 -88 50.5 -140t135.5 -52z
M252 1104l24 201h811l-24 -201h-811z" />
    <glyph glyph-name="Obreve" unicode="&#x14e;" horiz-adv-x="1648" 
d="M879 1393q311 0 506.5 -175.5t207.5 -465.5v-27q0 -222 -92.5 -393t-261 -265t-387.5 -94q-220 0 -389.5 86.5t-263 243.5t-93.5 361q0 211 98 377.5t274.5 259t400.5 92.5zM1239 688q0 17 -2 25q-9 161 -110.5 256.5t-262.5 95.5q-175 0 -289 -110t-114 -279t105.5 -272
t277.5 -103q175 0 285 107.5t110 279.5zM555 1763q0 4 1 17.5t1 23.5h203q9 -127 133 -127q64 0 104 31t62 96h209q-26 -152 -124 -233.5t-253 -81.5q-148 0 -242 76.5t-94 197.5z" />
    <glyph glyph-name="obreve" unicode="&#x14f;" horiz-adv-x="1234" 
d="M631 942q242 0 386 -127.5t144 -341.5q0 -221 -150.5 -360.5t-389.5 -139.5q-246 0 -397.5 132.5t-151.5 349.5q0 214 156.5 350.5t402.5 136.5zM602 238q94 0 154.5 70t60.5 177q0 88 -49 139.5t-133 51.5q-94 0 -156.5 -71t-62.5 -175q0 -88 50.5 -140t135.5 -52z
M330 1354q0 4 1 17.5t1 23.5h203q9 -127 133 -127q64 0 104 31t62 96h208q-26 -152 -123.5 -234t-252.5 -82q-148 0 -242 77t-94 198z" />
    <glyph glyph-name="Ohungarumlaut" unicode="&#x150;" horiz-adv-x="1648" 
d="M879 1393q311 0 506.5 -175.5t207.5 -465.5v-27q0 -222 -92.5 -393t-261 -265t-387.5 -94q-220 0 -389.5 86.5t-263 243.5t-93.5 361q0 211 98 377.5t274.5 259t400.5 92.5zM1239 688q0 17 -2 25q-9 161 -110.5 256.5t-262.5 95.5q-175 0 -289 -110t-114 -279t105.5 -272
t277.5 -103q175 0 285 107.5t110 279.5zM696 1839h310l-240 -350h-205zM1106 1839h309l-239 -350h-203z" />
    <glyph glyph-name="ohungarumlaut" unicode="&#x151;" horiz-adv-x="1234" 
d="M631 942q242 0 386 -127.5t144 -341.5q0 -221 -150.5 -360.5t-389.5 -139.5q-246 0 -397.5 132.5t-151.5 349.5q0 214 156.5 350.5t402.5 136.5zM602 238q94 0 154.5 70t60.5 177q0 88 -49 139.5t-133 51.5q-94 0 -156.5 -71t-62.5 -175q0 -88 50.5 -140t135.5 -52z
M467 1430h309l-239 -351h-205zM877 1430h309l-240 -351h-203z" />
    <glyph glyph-name="OE" unicode="&#x152;" horiz-adv-x="2017" 
d="M1305 1366h741l-37 -301h-424l-29 -236h381l-36 -299h-381l-29 -229h424l-37 -301h-729l18 154q-97 -94 -199.5 -137.5t-228.5 -43.5q-182 0 -327 87.5t-226.5 244t-81.5 352.5q0 208 91.5 376.5t253 264t360.5 95.5q185 0 330 -95q47 -31 74 -58.5t67 -84.5zM838 301
q169 0 272.5 104t103.5 273q0 172 -101 279.5t-263 107.5q-167 0 -279 -116.5t-112 -291.5q0 -160 104.5 -258t274.5 -98z" />
    <glyph glyph-name="oe" unicode="&#x153;" horiz-adv-x="1859" 
d="M1786 393h-666q9 -97 53.5 -140.5t135.5 -43.5q100 0 145 70h311q-44 -95 -69.5 -133t-71.5 -78q-106 -95 -307 -95q-147 0 -266 52q-45 20 -71 39t-65 59q-91 -82 -177.5 -116t-202.5 -34q-209 0 -336 128.5t-127 342.5q0 224 140.5 361t369.5 137q114 0 197 -31.5
t163 -105.5q88 71 178 104t197 33q101 0 195 -32.5t153 -88.5q123 -120 123 -358q0 -5 -1 -28.5t-1 -41.5zM598 238q94 0 154.5 70t60.5 177q0 88 -48.5 139.5t-131.5 51.5q-92 0 -154.5 -71t-62.5 -175q0 -88 49.5 -140t132.5 -52zM1333 729q-74 0 -120.5 -37.5
t-59.5 -107.5h348q-15 76 -54.5 110.5t-113.5 34.5z" />
    <glyph glyph-name="Racute" unicode="&#x154;" horiz-adv-x="1269" 
d="M1071 639q-37 -40 -73.5 -62t-106.5 -47l319 -530h-401l-311 543l-66 -543h-346l168 1366h444q139 0 229.5 -28.5t149.5 -90.5q50 -53 77.5 -133t27.5 -172q0 -186 -111 -303zM631 1092h-66l-43 -351h62q124 0 182.5 47t58.5 144q0 89 -42.5 124.5t-151.5 35.5zM743 1839
h338l-270 -350h-231z" />
    <glyph glyph-name="racute" unicode="&#x155;" horiz-adv-x="833" 
d="M178 915h338l-27 -124q78 71 143.5 97.5t162.5 26.5q7 0 65 -4l-37 -311q-75 41 -153 41q-104 0 -152 -56t-67 -196l-48 -389h-337zM569 1430h338l-270 -351h-231z" />
    <glyph glyph-name="Rcommaaccent" unicode="&#x156;" horiz-adv-x="1269" 
d="M1071 639q-37 -40 -73.5 -62t-106.5 -47l319 -530h-401l-311 543l-66 -543h-346l168 1366h444q139 0 229.5 -28.5t149.5 -90.5q50 -53 77.5 -133t27.5 -172q0 -186 -111 -303zM631 1092h-66l-43 -351h62q124 0 182.5 47t58.5 144q0 89 -42.5 124.5t-151.5 35.5zM471 -102
l307 -33l-246 -397l-204 24z" />
    <glyph glyph-name="rcommaaccent" unicode="&#x157;" horiz-adv-x="833" 
d="M178 915h338l-27 -124q78 71 143.5 97.5t162.5 26.5q7 0 65 -4l-37 -311q-75 41 -153 41q-104 0 -152 -56t-67 -196l-48 -389h-337zM287 -102l307 -33l-246 -377l-205 25z" />
    <glyph glyph-name="Rcaron" unicode="&#x158;" horiz-adv-x="1269" 
d="M1071 639q-37 -40 -73.5 -62t-106.5 -47l319 -530h-401l-311 543l-66 -543h-346l168 1366h444q139 0 229.5 -28.5t149.5 -90.5q50 -53 77.5 -133t27.5 -172q0 -186 -111 -303zM631 1092h-66l-43 -351h62q124 0 182.5 47t58.5 144q0 89 -42.5 124.5t-151.5 35.5zM551 1847
l180 -135l217 135l137 -147l-376 -244l-322 250z" />
    <glyph glyph-name="rcaron" unicode="&#x159;" horiz-adv-x="833" 
d="M178 915h338l-27 -124q78 71 143.5 97.5t162.5 26.5q7 0 65 -4l-37 -311q-75 41 -153 41q-104 0 -152 -56t-67 -196l-48 -389h-337zM406 1432l155 -150l211 154l135 -148l-375 -266l-294 272z" />
    <glyph glyph-name="Sacute" unicode="&#x15a;" horiz-adv-x="1083" 
d="M686 1393q204 0 397 -125l-151 -262q-131 100 -240 100q-71 0 -112 -32t-41 -87q0 -49 34.5 -81.5t139.5 -82.5q169 -80 236 -164t67 -219q0 -205 -146.5 -336t-375.5 -131q-123 0 -224 32.5t-237 117.5l155 262q93 -63 156 -88t133 -25q82 0 132 38.5t50 101.5
q0 45 -32 77t-127 78q-183 92 -249.5 175t-66.5 221q0 186 142.5 308t359.5 122zM733 1839h338l-270 -350h-232z" />
    <glyph glyph-name="sacute" unicode="&#x15b;" horiz-adv-x="962" 
d="M559 946q162 0 340 -94l-80 -231q-71 44 -119.5 60.5t-103.5 16.5q-117 0 -117 -55q0 -17 12 -27.5t41 -17.5l111 -29q126 -34 185 -96t59 -160q0 -156 -115.5 -248t-310.5 -92q-113 0 -208 31.5t-214 108.5l125 221q98 -62 157.5 -84.5t127.5 -22.5q124 0 124 64
q0 34 -51 49l-110 25q-129 31 -187.5 94.5t-58.5 171.5q0 141 107.5 228t285.5 87zM621 1430h337l-270 -351h-231z" />
    <glyph glyph-name="Scircumflex" unicode="&#x15c;" horiz-adv-x="1083" 
d="M686 1393q204 0 397 -125l-151 -262q-131 100 -240 100q-71 0 -112 -32t-41 -87q0 -49 34.5 -81.5t139.5 -82.5q169 -80 236 -164t67 -219q0 -205 -146.5 -336t-375.5 -131q-123 0 -224 32.5t-237 117.5l155 262q93 -63 156 -88t133 -25q82 0 132 38.5t50 101.5
q0 45 -32 77t-127 78q-183 92 -249.5 175t-66.5 221q0 186 142.5 308t359.5 122zM748 1591l-220 -135l-143 141l393 250l307 -243l-167 -148z" />
    <glyph glyph-name="scircumflex" unicode="&#x15d;" horiz-adv-x="962" 
d="M559 946q162 0 340 -94l-80 -231q-71 44 -119.5 60.5t-103.5 16.5q-117 0 -117 -55q0 -17 12 -27.5t41 -17.5l111 -29q126 -34 185 -96t59 -160q0 -156 -115.5 -248t-310.5 -92q-113 0 -208 31.5t-214 108.5l125 221q98 -62 157.5 -84.5t127.5 -22.5q124 0 124 64
q0 34 -51 49l-110 25q-129 31 -187.5 94.5t-58.5 171.5q0 141 107.5 228t285.5 87zM616 1176l-223 -154l-127 152l393 262l265 -273l-158 -141z" />
    <glyph glyph-name="Scedilla" unicode="&#x15e;" horiz-adv-x="1083" 
d="M686 1393q204 0 397 -125l-151 -262q-131 100 -240 100q-71 0 -112 -32t-41 -87q0 -49 34.5 -81.5t139.5 -82.5q169 -80 236 -164t67 -219q0 -205 -146.5 -336t-375.5 -131q-123 0 -224 32.5t-237 117.5l155 262q93 -63 156 -88t133 -25q82 0 132 38.5t50 101.5
q0 45 -32 77t-127 78q-183 92 -249.5 175t-66.5 221q0 186 142.5 308t359.5 122zM426 -94l229 -90l-278 -299l-189 82z" />
    <glyph glyph-name="scedilla" unicode="&#x15f;" horiz-adv-x="962" 
d="M559 946q162 0 340 -94l-80 -231q-71 44 -119.5 60.5t-103.5 16.5q-117 0 -117 -55q0 -17 12 -27.5t41 -17.5l111 -29q126 -34 185 -96t59 -160q0 -156 -115.5 -248t-310.5 -92q-113 0 -208 31.5t-214 108.5l125 221q98 -62 157.5 -84.5t127.5 -22.5q124 0 124 64
q0 34 -51 49l-110 25q-129 31 -187.5 94.5t-58.5 171.5q0 141 107.5 228t285.5 87zM389 -94l217 -90l-278 -299l-172 82z" />
    <glyph glyph-name="Scaron" unicode="&#x160;" horiz-adv-x="1083" 
d="M686 1393q204 0 397 -125l-151 -262q-131 100 -240 100q-71 0 -112 -32t-41 -87q0 -49 34.5 -81.5t139.5 -82.5q169 -80 236 -164t67 -219q0 -205 -146.5 -336t-375.5 -131q-123 0 -224 32.5t-237 117.5l155 262q93 -63 156 -88t133 -25q82 0 132 38.5t50 101.5
q0 45 -32 77t-127 78q-183 92 -249.5 175t-66.5 221q0 186 142.5 308t359.5 122zM541 1847l180 -135l217 135l137 -147l-377 -244l-321 250z" />
    <glyph glyph-name="scaron" unicode="&#x161;" horiz-adv-x="962" 
d="M559 946q162 0 340 -94l-80 -231q-71 44 -119.5 60.5t-103.5 16.5q-117 0 -117 -55q0 -17 12 -27.5t41 -17.5l111 -29q126 -34 185 -96t59 -160q0 -156 -115.5 -248t-310.5 -92q-113 0 -208 31.5t-214 108.5l125 221q98 -62 157.5 -84.5t127.5 -22.5q124 0 124 64
q0 34 -51 49l-110 25q-129 31 -187.5 94.5t-58.5 171.5q0 141 107.5 228t285.5 87zM446 1432l156 -150l211 154l135 -148l-375 -266l-294 272z" />
    <glyph glyph-name="Tcedilla" unicode="&#x162;" horiz-adv-x="952" 
d="M1016 1065h-291l-133 -1065h-344l131 1065h-291l37 301h928zM385 -94l229 -90l-278 -299l-189 82z" />
    <glyph glyph-name="tcedilla" unicode="&#x163;" horiz-adv-x="681" 
d="M705 655h-181l-82 -655h-336l80 655h-143l31 260h145l35 302h338l-37 -302h180zM248 -94l217 -90l-279 -299l-172 82z" />
    <glyph glyph-name="Tcaron" unicode="&#x164;" horiz-adv-x="952" 
d="M725 1065h291l37 301h-928l-37 -301h291l-131 -1065h344zM449 1847l180 -135l217 135l137 -147l-377 -244l-321 250z" />
    <glyph glyph-name="tcaron" unicode="&#x165;" horiz-adv-x="1003" 
d="M705 655h-181l-82 -655h-336l80 655h-143l31 260h145l35 302h338l-37 -302h180zM860 1434l307 -54l-286 -413l-205 37z" />
    <glyph glyph-name="Utilde" unicode="&#x168;" horiz-adv-x="1468" 
d="M1090 1366h346l-97 -791q-25 -198 -57.5 -293t-97.5 -157q-158 -152 -467 -152q-266 0 -418 124t-152 343q0 46 17 189l90 737h344l-90 -737q-6 -61 -6 -115q0 -213 225 -213q133 0 195 68q32 36 46.5 80.5t26.5 138.5zM1081 1788l162 -94q-50 -94 -106 -142
q-70 -63 -158 -63q-53 0 -135 31l-74 28q-10 4 -33.5 13.5t-37.5 13.5t-27 4q-37 0 -62 -27.5t-35 -58.5l-159 94q39 86 98 139q72 62 174 62q65 0 139 -29l60 -24q16 -6 39.5 -16.5t37.5 -15.5t25 -5q59 0 92 90z" />
    <glyph glyph-name="utilde" unicode="&#x169;" horiz-adv-x="1222" 
d="M817 915h336l-57 -483q-19 -143 -50 -222t-88 -126q-130 -111 -387 -111q-220 0 -339 94t-119 267q0 57 8 125l57 456h336l-53 -436q-10 -92 -10 -106q0 -58 35.5 -88.5t101.5 -30.5q80 0 119 42t51 142zM958 1374l162 -94q-49 -92 -106 -141q-72 -64 -158 -64
q-53 0 -135 31l-74 29q-10 4 -27 10.5t-26.5 10t-22 6.5t-22.5 3q-37 0 -61.5 -27.5t-34.5 -58.5l-160 95q39 86 98 139q70 61 174 61q68 0 140 -28l59 -25q16 -6 39.5 -16.5t37.5 -15.5t25 -5q59 0 92 90z" />
    <glyph glyph-name="Umacron" unicode="&#x16a;" horiz-adv-x="1468" 
d="M1090 1366h346l-97 -791q-25 -198 -57.5 -293t-97.5 -157q-158 -152 -467 -152q-266 0 -418 124t-152 343q0 46 17 189l90 737h344l-90 -737q-6 -61 -6 -115q0 -213 225 -213q133 0 195 68q32 36 46.5 80.5t26.5 138.5zM449 1534l24 201h770l-24 -201h-770z" />
    <glyph glyph-name="umacron" unicode="&#x16b;" horiz-adv-x="1222" 
d="M817 915h336l-57 -483q-19 -143 -50 -222t-88 -126q-130 -111 -387 -111q-220 0 -339 94t-119 267q0 57 8 125l57 456h336l-53 -436q-10 -92 -10 -106q0 -58 35.5 -88.5t101.5 -30.5q80 0 119 42t51 142zM256 1104l25 201h811l-25 -201h-811z" />
    <glyph glyph-name="Ubreve" unicode="&#x16c;" horiz-adv-x="1468" 
d="M1090 1366h346l-97 -791q-25 -198 -57.5 -293t-97.5 -157q-158 -152 -467 -152q-266 0 -418 124t-152 343q0 46 17 189l90 737h344l-90 -737q-6 -61 -6 -115q0 -213 225 -213q133 0 195 68q32 36 46.5 80.5t26.5 138.5zM524 1763q0 4 1 17.5t1 23.5h203q9 -127 133 -127
q64 0 104 31t62 96h209q-26 -152 -124 -233.5t-253 -81.5q-148 0 -242 76.5t-94 197.5z" />
    <glyph glyph-name="ubreve" unicode="&#x16d;" horiz-adv-x="1222" 
d="M817 915h336l-57 -483q-19 -143 -50 -222t-88 -126q-130 -111 -387 -111q-220 0 -339 94t-119 267q0 57 8 125l57 456h336l-53 -436q-10 -92 -10 -106q0 -58 35.5 -88.5t101.5 -30.5q80 0 119 42t51 142zM350 1354q0 4 1 17.5t1 23.5h203q9 -127 133 -127q64 0 104 31
t62 96h209q-26 -152 -124 -234t-253 -82q-148 0 -242 77t-94 198z" />
    <glyph glyph-name="Uring" unicode="&#x16e;" horiz-adv-x="1468" 
d="M1090 1366h346l-97 -791q-25 -198 -57.5 -293t-97.5 -157q-158 -152 -467 -152q-266 0 -418 124t-152 343q0 46 17 189l90 737h344l-90 -737q-6 -61 -6 -115q0 -213 225 -213q133 0 195 68q32 36 46.5 80.5t26.5 138.5zM874 1489q-131 0 -203.5 53t-72.5 150
q0 92 73.5 146t198.5 54q123 0 195 -54t72 -148q0 -92 -71.5 -146.5t-191.5 -54.5zM868 1765q-47 0 -74.5 -20t-27.5 -55q0 -34 27.5 -55t72.5 -21q49 0 77 20.5t28 55.5t-27.5 55t-75.5 20z" />
    <glyph glyph-name="uring" unicode="&#x16f;" horiz-adv-x="1222" 
d="M817 915h336l-57 -483q-19 -143 -50 -222t-88 -126q-130 -111 -387 -111q-220 0 -339 94t-119 267q0 57 8 125l57 456h336l-53 -436q-10 -92 -10 -106q0 -58 35.5 -88.5t101.5 -30.5q80 0 119 42t51 142zM688 1079q-131 0 -203.5 53t-72.5 150q0 92 73.5 146.5
t198.5 54.5q123 0 194.5 -54.5t71.5 -148.5q0 -92 -71 -146.5t-191 -54.5zM682 1356q-47 0 -74.5 -20.5t-27.5 -55.5q0 -34 27.5 -55t72.5 -21q49 0 76.5 20.5t27.5 55.5t-27.5 55.5t-74.5 20.5z" />
    <glyph glyph-name="Uhungarumlaut" unicode="&#x170;" horiz-adv-x="1468" 
d="M1090 1366h346l-97 -791q-25 -198 -57.5 -293t-97.5 -157q-158 -152 -467 -152q-266 0 -418 124t-152 343q0 46 17 189l90 737h344l-90 -737q-6 -61 -6 -115q0 -213 225 -213q133 0 195 68q32 36 46.5 80.5t26.5 138.5zM606 1839h309l-239 -350h-205zM1016 1839h309
l-240 -350h-202z" />
    <glyph glyph-name="uhungarumlaut" unicode="&#x171;" horiz-adv-x="1222" 
d="M817 915h336l-57 -483q-19 -143 -50 -222t-88 -126q-130 -111 -387 -111q-220 0 -339 94t-119 267q0 57 8 125l57 456h336l-53 -436q-10 -92 -10 -106q0 -58 35.5 -88.5t101.5 -30.5q80 0 119 42t51 142zM457 1430h309l-240 -351h-204zM866 1430h310l-240 -351h-203z" />
    <glyph glyph-name="Uogonek" unicode="&#x172;" horiz-adv-x="1468" 
d="M1090 1366h346l-99 -813q-10 -83 -15.5 -119t-18 -92.5t-32.5 -96t-50 -77.5q-64 -80 -183 -141q-27 -15 -76.5 -39t-76.5 -41q-76 -43 -76 -97q0 -34 20 -51q18 -18 52 -18q49 0 100 37l-66 -176q-67 -37 -139 -37q-82 0 -127 47q-45 48 -45 117q0 63 39 118
q31 45 88 88q-14 -2 -45 -2q-115 0 -233.5 41.5t-190.5 116.5q-115 118 -115 309q0 57 17 189l90 737h344l-88 -717q-10 -92 -10 -125q0 -113 51 -164q57 -59 176 -59q131 0 195 68q35 38 50 92t23 127z" />
    <glyph glyph-name="uogonek" unicode="&#x173;" horiz-adv-x="1222" 
d="M817 915h336l-57 -483q-13 -118 -35.5 -186t-77.5 -127q-36 -39 -75 -63.5t-95 -51.5q-96 -45 -133 -78q-41 -36 -41 -82q0 -30 18 -45q21 -18 62 -18q37 0 98 37l-65 -180q-58 -27 -129 -27q-90 0 -138 45q-45 42 -45 117q0 62 41 114q39 51 92 86q-225 0 -344 99
q-116 97 -116 262q0 71 8 125l57 456h336l-55 -452q-8 -58 -8 -80q0 -61 30 -94q33 -35 111 -35q69 0 108 37q48 45 58 147z" />
    <glyph glyph-name="Ydieresis" unicode="&#x178;" horiz-adv-x="1275" 
d="M1384 1366l-596 -768l-73 -598h-346l75 608l-348 758h383l94 -219q65 -154 74 -184q2 -4 4 -11t5.5 -17.5l5.5 -16.5q22 42 67 108l236 340h419zM940 1817q66 0 115 -49t49 -115q0 -69 -47 -116.5t-115 -47.5q-69 0 -118.5 48.5t-49.5 117.5q0 66 49 114t117 48z
M526 1817q69 0 116.5 -48t47.5 -116q0 -69 -47 -116.5t-115 -47.5q-70 0 -118 47.5t-48 118.5q0 68 47.5 115t116.5 47z" />
    <glyph glyph-name="Zacute" unicode="&#x179;" horiz-adv-x="1292" 
d="M610 301h613l-37 -301h-1182l741 1065h-538l37 301h1097zM784 1839h338l-270 -350h-231z" />
    <glyph glyph-name="zacute" unicode="&#x17a;" horiz-adv-x="1144" 
d="M600 260h442l-43 -260h-1015l565 655h-399l43 260h966zM682 1430h338l-270 -351h-232z" />
    <glyph glyph-name="Zdotaccent" unicode="&#x17b;" horiz-adv-x="1292" 
d="M610 301h613l-37 -301h-1182l741 1065h-538l37 301h1097zM575 1661q0 78 54.5 132t132.5 54t132 -54t54 -132t-54 -132t-132 -54t-132.5 54t-54.5 132z" />
    <glyph glyph-name="zdotaccent" unicode="&#x17c;" horiz-adv-x="1144" 
d="M600 260h442l-43 -260h-1015l565 655h-399l43 260h966zM481 1251q0 78 54.5 132.5t132.5 54.5t132 -54.5t54 -132.5t-54 -132t-132 -54t-132.5 54t-54.5 132z" />
    <glyph glyph-name="Zcaron" unicode="&#x17d;" horiz-adv-x="1292" 
d="M610 301h613l-37 -301h-1182l741 1065h-538l37 301h1097zM623 1847l180 -135l217 135l137 -147l-377 -244l-321 250z" />
    <glyph glyph-name="zcaron" unicode="&#x17e;" horiz-adv-x="1144" 
d="M600 260h442l-43 -260h-1015l565 655h-399l43 260h966zM539 1432l155 -150l211 154l135 -148l-374 -266l-295 272z" />
    <glyph glyph-name="uni018F" unicode="&#x18f;" horiz-adv-x="1603" 
d="M539 905l-359 72q91 196 269 305q176 111 419 111q316 0 496 -172q184 -176 184 -465q0 -180 -64 -335.5t-171 -256.5q-203 -191 -522 -191q-304 0 -488 181q-115 114 -165.5 282t-18.5 346h1071q-6 55 -30.5 110.5t-61.5 90.5q-88 82 -256 82q-109 0 -187 -45
q-72 -40 -116 -115zM1145 528h-686q13 -100 88 -168q87 -79 246 -79q137 0 231 67q87 66 121 180z" />
    <glyph glyph-name="florin" unicode="&#x192;" horiz-adv-x="1228" 
d="M371 231l123 488h-156l47 196h160l59 228q48 175 137 262q114 111 306 111q122 0 219 -52l-74 -284q-60 45 -121 45q-63 0 -100 -37q-32 -32 -60 -139l-34 -134h198l-51 -196h-199l-131 -526q-23 -94 -44 -161.5t-63 -149t-95 -132.5q-140 -135 -404 -135q-100 0 -178 18
l76 299q49 -18 106 -18q98 0 154 45q42 34 70 100t55 172z" />
    <glyph glyph-name="uni01CF" unicode="&#x1cf;" horiz-adv-x="632" 
d="M254 1366h346l-168 -1366h-346zM285 1847l180 -135l217 135l137 -147l-377 -244l-321 250z" />
    <glyph glyph-name="uni01D0" unicode="&#x1d0;" horiz-adv-x="583" 
d="M178 915h338l-113 -915h-337zM238 1432l155 -150l211 154l135 -148l-374 -266l-295 272z" />
    <glyph glyph-name="uni01DD" unicode="&#x1dd;" horiz-adv-x="1183" 
d="M74 526h692q3 39 -10 78.5t-39 63.5q-39 37 -121 37q-60 0 -102 -29q-34 -24 -54 -66l-315 78q59 116 176 182q128 72 309 72q237 0 369 -127q131 -126 131 -340q0 -219 -137 -360q-140 -142 -385 -142q-237 0 -375 136q-75 73 -112 182.5t-27 234.5zM743 336h-335
q3 -65 41 -103t114 -38q90 0 135 45q39 34 45 96z" />
    <glyph glyph-name="Gcaron" unicode="&#x1e6;" horiz-adv-x="1540" 
d="M797 485l32 275h658q-6 -220 -68 -379q-72 -190 -243 -299t-394 -109q-198 0 -353 84.5t-241 238t-86 349.5q0 213 96.5 384t267.5 267.5t384 96.5q259 0 436 -148q66 -57 100.5 -106t75.5 -146l-301 -116q-51 113 -129 168t-190 55q-163 0 -273 -128.5t-110 -320.5
q0 -166 100.5 -272.5t257.5 -106.5q112 0 193 58t104 155h-317zM702 1847l181 -135l217 135l137 -147l-377 -244l-321 250z" />
    <glyph glyph-name="gcaron" unicode="&#x1e7;" horiz-adv-x="1245" 
d="M842 915h336l-101 -802q-22 -185 -56 -287t-97 -166q-132 -129 -408 -129q-240 0 -360 111q-57 51 -86 108.5t-47 147.5h321q9 -47 54.5 -76t117.5 -29q96 0 146 50.5t63 164.5l10 86q-74 -69 -131.5 -95t-136.5 -26q-186 0 -295 123t-109 332q0 226 129.5 370t331.5 144
q99 0 170.5 -36.5t141.5 -123.5zM592 240q89 0 142.5 66.5t53.5 176.5q0 89 -47.5 141t-130.5 52q-89 0 -145.5 -65.5t-56.5 -168.5q0 -92 50.5 -147t133.5 -55zM559 1432l156 -150l211 154l135 -148l-375 -266l-295 272z" />
    <glyph glyph-name="AEacute" unicode="&#x1fc;" horiz-adv-x="1890" 
d="M637 1366h854l76 -301h-434l63 -231h416l76 -302h-412l61 -231h422l74 -301h-764l-57 246h-561l-115 -246h-367zM737 862l-159 -344h372l-90 365q-26 108 -37 190q-62 -159 -86 -211zM1063 1839h338l-271 -350h-231z" />
    <glyph glyph-name="aeacute" unicode="&#x1fd;" horiz-adv-x="1767" 
d="M1694 403h-684v-10q0 -86 49 -135q47 -47 125 -47q114 0 155 82h326q-32 -144 -158 -232q-129 -88 -321 -88q-135 0 -221 33q-81 33 -131 92q-77 -65 -175 -94q-105 -31 -219 -31q-193 0 -297 95q-86 80 -86 196q0 123 76 199q102 102 301 102q153 0 268 -86q7 35 7 62
q0 95 -47 139q-45 43 -146 43q-124 0 -289 -68l17 240q193 47 329 47q100 0 191 -27q88 -29 145 -92q52 52 131 84q87 35 205 35q196 0 305 -100q144 -130 144 -408v-31zM504 360q-62 0 -103 -24q-41 -25 -41 -66t37 -65q44 -31 117 -31q63 0 104 29q37 26 37 65
q0 43 -47 70q-41 22 -104 22zM1040 594h346q-5 68 -57 104q-42 31 -110 31q-78 0 -125 -39q-42 -33 -54 -96zM1001 1430h338l-270 -351h-231z" />
    <glyph glyph-name="Scommaaccent" unicode="&#x218;" horiz-adv-x="1083" 
d="M686 1393q204 0 397 -125l-151 -262q-131 100 -240 100q-71 0 -112 -32t-41 -87q0 -49 34.5 -81.5t139.5 -82.5q169 -80 236 -164t67 -219q0 -205 -146.5 -336t-375.5 -131q-123 0 -224 32.5t-237 117.5l155 262q93 -63 156 -88t133 -25q82 0 132 38.5t50 101.5
q0 45 -32 77t-127 78q-183 92 -249.5 175t-66.5 221q0 186 142.5 308t359.5 122zM369 -102l307 -33l-246 -397l-205 24z" />
    <glyph glyph-name="scommaaccent" unicode="&#x219;" horiz-adv-x="962" 
d="M559 946q162 0 340 -94l-80 -231q-71 44 -119.5 60.5t-103.5 16.5q-117 0 -117 -55q0 -17 12 -27.5t41 -17.5l111 -29q126 -34 185 -96t59 -160q0 -156 -115.5 -248t-310.5 -92q-113 0 -208 31.5t-214 108.5l125 221q98 -62 157.5 -84.5t127.5 -22.5q124 0 124 64
q0 34 -51 49l-110 25q-129 31 -187.5 94.5t-58.5 171.5q0 141 107.5 228t285.5 87zM328 -102l307 -33l-246 -377l-205 25z" />
    <glyph glyph-name="Tcommaaccent" unicode="&#x21a;" horiz-adv-x="952" 
d="M1016 1065h-291l-133 -1065h-344l131 1065h-291l37 301h928zM287 -102l307 -33l-246 -397l-205 24z" />
    <glyph glyph-name="tcommaaccent" unicode="&#x21b;" horiz-adv-x="681" 
d="M705 655h-181l-82 -655h-336l80 655h-143l31 260h145l35 302h338l-37 -302h180zM143 -102l308 -33l-246 -377l-205 25z" />
    <glyph glyph-name="uni0228" unicode="&#x228;" horiz-adv-x="989" 
d="M254 1366h747l-36 -301h-402l-28 -227h389l-37 -299h-389l-29 -238h418l-37 -301h-764zM449 -94l229 -90l-279 -299l-188 82z" />
    <glyph glyph-name="uni0229" unicode="&#x229;" horiz-adv-x="1148" 
d="M1075 389h-684q0 -113 47 -156q34 -34 105 -34q50 0 86 24q33 22 45 62h368q-34 -100 -100 -166q-79 -81 -186 -113.5t-211 -32.5q-219 0 -350 121q-125 121 -125 324q0 123 42 219t107 160q149 145 391 145q219 0 346 -127q123 -123 123 -348q0 -28 -4 -78zM414 580h319
q-3 67 -47 108q-40 37 -106 37q-72 0 -117 -45q-38 -38 -49 -100zM530 -94l218 -90l-279 -299l-172 82z" />
    <glyph glyph-name="uni0237" unicode="&#x237;" horiz-adv-x="565" 
d="M174 915h338l-172 -1384h-336z" />
    <glyph glyph-name="uni0259" unicode="&#x259;" horiz-adv-x="1183" 
d="M74 526h692q3 39 -10 78.5t-39 63.5q-39 37 -121 37q-60 0 -102 -29q-34 -24 -54 -66l-315 78q59 116 176 182q128 72 309 72q237 0 369 -127q131 -126 131 -340q0 -219 -137 -360q-140 -142 -385 -142q-237 0 -375 136q-75 73 -112 182.5t-27 234.5zM743 336h-335
q3 -65 41 -103t114 -38q90 0 135 45q39 34 45 96z" />
    <glyph glyph-name="afii57929" unicode="&#x2bc;" 
d="M451 1434l307 -54l-287 -413l-205 37z" />
    <glyph glyph-name="circumflex" unicode="&#x2c6;" 
d="M627 1176l-224 -154l-127 152l394 262l264 -273l-158 -141z" />
    <glyph glyph-name="caron" unicode="&#x2c7;" 
d="M457 1432l155 -150l211 154l135 -148l-374 -266l-295 272z" />
    <glyph glyph-name="uni02C9" unicode="&#x2c9;" 
d="M170 1104l25 201h811l-25 -201h-811z" />
    <glyph glyph-name="breve" unicode="&#x2d8;" 
d="M268 1354q0 4 1 17.5t1 23.5h203q9 -127 133 -127q64 0 104 31t62 96h209q-26 -152 -124 -234t-253 -82q-148 0 -242 77t-94 198z" />
    <glyph glyph-name="dotaccent" unicode="&#x2d9;" 
d="M422 1251q0 78 54 132.5t132 54.5t132.5 -54.5t54.5 -132.5t-54.5 -132t-132.5 -54t-132 54t-54 132z" />
    <glyph glyph-name="ring" unicode="&#x2da;" 
d="M618 1079q-131 0 -203.5 53t-72.5 150q0 92 73.5 146.5t198.5 54.5q123 0 195 -54.5t72 -148.5q0 -92 -71.5 -146.5t-191.5 -54.5zM612 1356q-47 0 -74.5 -20.5t-27.5 -55.5q0 -34 27.5 -55t72.5 -21q49 0 77 20.5t28 55.5t-28 55.5t-75 20.5z" />
    <glyph glyph-name="ogonek" unicode="&#x2db;" 
d="M659 -182l-65 -176q-62 -37 -145 -37q-72 0 -119 47t-47 115q0 86 73 159q42 42 95 74h149q-28 -20 -78 -70q-1 -2 -6 -7t-7 -7.5t-6.5 -8t-7 -9.5t-5.5 -10t-5 -11.5t-3 -12.5t-1 -14q0 -33 21 -51q18 -18 51 -18q42 0 106 37z" />
    <glyph glyph-name="tilde" unicode="&#x2dc;" 
d="M860 1374l162 -94q-48 -91 -107 -141q-72 -64 -157 -64q-53 0 -135 31l-74 29q-10 4 -27 10.5t-26.5 10t-22 6.5t-22.5 3q-37 0 -62 -27.5t-35 -58.5l-159 95q39 86 98 139q70 61 174 61q67 0 139 -28l60 -25q16 -6 39.5 -16.5t37.5 -15.5t25 -5q59 0 92 90z" />
    <glyph glyph-name="hungarumlaut" unicode="&#x2dd;" 
d="M385 1430h309l-239 -351h-205zM795 1430h309l-240 -351h-202z" />
    <glyph glyph-name="acutecomb" unicode="&#x301;" horiz-adv-x="4" 
d="M-559 1430h338l-271 -351h-231z" />
    <glyph glyph-name="uni0394" unicode="&#x394;" horiz-adv-x="1366" 
d="M1274 0h-1299l502 1366h289zM623 1040l-267 -798h533z" />
    <glyph glyph-name="uni0394" unicode="&#x2206;" horiz-adv-x="1366" 
d="M1274 0h-1299l502 1366h289zM623 1040l-267 -798h533z" />
    <glyph glyph-name="uni03A9" unicode="&#x3a9;" horiz-adv-x="1366" 
d="M602 0h-555v240h279q-80 52 -124 93t-79 99q-76 133 -76 318q0 139 47.5 259.5t130 206t198.5 134.5t249 49q178 0 320.5 -83.5t223 -232t80.5 -333.5q0 -251 -139 -402q-44 -49 -139 -108h278v-240h-553v213q76 43 121.5 85.5t79.5 102.5q74 129 74 320q0 192 -97.5 315
t-248.5 123t-248.5 -123.5t-97.5 -314.5q0 -266 141 -410q33 -33 59 -52.5t76 -45.5v-213z" />
    <glyph glyph-name="uni03A9" unicode="&#x2126;" horiz-adv-x="1366" 
d="M602 0h-555v240h279q-80 52 -124 93t-79 99q-76 133 -76 318q0 139 47.5 259.5t130 206t198.5 134.5t249 49q178 0 320.5 -83.5t223 -232t80.5 -333.5q0 -251 -139 -402q-44 -49 -139 -108h278v-240h-553v213q76 43 121.5 85.5t79.5 102.5q74 129 74 320q0 192 -97.5 315
t-248.5 123t-248.5 -123.5t-97.5 -314.5q0 -266 141 -410q33 -33 59 -52.5t76 -45.5v-213z" />
    <glyph glyph-name="pi" unicode="&#x3c0;" horiz-adv-x="1398" 
d="M610 0h-327v657h-156v258h1243v-258h-156v-657h-327v657h-277v-657z" />
    <glyph glyph-name="afii10023" unicode="&#x401;" horiz-adv-x="997" 
d="M254 1366h747l-36 -301h-402l-28 -227h389l-37 -299h-389l-29 -238h418l-37 -301h-764zM698 1638q0 72 49 121t121 49t121 -49t49 -121t-49 -121t-121 -49t-121 49t-49 121zM264 1638q0 72 49 121t121 49t121 -49t49 -121t-49 -121t-121 -49t-121 49t-49 121z" />
    <glyph glyph-name="afii10051" unicode="&#x402;" horiz-adv-x="1507" 
d="M279 0l131 1065h-308l37 301h1090l-37 -301h-436l-31 -260q118 47 250 47q227 0 344 -102q53 -46 90 -129t37 -197q0 -111 -41.5 -197.5t-104.5 -138.5q-122 -102 -362 -102q-93 0 -174 16l33 268q65 -14 114 -14q88 0 127 37q43 43 43 117q0 63 -41 104q-44 39 -127 39
q-120 0 -225 -47l-63 -506h-346z" />
    <glyph glyph-name="afii10052" unicode="&#x403;" horiz-adv-x="995" 
d="M254 1366h803l-37 -301h-457l-131 -1065h-346zM702 1839h338l-270 -350h-231z" />
    <glyph glyph-name="afii10053" unicode="&#x404;" horiz-adv-x="1323" 
d="M1161 424l-45 -356q-158 -95 -360 -95q-162 0 -277 50.5t-186 119.5q-191 183 -191 473q0 163 61 325t177 267q95 87 231 136t291 49q224 0 406 -109l-45 -356q-144 137 -359 137q-130 0 -225 -61q-95 -62 -129 -170h508l-33 -291h-512q24 -113 115 -178q87 -64 223 -64
q213 0 350 123z" />
    <glyph glyph-name="afii10054" unicode="&#x405;" horiz-adv-x="1083" 
d="M686 1393q204 0 397 -125l-151 -262q-131 100 -240 100q-71 0 -112 -32t-41 -87q0 -49 34.5 -81.5t139.5 -82.5q169 -80 236 -164t67 -219q0 -205 -146.5 -336t-375.5 -131q-123 0 -224 32.5t-237 117.5l155 262q93 -63 156 -88t133 -25q82 0 132 38.5t50 101.5
q0 45 -32 77t-127 78q-183 92 -249.5 175t-66.5 221q0 186 142.5 308t359.5 122z" />
    <glyph glyph-name="afii10055" unicode="&#x406;" horiz-adv-x="632" 
d="M254 1366h346l-168 -1366h-346z" />
    <glyph glyph-name="afii10056" unicode="&#x407;" horiz-adv-x="716" 
d="M291 1366h354l-168 -1366h-354zM700 1837q57 0 93 -33q51 -46 51 -118q0 -95 -70 -148q-42 -33 -96 -33q-56 0 -92 33q-49 42 -49 115q0 100 67 151q42 33 96 33zM336 1837q56 0 92 -33q51 -46 51 -118q0 -96 -69 -148q-42 -33 -97 -33q-56 0 -92 33q-49 42 -49 115
q0 99 68 151q42 33 96 33z" />
    <glyph glyph-name="afii10057" unicode="&#x408;" horiz-adv-x="985" 
d="M606 1366h346l-116 -940q-13 -111 -41.5 -192.5t-98.5 -151.5q-65 -65 -138 -87t-161 -22q-164 0 -270 76q-85 61 -141 168l256 199q11 -55 43 -92q28 -35 86 -35q44 0 75 33q36 39 52 161z" />
    <glyph glyph-name="afii10058" unicode="&#x409;" horiz-adv-x="2060" 
d="M909 0l131 1065h-344l-61 -494q-38 -310 -182 -454q-81 -82 -169.5 -106.5t-199.5 -24.5q-78 0 -135 14l41 328q45 -15 80 -15q71 0 123 41q79 64 104 258l92 754h1034l-65 -537h192q241 0 351 -110q98 -94 98 -254q0 -93 -32 -179.5t-93 -146.5q-141 -139 -477 -139
h-150h-338zM1290 272h117q124 0 170 31q57 35 57 135q0 63 -37 92q-34 27 -149 27h-123z" />
    <glyph glyph-name="afii10059" unicode="&#x40a;" horiz-adv-x="2070" 
d="M915 0l68 555h-483l-70 -555h-344l168 1366h346l-63 -510h483l63 510h347l-62 -510h193q239 0 350 -111q98 -96 98 -258q0 -102 -33 -193.5t-90 -148.5q-143 -145 -483 -145h-488zM1296 272h117q116 0 166 33q66 44 66 150q0 75 -52 106q-38 23 -135 23h-123z" />
    <glyph glyph-name="afii10060" unicode="&#x40b;" horiz-adv-x="1570" 
d="M1427 0h-346l43 338q3 36 4.5 67.5t-11.5 61.5t-42 49q-52 35 -160 35q-87 0 -221 -37l-63 -514h-346l131 1065h-314l37 301h1100l-37 -301h-440l-31 -258q143 45 313 45q204 0 314 -72q36 -23 61.5 -50t39 -58t21.5 -59t8.5 -63.5t-1.5 -60.5t-6 -61z" />
    <glyph glyph-name="afii10061" unicode="&#x40c;" horiz-adv-x="1376" 
d="M254 1366h346l-74 -598l451 598h397l-522 -696l467 -670h-416l-293 436q-42 63 -102 180l-76 -616h-346zM827 1839h338l-270 -350h-231z" />
    <glyph glyph-name="afii10062" unicode="&#x40e;" horiz-adv-x="1314" 
d="M92 1366h373l258 -612l301 612h399l-782 -1366h-375l242 410zM963 1839l221 -98q-46 -124 -158 -191q-98 -59 -262 -59q-176 0 -272 61q-105 67 -148 189l236 98q14 -62 57 -96q45 -39 133 -39q74 0 125 39q48 39 68 96z" />
    <glyph glyph-name="afii10145" unicode="&#x40f;" horiz-adv-x="1449" 
d="M86 0l168 1366h346l-131 -1065h471l131 1065h346l-166 -1366h-426l-43 -340h-311l43 340h-428z" />
    <glyph glyph-name="afii10017" unicode="&#x410;" horiz-adv-x="1423" 
d="M946 229h-487l-105 -229h-385l678 1366h389l330 -1366h-362zM723 805l-137 -305h295l-58 260q-20 92 -30 158q-8 42 -9 49q-24 -75 -61 -162z" />
    <glyph glyph-name="afii10018" unicode="&#x411;" horiz-adv-x="1239" 
d="M86 0l166 1366h887l-37 -301h-541l-31 -242h185q244 0 352 -116q90 -95 90 -244q0 -101 -33.5 -185t-89.5 -139q-141 -139 -477 -139h-471zM465 272h110q114 0 166 35q62 41 62 127q0 59 -33 90q-38 33 -158 33h-112z" />
    <glyph glyph-name="afii10019" unicode="&#x412;" horiz-adv-x="1234" 
d="M86 0l168 1366h436q131 0 202.5 -15.5t121.5 -54.5q52 -39 80 -104.5t28 -142.5q0 -124 -61 -213q-31 -45 -64 -70.5t-98 -54.5q64 -15 97 -29.5t65 -42.5q92 -80 92 -227q0 -125 -71 -228t-189 -149q-50 -20 -108 -27.5t-156 -7.5h-543zM629 1094h-64l-33 -271h50
q113 0 163 36t50 116q0 69 -34.5 94t-131.5 25zM604 567h-104l-35 -295h94q127 0 181.5 39t54.5 127q0 75 -39.5 102t-151.5 27z" />
    <glyph glyph-name="afii10020" unicode="&#x413;" horiz-adv-x="995" 
d="M254 1366h803l-37 -301h-457l-131 -1065h-346z" />
    <glyph glyph-name="afii10021" unicode="&#x414;" horiz-adv-x="1533" 
d="M440 1366h1012l-133 -1065h164l-72 -584h-311l37 283h-828l-39 -279h-311l74 582q105 18 188 98q66 63 96.5 148t47.5 217zM733 1065l-37 -320q-18 -168 -63 -268q-50 -111 -141 -176h483l90 764h-332z" />
    <glyph glyph-name="afii10022" unicode="&#x415;" horiz-adv-x="989" 
d="M254 1366h747l-36 -301h-402l-28 -227h389l-37 -299h-389l-29 -238h418l-37 -301h-764z" />
    <glyph glyph-name="afii10024" unicode="&#x416;" horiz-adv-x="2021" 
d="M764 0l74 600l-443 -600h-446l577 709l-368 657h409l291 -594l74 594h346l-74 -594l438 594h410l-526 -686l399 -680h-446l-295 600l-74 -600h-346z" />
    <glyph glyph-name="afii10025" unicode="&#x417;" horiz-adv-x="1191" 
d="M319 991l-116 254q99 62 194 98q134 50 281 50q235 0 352 -117q90 -90 90 -232q0 -123 -71 -221q-63 -84 -158 -112l-2 -6q82 -20 141 -76q78 -75 78 -199q0 -183 -119 -305q-84 -88 -194 -120t-244 -32q-165 0 -309 66q-110 52 -232 147l187 250q79 -71 145 -110
q96 -54 203 -54q95 0 151 50q43 40 43 102q0 68 -63 102q-50 27 -174 27h-111l35 274h88q152 0 213 50q51 41 51 108q0 56 -41 88q-41 33 -135 33q-88 0 -158 -35q-52 -24 -125 -80z" />
    <glyph glyph-name="afii10026" unicode="&#x418;" horiz-adv-x="1497" 
d="M254 1366h346l-104 -844l632 844h336l-168 -1366h-346l105 844l-637 -844h-332z" />
    <glyph glyph-name="afii10027" unicode="&#x419;" horiz-adv-x="1497" 
d="M254 1366h346l-104 -844l632 844h336l-168 -1366h-346l105 844l-637 -844h-332zM1098 1839l221 -98q-46 -124 -158 -191q-98 -59 -262 -59q-176 0 -272 61q-105 67 -148 189l236 98q14 -62 57 -96q45 -39 133 -39q74 0 125 39q48 39 68 96z" />
    <glyph glyph-name="afii10028" unicode="&#x41a;" horiz-adv-x="1376" 
d="M254 1366h346l-74 -598l451 598h397l-522 -696l467 -670h-416l-293 436q-42 63 -102 180l-76 -616h-346z" />
    <glyph glyph-name="afii10029" unicode="&#x41b;" horiz-adv-x="1456" 
d="M389 1366h1034l-168 -1366h-346l131 1065h-344l-61 -494q-38 -310 -182 -454q-81 -82 -169.5 -106.5t-199.5 -24.5q-78 0 -135 14l41 328q45 -15 80 -15q71 0 123 41q79 64 104 258z" />
    <glyph glyph-name="afii10030" unicode="&#x41c;" horiz-adv-x="1923" 
d="M1382 1366h359l43 -1366h-346l-17 612v43q0 86 17 228q-44 -116 -97 -226l-335 -657h-183l-116 528q-36 161 -58 377q-41 -208 -71 -313l-177 -592h-356l432 1366h342l103 -461q36 -153 61 -358q46 125 78 186z" />
    <glyph glyph-name="afii10031" unicode="&#x41d;" horiz-adv-x="1482" 
d="M1104 1366h346l-168 -1366h-346l68 559h-502l-70 -559h-346l168 1366h346l-61 -506h501z" />
    <glyph glyph-name="afii10032" unicode="&#x41e;" horiz-adv-x="1648" 
d="M879 1393q324 0 526 -197q188 -185 188 -471q0 -87 -16 -168.5t-38 -138t-52.5 -108t-52.5 -79t-45 -51.5q-203 -207 -537 -207q-178 0 -321.5 56.5t-239.5 154.5q-86 88 -135.5 211t-49.5 269q0 152 52 281.5t143 223.5q102 105 250.5 164.5t327.5 59.5zM864 1065
q-83 0 -160 -29.5t-129 -81.5q-51 -51 -82.5 -125t-31.5 -153q0 -72 24.5 -141.5t67.5 -116.5q46 -51 120.5 -84t170.5 -33q185 0 286 109q107 111 107 282q0 162 -94 260q-51 53 -125.5 83t-153.5 30z" />
    <glyph glyph-name="afii10033" unicode="&#x41f;" horiz-adv-x="1441" 
d="M1241 0h-346l139 1063h-465l-137 -1063h-346l168 1366h1155z" />
    <glyph glyph-name="afii10034" unicode="&#x420;" horiz-adv-x="1181" 
d="M86 0l168 1366h457q132 0 229 -25.5t168 -95.5q115 -113 115 -313q0 -206 -107 -322q-145 -157 -475 -157h-154l-55 -453h-346zM662 1079h-97l-41 -340h109q134 0 192 58q43 43 43 121q0 77 -39 116q-21 21 -54.5 31.5t-55.5 12t-57 1.5z" />
    <glyph glyph-name="afii10035" unicode="&#x421;" horiz-adv-x="1243" 
d="M848 1393q111 0 208.5 -27t205.5 -88l-41 -338q-149 125 -334 125q-189 0 -309.5 -111.5t-120.5 -285.5q0 -164 106 -265.5t277 -101.5q158 0 313 86l-43 -348q-111 -39 -177 -52.5t-145 -13.5q-199 0 -355.5 86t-243.5 241t-87 351q0 153 58 291t157.5 236.5t238 156.5
t292.5 58z" />
    <glyph glyph-name="afii10036" unicode="&#x422;" horiz-adv-x="952" 
d="M1016 1065h-291l-133 -1065h-344l131 1065h-291l37 301h928z" />
    <glyph glyph-name="afii10037" unicode="&#x423;" horiz-adv-x="1314" 
d="M92 1366h373l258 -612l301 612h399l-782 -1366h-375l242 410z" />
    <glyph glyph-name="afii10038" unicode="&#x424;" horiz-adv-x="1710" 
d="M618 0l23 190h-8q-129 0 -238 42t-180 114q-62 63 -97.5 153.5t-35.5 196.5q0 129 45.5 237.5t122.5 182.5q180 168 526 168l21 199h346l-21 -199q114 -2 232.5 -45t193.5 -119q131 -135 131 -352q0 -131 -43 -239.5t-116 -180.5q-52 -51 -116.5 -84.5t-137 -48.5
t-132 -20t-135.5 -5h-12l-22 -190h-347zM1067 1010l-68 -545h19q135 0 217 72q96 82 96 237q0 113 -63 172q-67 64 -193 64h-8zM766 1010h-16q-156 0 -240 -86q-39 -41 -59.5 -99.5t-20.5 -117.5q0 -54 18.5 -103t49.5 -78q65 -61 182 -61h18z" />
    <glyph glyph-name="afii10039" unicode="&#x425;" horiz-adv-x="1406" 
d="M1483 1366l-539 -668l422 -698h-397l-125 205q-68 115 -127 258q-63 -109 -133 -197l-213 -266h-430l596 719l-392 647h402l90 -160q66 -117 125 -252q96 150 137 199l166 213h418z" />
    <glyph glyph-name="afii10040" unicode="&#x426;" horiz-adv-x="1511" 
d="M86 0l168 1366h346l-131 -1065h471l131 1065h346l-131 -1065h193l-74 -608h-311l36 307h-1044z" />
    <glyph glyph-name="afii10041" unicode="&#x427;" horiz-adv-x="1335" 
d="M788 0l66 537q-126 -21 -233 -21q-236 0 -353 82q-125 90 -125 272q0 28 3 58.5t9 71t9 63.5l37 303h346l-37 -287q-10 -74 -10 -102q0 -160 229 -160q88 0 162 14l65 535h347l-168 -1366h-347z" />
    <glyph glyph-name="afii10042" unicode="&#x428;" horiz-adv-x="2000" 
d="M86 0l168 1366h346l-131 -1065h338l131 1065h346l-131 -1065h338l131 1065h346l-168 -1366h-1714z" />
    <glyph glyph-name="afii10043" unicode="&#x429;" horiz-adv-x="2074" 
d="M86 0l168 1366h346l-131 -1065h338l131 1065h346l-131 -1065h338l131 1065h346l-131 -1065h205l-74 -608h-311l37 307h-1608z" />
    <glyph glyph-name="afii10044" unicode="&#x42a;" horiz-adv-x="1388" 
d="M238 0l137 1065h-287l37 301h627l-66 -537h193q240 0 350 -110q98 -94 98 -254q0 -93 -32 -179.5t-93 -146.5q-141 -139 -477 -139h-487zM618 272h117q124 0 170 31q58 40 58 135q0 57 -29 86q-33 33 -158 33h-123z" />
    <glyph glyph-name="afii10045" unicode="&#x42b;" horiz-adv-x="1763" 
d="M1217 0l167 1366h347l-168 -1366h-346zM86 0l168 1366h346l-65 -537h178q236 0 346 -110q98 -98 98 -256q0 -205 -119 -324q-81 -81 -201.5 -110t-277.5 -29h-473zM467 272h117q124 0 170 31q57 39 57 135q0 57 -29 86q-33 33 -157 33h-123z" />
    <glyph glyph-name="afii10046" unicode="&#x42c;" horiz-adv-x="1236" 
d="M86 0l168 1366h346l-65 -537h192q240 0 350 -110q99 -95 99 -254q0 -93 -32 -179.5t-93 -146.5q-141 -139 -478 -139h-487zM467 272h117q124 0 170 31q57 39 57 135q0 57 -29 86q-33 33 -157 33h-123z" />
    <glyph glyph-name="afii10047" unicode="&#x42d;" horiz-adv-x="1280" 
d="M33 106l41 340q75 -68 157 -108q95 -45 220 -45q142 0 239 61q103 65 137 189h-518l37 291h504q-33 115 -133 178q-91 57 -228 57q-110 0 -208 -41q-67 -30 -148 -88l45 354q181 99 383 99q141 0 265 -46t212 -133q187 -183 187 -485q0 -338 -211 -553
q-108 -111 -237 -157t-288 -46q-249 0 -456 133z" />
    <glyph glyph-name="afii10048" unicode="&#x42e;" horiz-adv-x="2242" 
d="M539 868h200q21 79 56 147t76 116t74.5 78.5t68.5 54.5q190 129 454 129q325 0 531 -197q188 -185 188 -471q0 -87 -16 -168.5t-38 -138t-53 -108t-53 -79t-45 -51.5q-203 -207 -532 -207q-140 0 -280 41t-238 125q-78 67 -138.5 175t-74.5 253h-217l-70 -567h-346
l168 1366h346zM1456 1065q-82 0 -157.5 -29t-129.5 -82q-51 -51 -82.5 -125t-31.5 -153q0 -72 24.5 -141.5t67.5 -116.5q46 -51 120.5 -84t170.5 -33q185 0 286 109q107 111 107 282q0 162 -94 260q-51 53 -125.5 83t-155.5 30z" />
    <glyph glyph-name="afii10049" unicode="&#x42f;" horiz-adv-x="1325" 
d="M29 0l446 522q-108 21 -176 101q-80 90 -80 239q0 104 36.5 196.5t104.5 160.5q88 88 188 117.5t228 29.5h516l-168 -1366h-346l58 465h-35l-350 -465h-422zM868 739l45 353h-102q-111 0 -168 -52q-57 -54 -57 -149q0 -78 55 -121q46 -31 139 -31h88z" />
    <glyph glyph-name="afii10065" unicode="&#x430;" horiz-adv-x="1253" 
d="M848 915h338l-113 -915h-338l25 100q-78 -71 -147 -99t-164 -28q-173 0 -277 117.5t-104 315.5q0 231 137 383.5t344 152.5q97 0 160 -28t137 -103zM596 238q92 0 152.5 70t60.5 177q0 88 -48.5 139.5t-131.5 51.5q-92 0 -154.5 -71t-62.5 -175q0 -88 49.5 -140
t134.5 -52z" />
    <glyph glyph-name="afii10066" unicode="&#x431;" horiz-adv-x="1226" 
d="M375 774h10q100 144 315 144q239 0 371 -136q107 -112 107 -286q0 -221 -142 -367q-154 -156 -426 -156q-258 0 -395 144q-133 137 -133 389q0 179 55 379q61 221 180 334q98 93 275 143q77 21 155.5 33.5t112.5 25.5q78 30 96 99h291q-27 -144 -123 -240
q-74 -74 -229 -125q-36 -11 -120.5 -34t-125.5 -38q-124 -41 -188 -120q-61 -73 -86 -189zM610 238q98 0 154 59q33 33 51.5 81.5t18.5 96.5q0 86 -56 139q-48 45 -129 45q-89 0 -145 -53q-72 -68 -72 -188q0 -91 49 -135q45 -45 129 -45z" />
    <glyph glyph-name="afii10067" unicode="&#x432;" horiz-adv-x="1101" 
d="M178 915h539q147 0 217 -49q84 -61 84 -168q0 -99 -64 -163q-45 -45 -100 -60v-4q81 -9 127 -55q59 -54 59 -142q0 -115 -73 -188q-88 -86 -273 -86h-299h-329zM471 557h96q66 0 92 18q33 22 33 70q0 38 -28 55q-22 11 -86 11h-86zM428 205h125q25 0 56.5 6.5t45.5 17.5
q29 21 29 72q0 43 -33 61q-23 13 -98 13h-104z" />
    <glyph glyph-name="afii10068" unicode="&#x433;" horiz-adv-x="847" 
d="M66 0l116 915h666l-35 -260h-330l-80 -655h-337z" />
    <glyph glyph-name="afii10069" unicode="&#x434;" horiz-adv-x="1269" 
d="M315 915h856l-84 -669h132l-60 -512h-287l33 266h-624l-35 -266h-287l64 512q92 10 153 71q72 69 92 230zM760 246l55 424h-221l-16 -142q-13 -104 -41 -168q-32 -70 -95 -114h318z" />
    <glyph glyph-name="afii10070" unicode="&#x435;" horiz-adv-x="1148" 
d="M1075 389h-684q0 -113 47 -156q34 -34 105 -34q50 0 86 24q33 22 45 62h368q-34 -100 -100 -166q-79 -81 -186 -113.5t-211 -32.5q-219 0 -350 121q-125 121 -125 324q0 123 42 219t107 160q149 145 391 145q219 0 346 -127q123 -123 123 -348q0 -28 -4 -78zM414 580h319
q-3 67 -47 108q-40 37 -106 37q-72 0 -117 -45q-38 -38 -49 -100z" />
    <glyph glyph-name="afii10072" unicode="&#x436;" horiz-adv-x="1636" 
d="M596 0l49 397l-301 -397h-395l409 489l-262 426h367l199 -383l47 383h327l-47 -383l295 383h383l-381 -448l291 -467h-397l-207 397l-49 -397h-328z" />
    <glyph glyph-name="afii10073" unicode="&#x437;" horiz-adv-x="999" 
d="M186 610l-77 230q81 45 180 73q116 33 246 33q176 0 272 -57q121 -70 121 -205q0 -87 -60 -147q-48 -45 -110 -62v-4q68 -15 106 -53q56 -56 56 -137q0 -68 -32.5 -130.5t-96.5 -103.5q-110 -74 -318 -74q-148 0 -280 45q-108 39 -189 95l119 225q77 -56 137 -78
q79 -33 170 -33q62 0 96 15q21 9 33 25t12 32q0 19 -11.5 31.5t-22 16t-21.5 5.5q-41 8 -102 8h-95l27 213h84q76 0 115 11q55 15 55 59q0 35 -41 49q-31 13 -94 13q-72 0 -154 -29q-75 -29 -125 -66z" />
    <glyph glyph-name="afii10074" unicode="&#x438;" horiz-adv-x="1224" 
d="M178 915h338l-59 -471l403 471h295l-113 -915h-337l59 483l-399 -483h-299z" />
    <glyph glyph-name="afii10075" unicode="&#x439;" horiz-adv-x="1224" 
d="M178 915h338l-59 -471l403 471h295l-113 -915h-337l59 483l-399 -483h-299zM866 1386l224 -79q-32 -115 -136 -185q-97 -61 -249 -61q-173 0 -263 63q-93 66 -127 183l236 79q12 -61 43 -92q35 -37 106 -37q80 0 119 41q30 30 47 88z" />
    <glyph glyph-name="afii10076" unicode="&#x43a;" horiz-adv-x="1167" 
d="M176 915h338l-47 -389l301 389h410l-408 -464l352 -451h-411l-144 193q-75 101 -118 176l-46 -369h-337z" />
    <glyph glyph-name="afii10077" unicode="&#x43b;" horiz-adv-x="1243" 
d="M1174 915l-113 -915h-338l82 655h-225l-41 -311q-11 -88 -52 -155.5t-96 -108.5q-78 -58 -190.5 -76t-220.5 -4l34 272q20 -4 43 -5t56.5 6.5t54.5 27.5q46 41 59 148l58 466h889z" />
    <glyph glyph-name="afii10078" unicode="&#x43c;" horiz-adv-x="1413" 
d="M-6 0l282 915h295l101 -362q3 -13 11 -37t14 -48.5t12 -59.5q34 75 75 151l189 356h295l57 -915h-317l-25 371q-6 117 -6 121q-14 -50 -47 -121l-176 -371h-164l-105 389q-16 60 -22 105q-3 -14 -31 -113l-121 -381h-317z" />
    <glyph glyph-name="afii10079" unicode="&#x43d;" horiz-adv-x="1216" 
d="M66 0l112 915h338l-39 -309h293l39 309h338l-113 -915h-338l43 346h-293l-43 -346h-337z" />
    <glyph glyph-name="afii10080" unicode="&#x43e;" horiz-adv-x="1234" 
d="M631 942q260 0 403 -143q127 -124 127 -326q0 -208 -133 -344q-152 -156 -407 -156q-133 0 -241 41.5t-179 112.5q-129 129 -129 328q0 197 137 331q161 156 422 156zM602 238q90 0 146 59q69 69 69 188q0 97 -55 146q-52 45 -127 45q-88 0 -150 -64q-69 -72 -69 -182
q0 -84 51 -139q53 -53 135 -53z" />
    <glyph glyph-name="afii10081" unicode="&#x43f;" horiz-adv-x="1196" 
d="M66 0l112 915h948l-112 -915h-338l82 655h-273l-82 -655h-337z" />
    <glyph glyph-name="afii10082" unicode="&#x440;" horiz-adv-x="1259" 
d="M174 915h338l-27 -116q89 79 161 111t161 32q173 0 275 -119t102 -323q0 -238 -119.5 -382.5t-316.5 -144.5q-104 0 -183.5 44t-146.5 139l-78 -625h-336zM625 238q94 0 154.5 70t60.5 177q0 88 -49 139.5t-132 51.5q-93 0 -155 -70.5t-62 -175.5q0 -88 50 -140t133 -52z
" />
    <glyph glyph-name="afii10083" unicode="&#x441;" horiz-adv-x="866" 
d="M578 942q147 0 276 -63l-35 -285q-50 45 -91.5 63.5t-94.5 18.5q-95 0 -156 -67.5t-61 -172.5q0 -91 50 -143.5t138 -52.5q46 0 85.5 15t94.5 54l-34 -286q-90 -30 -137.5 -40t-104.5 -10q-192 0 -314 127.5t-122 327.5q0 223 143 368.5t363 145.5z" />
    <glyph glyph-name="afii10084" unicode="&#x442;" horiz-adv-x="856" 
d="M199 0l82 655h-250l30 260h836l-33 -260h-250l-79 -655h-336z" />
    <glyph glyph-name="afii10085" unicode="&#x443;" horiz-adv-x="1204" 
d="M874 915h386l-857 -1384h-378l327 541l-323 843h374l99 -247q46 -114 76 -262q48 105 120 221z" />
    <glyph glyph-name="afii10086" unicode="&#x444;" horiz-adv-x="1554" 
d="M827 -469h-335l57 455q-240 5 -361 139q-114 122 -114 305q0 221 147 358q63 60 153.5 96.5t157 46.5t134.5 11l53 424h336l-54 -424q232 -10 361 -141q119 -119 119 -307q0 -211 -133 -349q-156 -159 -463 -159zM944 692l-55 -456q119 4 192 73q70 70 70 191
q0 86 -51 137q-60 60 -156 55zM662 692q-115 0 -191 -76q-70 -70 -70 -178q0 -85 52 -141q27 -29 69 -45t84 -16z" />
    <glyph glyph-name="afii10087" unicode="&#x445;" horiz-adv-x="1280" 
d="M1290 915l-436 -440l367 -475h-418l-88 123q-51 72 -90 141q-75 -95 -131 -151l-107 -113h-430l471 483l-332 432h422l68 -106q45 -70 71 -129q39 59 64 88l35 41l94 106h440z" />
    <glyph glyph-name="afii10088" unicode="&#x446;" horiz-adv-x="1228" 
d="M66 0l112 915h338l-82 -655h275l82 655h337l-81 -655h151l-63 -526h-287l33 266h-815z" />
    <glyph glyph-name="afii10089" unicode="&#x447;" horiz-adv-x="1087" 
d="M567 0l39 315q-87 -22 -184 -22q-207 0 -293 86q-29 29 -45 64t-19 75t-2 64.5t5 60.5l32 272h326l-29 -219q-8 -30 -3.5 -67t30.5 -56q28 -20 96 -20t117 14l43 348h338l-113 -915h-338z" />
    <glyph glyph-name="afii10090" unicode="&#x448;" horiz-adv-x="1744" 
d="M66 0l112 915h338l-82 -655h242l82 655h338l-82 -655h241l82 655h338l-112 -915h-1497z" />
    <glyph glyph-name="afii10091" unicode="&#x449;" horiz-adv-x="1816" 
d="M178 915h338l-82 -655h242l82 655h338l-82 -655h241l82 655h338l-82 -655h193l-64 -526h-286l32 266h-1402z" />
    <glyph glyph-name="afii10092" unicode="&#x44a;" horiz-adv-x="1185" 
d="M598 610h184q193 0 279 -84q74 -70 74 -190q0 -69 -23.5 -132t-64.5 -104q-49 -49 -125.5 -74.5t-153.5 -25.5h-584l82 655h-235l30 260h574zM549 213h110q61 0 97 29q30 27 30 75q0 39 -24 60q-24 20 -119 20h-72z" />
    <glyph glyph-name="afii10093" unicode="&#x44b;" horiz-adv-x="1568" 
d="M1161 915h338l-113 -915h-337zM479 610h172q56 0 94 -3.5t91 -23t90 -55.5q78 -74 78 -196q0 -66 -24 -128.5t-65 -103.5q-49 -49 -125 -74.5t-153 -25.5h-571l110 915h340zM430 213h100q74 0 107 29q31 28 31 77q0 44 -31 62q-21 16 -113 16h-71z" />
    <glyph glyph-name="afii10094" unicode="&#x44c;" horiz-adv-x="1067" 
d="M479 610h185q192 0 278 -84q74 -70 74 -190q0 -69 -23.5 -132t-64.5 -104q-49 -49 -125.5 -74.5t-153.5 -25.5h-583l110 915h340zM430 213h111q60 0 96 29q31 28 31 75q0 39 -25 60q-24 20 -119 20h-71z" />
    <glyph glyph-name="afii10095" unicode="&#x44d;" horiz-adv-x="1009" 
d="M51 57l35 281q59 -55 119 -80q68 -31 160 -31q101 0 155 35q55 32 78 96h-350l24 205h338q-27 69 -96 103q-56 26 -137 26q-86 0 -156 -33q-47 -20 -102 -63l35 293q154 53 286 53q238 0 371 -133q125 -125 125 -317q0 -109 -38.5 -210.5t-109.5 -170.5
q-143 -138 -395 -138q-178 0 -342 84z" />
    <glyph glyph-name="afii10096" unicode="&#x44e;" horiz-adv-x="1693" 
d="M477 606h103q46 147 165 238q130 98 345 98q260 0 403 -143q127 -124 127 -326q0 -208 -133 -344q-151 -156 -408 -156q-221 0 -358 103t-160 270h-115l-43 -346h-337l112 915h338zM1061 238q89 0 145 59q70 70 70 188q0 97 -55 146q-52 45 -127 45q-88 0 -150 -64
q-70 -73 -70 -182q0 -82 52 -139q53 -53 135 -53z" />
    <glyph glyph-name="afii10097" unicode="&#x44f;" horiz-adv-x="1114" 
d="M20 0l293 328q-79 17 -127 65q-63 63 -63 174q0 77 26.5 141.5t69.5 106.5q45 44 113 67.5t120 28t126 4.5h466l-112 -915h-324l35 291h-22l-232 -291h-369zM668 492l26 210h-102q-75 0 -111 -36q-30 -30 -30 -78q0 -53 34 -74q34 -22 101 -22h82z" />
    <glyph glyph-name="afii10071" unicode="&#x451;" horiz-adv-x="1148" 
d="M1075 389h-684q0 -113 47 -156q34 -34 105 -34q50 0 86 24q33 22 45 62h368q-34 -100 -100 -166q-79 -81 -186 -113.5t-211 -32.5q-219 0 -350 121q-125 121 -125 324q0 123 42 219t107 160q149 145 391 145q219 0 346 -127q123 -123 123 -348q0 -28 -4 -78zM414 580h319
q-3 67 -47 108q-40 37 -106 37q-72 0 -117 -45q-38 -38 -49 -100zM231 1257q0 72 50 122.5t122 50.5t122 -50.5t50 -122.5t-50 -122t-122 -50t-122 50t-50 122zM666 1257q0 72 50 122.5t122 50.5t122 -50.5t50 -122.5t-50 -122t-122 -50t-122 50t-50 122z" />
    <glyph glyph-name="afii10099" unicode="&#x452;" horiz-adv-x="1214" 
d="M76 0l125 1010h-168l26 225h168l33 258h338l-33 -258h342l-26 -225h-342l-33 -258q150 108 303 108t227 -92q68 -82 68 -231q0 -62 -12 -156l-50 -393q-7 -54 -12.5 -86.5t-20 -92t-40 -107t-60.5 -81.5q-96 -92 -276 -92q-77 0 -182 22l32 283q21 -6 62 -6q67 0 102 33
q27 26 45.5 75t18.5 93l34 293q11 86 11 110q0 68 -25 105q-30 43 -98 43q-74 0 -113 -41q-45 -45 -63 -187l-43 -352h-338z" />
    <glyph glyph-name="afii10100" unicode="&#x453;" horiz-adv-x="847" 
d="M66 0l116 915h666l-35 -260h-330l-80 -655h-337zM590 1430h338l-271 -351h-231z" />
    <glyph glyph-name="afii10101" unicode="&#x454;" horiz-adv-x="972" 
d="M864 313l-33 -274q-132 -66 -292 -66q-222 0 -349 129q-129 129 -129 322q0 112 41 211t113 168q146 139 393 139q165 0 324 -80l-35 -291q-49 52 -104 82q-63 35 -144 35q-80 0 -135 -31q-62 -30 -92 -100h342l-25 -197h-342q19 -63 76 -98q60 -35 154 -35q71 0 139 29
q50 19 98 57z" />
    <glyph glyph-name="afii10102" unicode="&#x455;" horiz-adv-x="962" 
d="M559 946q162 0 340 -94l-80 -231q-71 44 -119.5 60.5t-103.5 16.5q-117 0 -117 -55q0 -17 12 -27.5t41 -17.5l111 -29q126 -34 185 -96t59 -160q0 -156 -115.5 -248t-310.5 -92q-113 0 -208 31.5t-214 108.5l125 221q98 -62 157.5 -84.5t127.5 -22.5q124 0 124 64
q0 34 -51 49l-110 25q-129 31 -187.5 94.5t-58.5 171.5q0 141 107.5 228t285.5 87z" />
    <glyph glyph-name="afii10103" unicode="&#x456;" horiz-adv-x="555" 
d="M178 915h338l-113 -915h-337zM195 1296q0 77 54 131t130 54t130 -54t54 -131q0 -76 -53.5 -130t-130.5 -54t-130.5 54t-53.5 130z" />
    <glyph glyph-name="afii10104" unicode="&#x457;" horiz-adv-x="716" 
d="M252 915h323l-112 -915h-324zM655 1479q57 0 93 -33q51 -46 51 -119q0 -94 -70 -147q-42 -33 -96 -33q-56 0 -92 33q-49 42 -49 114q0 101 67 152q42 33 96 33zM291 1479q56 0 92 -33q51 -46 51 -119q0 -95 -69 -147q-42 -33 -97 -33q-56 0 -92 33q-49 42 -49 114
q0 100 68 152q42 33 96 33z" />
    <glyph glyph-name="afii10105" unicode="&#x458;" horiz-adv-x="565" 
d="M174 915h338l-172 -1384h-336zM195 1296q0 77 54 131t130 54t130 -54t54 -131q0 -76 -53.5 -130t-130.5 -54t-130.5 54t-53.5 130z" />
    <glyph glyph-name="afii10106" unicode="&#x459;" horiz-adv-x="1724" 
d="M1137 610h184q192 0 278 -84q74 -70 74 -190q0 -69 -23.5 -132t-64.5 -104q-49 -49 -125 -74.5t-153 -25.5h-584l80 655h-223l-41 -311q-11 -88 -52 -155.5t-96 -108.5q-78 -58 -190.5 -76t-220.5 -4l34 272q20 -4 43 -5t56.5 6.5t54.5 27.5q46 41 59 148l58 466h889z
M1087 213h111q60 0 96 29q31 28 31 75q0 39 -25 60q-24 20 -118 20h-72z" />
    <glyph glyph-name="afii10107" unicode="&#x45a;" horiz-adv-x="1699" 
d="M1112 610h184q193 0 279 -84q74 -70 74 -190q0 -69 -23.5 -132t-64.5 -104q-49 -49 -125.5 -74.5t-153.5 -25.5h-584l47 385h-294l-48 -385h-337l112 915h338l-39 -305h295l37 305h340zM1063 213h111q60 0 90 23q34 24 34 71q0 41 -22 58q-24 20 -119 20h-74z" />
    <glyph glyph-name="afii10108" unicode="&#x45b;" horiz-adv-x="1214" 
d="M76 0l125 1010h-168l26 225h168l33 258h338l-33 -258h342l-26 -225h-342l-33 -258q150 108 303 108t227 -92q68 -82 68 -231q0 -62 -12 -156l-48 -381h-337l38 322q11 86 11 110q0 68 -25 105q-30 43 -98 43q-74 0 -113 -41q-45 -45 -63 -187l-43 -352h-338z" />
    <glyph glyph-name="afii10109" unicode="&#x45c;" horiz-adv-x="1167" 
d="M176 915h338l-47 -389l301 389h410l-408 -464l352 -451h-411l-144 193q-75 101 -118 176l-46 -369h-337zM713 1430h338l-271 -351h-231z" />
    <glyph glyph-name="afii10110" unicode="&#x45e;" horiz-adv-x="1204" 
d="M874 915h386l-857 -1384h-378l327 541l-323 843h374l99 -247q46 -114 76 -262q48 105 120 221zM817 1386l223 -79q-33 -116 -135 -185q-97 -61 -250 -61q-172 0 -262 63q-93 66 -127 183l236 79q12 -61 43 -92q35 -37 106 -37q80 0 119 41q30 30 47 88z" />
    <glyph glyph-name="afii10193" unicode="&#x45f;" horiz-adv-x="1198" 
d="M66 0l112 915h338l-82 -655h275l82 655h337l-114 -915h-332l-37 -287h-287l39 287h-331z" />
    <glyph glyph-name="afii10146" unicode="&#x462;" horiz-adv-x="1386" 
d="M236 0l124 1014h-272l29 235h272l29 234h346l-29 -234h391l-28 -235h-391l-23 -185h193q240 0 350 -110q98 -94 98 -252q0 -94 -32 -181t-93 -147q-141 -139 -477 -139h-487zM616 272h117q124 0 170 31q58 35 58 131q0 65 -37 96q-34 27 -150 27h-123z" />
    <glyph glyph-name="afii10194" unicode="&#x463;" horiz-adv-x="1173" 
d="M600 723l-14 -121h184q190 0 279 -84q73 -69 73 -190q0 -62 -23.5 -124.5t-64.5 -103.5q-49 -49 -125 -74.5t-153 -25.5h-584l86 723h-227l24 192h228l71 578h340l-71 -578h344l-25 -192h-342zM537 213h110q60 0 96 29q31 28 31 75q0 39 -24 60q-24 20 -119 20h-72z" />
    <glyph glyph-name="afii10147" unicode="&#x472;" horiz-adv-x="1648" 
d="M879 1393q324 0 526 -197q188 -185 188 -471q0 -87 -16 -168.5t-38 -138t-52.5 -108t-52.5 -79t-45 -51.5q-203 -207 -537 -207q-178 0 -321.5 56.5t-239.5 154.5q-86 88 -135.5 211t-49.5 269q0 152 52 281.5t143 223.5q102 105 250.5 164.5t327.5 59.5zM494 829h723
q-36 109 -136 175q-92 61 -219 61q-137 0 -237 -70q-84 -58 -131 -166zM1221 571h-746q23 -114 109 -184q102 -86 278 -86q140 0 246 88q87 76 113 182z" />
    <glyph glyph-name="afii10195" unicode="&#x473;" horiz-adv-x="1234" 
d="M631 942q260 0 403 -143q127 -124 127 -326q0 -208 -133 -344q-152 -156 -407 -156q-133 0 -241 41.5t-179 112.5q-129 129 -129 328q0 197 137 331q161 156 422 156zM440 545h371q-14 59 -59 94q-47 37 -117 37q-71 0 -121 -35q-51 -37 -74 -96zM807 399h-389
q9 -68 53 -112q49 -49 135 -49q71 0 125 45q54 43 76 116z" />
    <glyph glyph-name="afii10148" unicode="&#x474;" horiz-adv-x="1382" 
d="M1104 1366h389l-733 -1366h-293l-356 1366h368l156 -623q20 -78 28 -122t15 -127q33 102 78 186z" />
    <glyph glyph-name="afii10196" unicode="&#x475;" horiz-adv-x="1193" 
d="M874 915h375l-618 -915h-230l-356 915h350l105 -278q21 -56 65 -227q68 135 133 237z" />
    <glyph glyph-name="afii10050" unicode="&#x490;" horiz-adv-x="1036" 
d="M86 0l168 1366h510l33 272h301l-70 -573h-465l-131 -1065h-346z" />
    <glyph glyph-name="afii10098" unicode="&#x491;" horiz-adv-x="921" 
d="M178 915h443l34 287h297l-67 -547h-402l-80 -655h-337z" />
    <glyph glyph-name="uni0492" unicode="&#x492;" horiz-adv-x="1112" 
d="M1163 1366l-37 -301h-444l-33 -272h336l-33 -267h-336l-65 -526h-346l65 526h-204l30 267h207l70 573h790z" />
    <glyph glyph-name="uni0493" unicode="&#x493;" horiz-adv-x="946" 
d="M481 0h-338l39 309h-162l25 205h162l53 401h676l-35 -260h-340l-16 -141h211l-25 -205h-211z" />
    <glyph glyph-name="uni0494" unicode="&#x494;" horiz-adv-x="1314" 
d="M1044 1366l-36 -301h-445l-31 -260q118 47 250 47q227 0 344 -102q53 -46 90 -129t37 -197q0 -111 -41 -197.5t-104 -138.5q-122 -102 -363 -102q-93 0 -174 16l33 268q65 -14 115 -14q88 0 127 37q43 43 43 117q0 63 -41 104q-44 39 -127 39q-120 0 -225 -47l-64 -506
h-346l168 1366h790z" />
    <glyph glyph-name="uni0495" unicode="&#x495;" horiz-adv-x="1034" 
d="M66 0l112 915h680l-35 -260h-340l-20 -172h41q237 0 352 -112q105 -100 105 -281q0 -226 -142 -362q-151 -146 -428 -154l29 242q77 3 133 49q37 30 58.5 83t21.5 120q0 95 -51 139q-43 37 -133 37h-15l-31 -244h-337z" />
    <glyph glyph-name="uni0496" unicode="&#x496;" horiz-adv-x="2021" 
d="M764 0l74 600l-443 -600h-446l577 709l-368 657h409l291 -594l74 594h346l-74 -594l438 594h410l-526 -686l264 -379h213l-74 -608h-311l37 307h-115l-356 600l-74 -600h-346z" />
    <glyph glyph-name="uni0497" unicode="&#x497;" horiz-adv-x="1646" 
d="M596 0l49 397l-301 -397h-395l409 489l-262 426h367l199 -383l47 383h327l-47 -383l295 383h383l-381 -448l141 -207h195l-63 -526h-287l33 266h-80l-252 397l-49 -397h-328z" />
    <glyph glyph-name="uni0498" unicode="&#x498;" horiz-adv-x="1191" 
d="M319 991l-116 254q99 62 194 98q134 50 285 50q235 0 348 -117q90 -90 90 -232q0 -123 -71 -221q-63 -84 -158 -112l-2 -6q82 -20 141 -76q78 -75 78 -199q0 -176 -119 -305q-121 -125 -299 -145l-39 -320h-311l41 332q-207 44 -371 194l187 250q79 -71 145 -110
q96 -54 203 -54q95 0 151 50q43 40 43 102q0 68 -63 102q-50 27 -174 27h-111l35 274h88q152 0 213 50q51 41 51 108q0 56 -41 88q-41 33 -125 33q-82 0 -166 -35q-53 -23 -127 -80z" />
    <glyph glyph-name="uni0499" unicode="&#x499;" horiz-adv-x="999" 
d="M186 610l-77 230q81 45 180 73q116 33 246 33q176 0 272 -57q121 -70 121 -205q0 -87 -60 -147q-45 -42 -110 -66q68 -15 106 -53q56 -56 56 -137q0 -145 -129 -234q-83 -59 -205 -65l-35 -269h-287l39 279q-164 24 -299 121l119 225q77 -56 137 -78q79 -33 170 -33
q62 0 96 15q21 9 33 25t12 32q0 19 -11.5 31.5t-22 16t-21.5 5.5q-41 8 -102 8h-95l27 213h84q76 0 115 11q55 15 55 59q0 35 -41 49q-31 13 -94 13q-72 0 -154 -29q-75 -29 -125 -66z" />
    <glyph glyph-name="uni049A" unicode="&#x49a;" horiz-adv-x="1376" 
d="M254 1366h346l-74 -598l451 598h397l-524 -688l272 -377h213l-73 -608h-312l37 307h-67l-283 401q-38 54 -54 77.5t-37 61t-38 76.5l-76 -616h-346z" />
    <glyph glyph-name="uni049B" unicode="&#x49b;" horiz-adv-x="1222" 
d="M881 0h-131l-148 193q-76 98 -119 176l-45 -369h-338l111 915h338l-47 -389l301 389h409l-407 -464l182 -191h211l-65 -526h-287z" />
    <glyph glyph-name="uni049C" unicode="&#x49c;" horiz-adv-x="1628" 
d="M254 1366h346l-68 -543h103l37 289h227l-37 -289l389 543h398l-484 -651l408 -715h-414l-203 362q-73 127 -118 250l-35 -286h-228l35 286h-102l-76 -612h-346z" />
    <glyph glyph-name="uni049D" unicode="&#x49d;" horiz-adv-x="1386" 
d="M66 0l114 915h338l-45 -346h76l24 201h201l-26 -221l274 366h375l-375 -446l281 -469h-371l-121 225q-59 112 -82 176l-29 -241h-200l26 221h-75l-48 -381h-337z" />
    <glyph glyph-name="uni04A0" unicode="&#x4a0;" horiz-adv-x="1585" 
d="M295 0l123 1065h-330l37 301h684l-74 -598l451 598h397l-522 -696l467 -670h-416l-293 436q-42 63 -102 180l-76 -616h-346z" />
    <glyph glyph-name="uni04A1" unicode="&#x4a1;" horiz-adv-x="1323" 
d="M211 0l78 655h-258l32 260h596l-47 -389l301 389h410l-408 -464l353 -451h-412l-143 193q-80 107 -119 176l-45 -369h-338z" />
    <glyph glyph-name="uni04A2" unicode="&#x4a2;" horiz-adv-x="1544" 
d="M1104 1366h346l-131 -1065h192l-73 -608h-312l37 307h-227l72 567h-506l-70 -567h-346l168 1366h346l-61 -498h505z" />
    <glyph glyph-name="uni04A3" unicode="&#x4a3;" horiz-adv-x="1247" 
d="M66 0l112 915h338l-39 -309h293l39 309h338l-82 -655h152l-66 -526h-287l35 266h-203l43 346h-293l-43 -346h-337z" />
    <glyph glyph-name="uni04A4" unicode="&#x4a4;" horiz-adv-x="1763" 
d="M1044 868l60 498h721l-37 -301h-375l-131 -1065h-346l72 567h-506l-70 -567h-346l168 1366h346l-61 -498h505z" />
    <glyph glyph-name="uni04A5" unicode="&#x4a5;" horiz-adv-x="1404" 
d="M66 0l112 915h338l-39 -309h293l39 309h616l-34 -260h-281l-76 -655h-338l43 346h-293l-43 -346h-337z" />
    <glyph glyph-name="uni04AA" unicode="&#x4aa;" horiz-adv-x="1243" 
d="M1153 387l-43 -348q-77 -31 -135 -41l-43 -338h-311l41 324q-212 27 -369 180q-191 188 -191 479q0 318 215 533q217 217 543 217q208 0 402 -115l-41 -338q-149 125 -332 125q-199 0 -324 -125q-108 -113 -108 -272q0 -150 94 -252q110 -115 289 -115q168 0 313 86z" />
    <glyph glyph-name="uni04AB" unicode="&#x4ab;" horiz-adv-x="866" 
d="M784 309l-34 -286q-35 -17 -74 -23l-37 -287h-287l39 279q-113 19 -196 108q-123 131 -123 332q0 220 145 365t361 145q153 0 276 -63l-35 -285q-80 82 -186 82q-86 0 -148 -62q-69 -69 -69 -178q0 -92 53 -145q49 -51 135 -51q98 0 180 69z" />
    <glyph glyph-name="uni04AE" unicode="&#x4ae;" horiz-adv-x="1275" 
d="M1384 1366l-596 -768l-73 -598h-346l75 608l-348 758h383l94 -219q65 -154 74 -184q2 -4 4 -11t5.5 -17.5l5.5 -16.5q22 42 67 108l236 340h419z" />
    <glyph glyph-name="uni04AF" unicode="&#x4af;" horiz-adv-x="1161" 
d="M41 915h373l90 -299q4 -16 14 -50t15.5 -53.5t13.5 -53.5t14 -70h4q34 98 97 215l165 311h390l-519 -872l-61 -512h-338l61 512z" />
    <glyph glyph-name="uni04B0" unicode="&#x4b0;" horiz-adv-x="1296" 
d="M1405 1366l-594 -748l-6 -38h348l-31 -254h-348l-41 -326h-344l41 326h-348l31 254h348l6 49l-350 737h383l131 -307q38 -88 51 -141q12 25 68 108l235 340h420z" />
    <glyph glyph-name="uni04B1" unicode="&#x4b1;" horiz-adv-x="1161" 
d="M41 915h373l90 -299q4 -16 14 -50t15.5 -53.5t13.5 -53.5t14 -70h4q34 98 97 215l165 311h390l-517 -839l-6 -45h283l-27 -205h-280l-35 -295h-338l37 295h-281l27 205h278l4 45z" />
    <glyph glyph-name="uni04B2" unicode="&#x4b2;" horiz-adv-x="1431" 
d="M1483 1366l-539 -668l273 -397h208l-73 -608h-312l37 307h-82l-143 197q-49 71 -82 139q-19 36 -53 127q-13 -23 -34 -54.5t-28 -43.5q-63 -89 -71 -99l-213 -266h-430l596 719l-392 647h402l90 -160q53 -96 68 -127q41 -85 57 -125q15 24 63 99q18 27 74 100l166 213
h418z" />
    <glyph glyph-name="uni04B3" unicode="&#x4b3;" horiz-adv-x="1280" 
d="M1290 915l-436 -440l184 -215h185l-66 -526h-287l35 266h-78l-98 113q-67 78 -104 151q-15 -22 -31 -42t-26 -31t-35.5 -37.5t-38.5 -40.5l-107 -113h-430l471 483l-332 432h422l64 -100q47 -76 75 -135q4 9 8 16t10.5 16t10 14.5t13.5 16.5t15 17t19.5 23t22.5 26
l94 106h440z" />
    <glyph glyph-name="uni04B6" unicode="&#x4b6;" horiz-adv-x="1402" 
d="M1022 0h-227l65 537q-155 -21 -258 -21q-235 0 -346 80q-44 32 -70 73t-34 89t-7.5 89t7.5 95l55 424h346l-43 -365q-7 -77 6 -111q12 -27 35 -44q41 -29 164 -29q93 0 182 14l66 535h346l-131 -1065h192l-74 -608h-311z" />
    <glyph glyph-name="uni04B7" unicode="&#x4b7;" horiz-adv-x="1120" 
d="M772 0h-205l39 315q-87 -22 -184 -22q-207 0 -293 86q-29 29 -45 64t-19 75t-2 64.5t5 60.5l32 272h326l-29 -219q-8 -30 -3.5 -67t30.5 -56q28 -20 96 -20t117 14l43 348h338l-80 -655h152l-66 -526h-287z" />
    <glyph glyph-name="uni04B8" unicode="&#x4b8;" horiz-adv-x="1435" 
d="M889 0l67 551q-62 -16 -129 -16l-30 -246h-230l29 231q-250 0 -363 113q-64 64 -80 147.5t-3 186.5l49 397h346l-41 -338q-5 -45 -5.5 -74.5t9 -62t31.5 -49.5q40 -29 94 -25l37 297h229l-37 -299q59 0 127 14l68 539h346l-168 -1366h-346z" />
    <glyph glyph-name="uni04B9" unicode="&#x4b9;" horiz-adv-x="1183" 
d="M664 0l41 336q-51 -14 -87 -14l-18 -162h-186l20 153h-10q-107 0 -179 17t-120 67q-64 64 -64 176q0 27 11 113l26 229h308l-31 -251q-9 -80 22 -107q25 -21 64 -18l28 231h185l-29 -235q47 0 88 16l43 364h338l-113 -915h-337z" />
    <glyph glyph-name="uni04BA" unicode="&#x4ba;" horiz-adv-x="1372" 
d="M600 1366l-70 -559q148 45 316 45q201 0 313 -72q36 -23 61.5 -50t39 -58t21.5 -59t8.5 -63.5t-1.5 -60.5t-6 -61l-53 -428h-346l43 338q3 36 4.5 67.5t-11.5 61.5t-42 49q-52 35 -160 35q-87 0 -221 -37l-64 -514h-346l168 1366h346z" />
    <glyph glyph-name="uni04BB" unicode="&#x4bb;" horiz-adv-x="1214" 
d="M250 1493h338l-82 -659q86 60 152.5 84t148.5 24q144 0 220.5 -83.5t76.5 -240.5q0 -57 -12 -151l-58 -467h-338l45 367q15 115 15 149q0 146 -123 146q-82 0 -121.5 -51t-54.5 -177l-54 -434h-337z" />
    <glyph glyph-name="uni04C0" unicode="&#x4c0;" horiz-adv-x="632" 
d="M254 1366h346l-168 -1366h-346z" />
    <glyph glyph-name="uni04C1" unicode="&#x4c1;" horiz-adv-x="2021" 
d="M764 0l74 600l-443 -600h-446l577 709l-368 657h409l291 -594l74 594h346l-74 -594l438 594h410l-526 -686l399 -680h-446l-295 600l-74 -600h-346zM1352 1839l221 -98q-46 -124 -158 -191q-98 -59 -262 -59q-176 0 -272 61q-105 67 -148 189l236 98q14 -62 57 -96
q45 -39 133 -39q74 0 125 39q48 39 68 96z" />
    <glyph glyph-name="uni04C2" unicode="&#x4c2;" horiz-adv-x="1636" 
d="M596 0l49 397l-301 -397h-395l409 489l-262 426h367l199 -383l47 383h327l-47 -383l295 383h383l-381 -448l291 -467h-397l-207 397l-49 -397h-328zM1092 1386l223 -79q-33 -116 -135 -185q-97 -61 -250 -61q-172 0 -262 63q-93 66 -127 183l235 79q12 -61 43 -92
q35 -37 107 -37q79 0 118 41q31 31 48 88z" />
    <glyph glyph-name="uni04C3" unicode="&#x4c3;" horiz-adv-x="1353" 
d="M254 1366h346l-76 -588l437 588h376l-419 -555q143 -15 231 -106q92 -92 92 -246q0 -224 -133 -348q-158 -150 -492 -111l33 283q31 -19 72 -19q63 0 102 31q49 42 49 113q0 73 -57 110q-52 35 -141 35q-84 0 -178 -33l-64 -520h-346z" />
    <glyph glyph-name="uni04C4" unicode="&#x4c4;" horiz-adv-x="1073" 
d="M176 915h338l-47 -389l301 389h383l-397 -462q105 -34 170 -115q75 -93 75 -248q0 -227 -141 -362q-151 -146 -428 -154l29 242q77 3 133 49q39 34 59.5 87.5t20.5 110.5q0 95 -60 150q-62 55 -157 55h-19l-33 -268h-337z" />
    <glyph glyph-name="uni04C7" unicode="&#x4c7;" horiz-adv-x="1482" 
d="M1104 1366h346l-172 -1415q-6 -47 -11 -77t-17.5 -83.5t-34.5 -96.5t-52 -73q-31 -31 -69 -50.5t-81.5 -28t-76 -11t-74.5 -2.5q-95 0 -174 20l29 234q30 -12 69 -12q69 0 97 28q32 30 45 127l80 641h-506l-70 -567h-346l168 1366h346l-61 -498h505z" />
    <glyph glyph-name="uni04C8" unicode="&#x4c8;" horiz-adv-x="1216" 
d="M66 0l112 915h338l-39 -309h293l39 309h338l-121 -989q-24 -218 -115 -307q-90 -90 -290 -90q-99 0 -170 18l28 238q27 -14 68 -14q70 0 100 32q32 32 41 123l51 420h-293l-43 -346h-337z" />
    <glyph glyph-name="uni04D0" unicode="&#x4d0;" horiz-adv-x="1423" 
d="M946 229h-487l-105 -229h-385l678 1366h389l330 -1366h-362zM723 805l-137 -305h295l-58 260q-20 92 -30 158q-8 42 -9 49q-24 -75 -61 -162zM1044 1839l222 -98q-46 -124 -158 -191q-98 -59 -262 -59q-177 0 -273 61q-104 66 -147 189l236 98q14 -62 57 -96
q45 -39 133 -39q74 0 125 39q47 38 67 96z" />
    <glyph glyph-name="uni04D1" unicode="&#x4d1;" horiz-adv-x="1253" 
d="M848 915h338l-113 -915h-338l25 100q-78 -71 -147 -99t-164 -28q-173 0 -277 117.5t-104 315.5q0 231 137 383.5t344 152.5q97 0 160 -28t137 -103zM596 238q92 0 152.5 70t60.5 177q0 88 -48.5 139.5t-131.5 51.5q-92 0 -154.5 -71t-62.5 -175q0 -88 49.5 -140
t134.5 -52zM797 1386l223 -79q-33 -116 -135 -185q-97 -61 -250 -61q-172 0 -262 63q-93 66 -127 183l235 79q12 -61 43 -92q35 -37 107 -37q80 0 119 41q30 30 47 88z" />
    <glyph glyph-name="uni04D2" unicode="&#x4d2;" horiz-adv-x="1423" 
d="M946 229h-487l-105 -229h-385l678 1366h389l330 -1366h-362zM723 805l-137 -305h295l-58 260q-20 92 -30 158q-8 42 -9 49q-24 -75 -61 -162zM1040 1817q66 0 115 -49t49 -115q0 -69 -47 -116.5t-115 -47.5q-69 0 -118.5 48.5t-49.5 117.5q0 66 49 114t117 48zM627 1817
q69 0 116.5 -48t47.5 -116q0 -69 -47 -116.5t-115 -47.5q-71 0 -118.5 47.5t-47.5 118.5q0 68 47.5 115t116.5 47z" />
    <glyph glyph-name="uni04D3" unicode="&#x4d3;" horiz-adv-x="1253" 
d="M848 915h338l-113 -915h-338l25 100q-78 -71 -147 -99t-164 -28q-173 0 -277 117.5t-104 315.5q0 231 137 383.5t344 152.5q97 0 160 -28t137 -103zM596 238q92 0 152.5 70t60.5 177q0 88 -48.5 139.5t-131.5 51.5q-92 0 -154.5 -71t-62.5 -175q0 -88 49.5 -140
t134.5 -52zM938 1407q66 0 115 -49t49 -115q0 -69 -47 -116.5t-115 -47.5q-69 0 -118.5 48.5t-49.5 117.5q0 66 49 114t117 48zM524 1407q69 0 116.5 -48t47.5 -116q0 -69 -47 -116.5t-115 -47.5q-70 0 -118 47.5t-48 118.5q0 68 47.5 115t116.5 47z" />
    <glyph glyph-name="uni04D4" unicode="&#x4d4;" horiz-adv-x="1890" 
d="M637 1366h854l76 -301h-434l63 -231h416l76 -302h-412l61 -231h422l74 -301h-764l-57 246h-561l-115 -246h-367zM737 862l-159 -344h372l-90 365q-26 108 -37 190q-62 -159 -86 -211z" />
    <glyph glyph-name="uni04D5" unicode="&#x4d5;" horiz-adv-x="1767" 
d="M1694 403h-684v-10q0 -86 49 -135q47 -47 125 -47q114 0 155 82h326q-32 -144 -158 -232q-129 -88 -321 -88q-135 0 -221 33q-81 33 -131 92q-77 -65 -175 -94q-105 -31 -219 -31q-193 0 -297 95q-86 80 -86 196q0 123 76 199q102 102 301 102q153 0 268 -86q7 35 7 62
q0 95 -47 139q-45 43 -146 43q-124 0 -289 -68l17 240q193 47 329 47q100 0 191 -27q88 -29 145 -92q52 52 131 84q87 35 205 35q196 0 305 -100q144 -130 144 -408v-31zM504 360q-62 0 -103 -24q-41 -25 -41 -66t37 -65q44 -31 117 -31q63 0 104 29q37 26 37 65
q0 43 -47 70q-41 22 -104 22zM1040 594h346q-5 68 -57 104q-42 31 -110 31q-78 0 -125 -39q-42 -33 -54 -96z" />
    <glyph glyph-name="uni04D6" unicode="&#x4d6;" horiz-adv-x="989" 
d="M254 1366h747l-36 -301h-402l-28 -227h389l-37 -299h-389l-29 -238h418l-37 -301h-764zM842 1839l221 -98q-46 -124 -158 -191q-98 -59 -262 -59q-176 0 -272 61q-105 67 -148 189l236 98q14 -62 57 -96q45 -39 133 -39q74 0 125 39q48 39 68 96z" />
    <glyph glyph-name="uni04D7" unicode="&#x4d7;" horiz-adv-x="1148" 
d="M1075 389h-684q0 -113 47 -156q34 -34 105 -34q50 0 86 24q33 22 45 62h368q-34 -100 -100 -166q-79 -81 -186 -113.5t-211 -32.5q-219 0 -350 121q-125 121 -125 324q0 123 42 219t107 160q149 145 391 145q219 0 346 -127q123 -123 123 -348q0 -28 -4 -78zM414 580h319
q-3 67 -47 108q-40 37 -106 37q-72 0 -117 -45q-38 -38 -49 -100zM797 1386l223 -79q-33 -116 -135 -185q-97 -61 -250 -61q-172 0 -262 63q-93 66 -127 183l235 79q12 -61 43 -92q35 -37 107 -37q80 0 119 41q30 30 47 88z" />
    <glyph glyph-name="uni04D8" unicode="&#x4d8;" horiz-adv-x="1603" 
d="M539 905l-359 72q91 196 269 305q176 111 419 111q316 0 496 -172q184 -176 184 -465q0 -180 -64 -335.5t-171 -256.5q-203 -191 -522 -191q-304 0 -488 181q-115 114 -165.5 282t-18.5 346h1071q-6 55 -30.5 110.5t-61.5 90.5q-88 82 -256 82q-109 0 -187 -45
q-72 -40 -116 -115zM1145 528h-686q13 -100 88 -168q87 -79 246 -79q137 0 231 67q87 66 121 180z" />
    <glyph glyph-name="afii10846" unicode="&#x4d9;" horiz-adv-x="1183" 
d="M74 526h692q3 39 -10 78.5t-39 63.5q-39 37 -121 37q-60 0 -102 -29q-34 -24 -54 -66l-315 78q59 116 176 182q128 72 309 72q237 0 369 -127q131 -126 131 -340q0 -219 -137 -360q-140 -142 -385 -142q-237 0 -375 136q-75 73 -112 182.5t-27 234.5zM743 336h-335
q3 -65 41 -103t114 -38q90 0 135 45q39 34 45 96z" />
    <glyph glyph-name="uni04DA" unicode="&#x4da;" horiz-adv-x="1603" 
d="M539 905l-359 72q91 196 269 305q176 111 419 111q316 0 496 -172q184 -176 184 -465q0 -180 -64 -335.5t-171 -256.5q-203 -191 -522 -191q-304 0 -488 181q-115 114 -165.5 282t-18.5 346h1071q-6 55 -30.5 110.5t-61.5 90.5q-88 82 -256 82q-109 0 -187 -45
q-72 -40 -116 -115zM1145 528h-686q13 -100 88 -168q87 -79 246 -79q137 0 231 67q87 66 121 180zM1104 1817q66 0 115 -49t49 -115q0 -69 -47 -116.5t-115 -47.5q-69 0 -118.5 48.5t-49.5 117.5q0 66 49 114t117 48zM690 1817q69 0 116.5 -48t47.5 -116q0 -69 -47 -116.5
t-115 -47.5q-70 0 -118 47.5t-48 118.5q0 68 47.5 115t116.5 47z" />
    <glyph glyph-name="uni04DB" unicode="&#x4db;" horiz-adv-x="1183" 
d="M74 526h692q3 39 -10 78.5t-39 63.5q-39 37 -121 37q-60 0 -102 -29q-34 -24 -54 -66l-315 78q59 116 176 182q128 72 309 72q237 0 369 -127q131 -126 131 -340q0 -219 -137 -360q-140 -142 -385 -142q-237 0 -375 136q-75 73 -112 182.5t-27 234.5zM743 336h-335
q3 -65 41 -103t114 -38q90 0 135 45q39 34 45 96zM825 1407q66 0 115 -49t49 -115q0 -69 -47 -116.5t-115 -47.5q-69 0 -118.5 48.5t-49.5 117.5q0 66 49 114t117 48zM412 1407q69 0 116 -48t47 -116q0 -69 -46.5 -116.5t-114.5 -47.5q-70 0 -118 47.5t-48 118.5
q0 68 47.5 115t116.5 47z" />
    <glyph glyph-name="uni04DC" unicode="&#x4dc;" horiz-adv-x="2021" 
d="M764 0l74 600l-443 -600h-446l577 709l-368 657h409l291 -594l74 594h346l-74 -594l438 594h410l-526 -686l399 -680h-446l-295 600l-74 -600h-346zM1327 1817q66 0 115 -49t49 -115q0 -69 -47 -116.5t-115 -47.5q-69 0 -118.5 48.5t-49.5 117.5q0 66 49 114t117 48z
M913 1817q69 0 116.5 -48t47.5 -116q0 -69 -47 -116.5t-115 -47.5q-70 0 -117.5 47.5t-47.5 118.5q0 68 47 115t116 47z" />
    <glyph glyph-name="uni04DD" unicode="&#x4dd;" horiz-adv-x="1636" 
d="M596 0l49 397l-301 -397h-395l409 489l-262 426h367l199 -383l47 383h327l-47 -383l295 383h383l-381 -448l291 -467h-397l-207 397l-49 -397h-328zM1090 1407q66 0 114.5 -49t48.5 -115q0 -69 -46.5 -116.5t-114.5 -47.5q-69 0 -118.5 48.5t-49.5 117.5q0 66 49 114
t117 48zM676 1407q69 0 116.5 -48t47.5 -116q0 -69 -47 -116.5t-115 -47.5q-70 0 -118 47.5t-48 118.5q0 68 47.5 115t116.5 47z" />
    <glyph glyph-name="uni04DE" unicode="&#x4de;" horiz-adv-x="1191" 
d="M319 991l-116 254q99 62 194 98q134 50 281 50q235 0 352 -117q90 -90 90 -232q0 -123 -71 -221q-63 -84 -158 -112l-2 -6q82 -20 141 -76q78 -75 78 -199q0 -183 -119 -305q-84 -88 -194 -120t-244 -32q-165 0 -309 66q-110 52 -232 147l187 250q79 -71 145 -110
q96 -54 203 -54q95 0 151 50q43 40 43 102q0 68 -63 102q-50 27 -174 27h-111l35 274h88q152 0 213 50q51 41 51 108q0 56 -41 88q-41 33 -135 33q-88 0 -158 -35q-52 -24 -125 -80zM895 1817q66 0 115 -49t49 -115q0 -69 -47 -116.5t-115 -47.5q-69 0 -118.5 48.5
t-49.5 117.5q0 66 49 114t117 48zM481 1817q69 0 116.5 -48t47.5 -116q0 -69 -47 -116.5t-115 -47.5q-71 0 -118.5 47.5t-47.5 118.5q0 68 47.5 115t116.5 47z" />
    <glyph glyph-name="uni04DF" unicode="&#x4df;" horiz-adv-x="999" 
d="M186 610l-77 230q81 45 180 73q116 33 246 33q176 0 272 -57q121 -70 121 -205q0 -87 -60 -147q-48 -45 -110 -62v-4q68 -15 106 -53q56 -56 56 -137q0 -68 -32.5 -130.5t-96.5 -103.5q-110 -74 -318 -74q-148 0 -280 45q-108 39 -189 95l119 225q77 -56 137 -78
q79 -33 170 -33q62 0 96 15q21 9 33 25t12 32q0 19 -11.5 31.5t-22 16t-21.5 5.5q-41 8 -102 8h-95l27 213h84q76 0 115 11q55 15 55 59q0 35 -41 49q-31 13 -94 13q-72 0 -154 -29q-75 -29 -125 -66zM743 1407q66 0 115 -49t49 -115q0 -69 -47 -116.5t-115 -47.5
q-69 0 -118 48.5t-49 117.5q0 66 49 114t116 48zM330 1407q69 0 116.5 -48t47.5 -116q0 -69 -47 -116.5t-115 -47.5q-70 0 -118 47.5t-48 118.5q0 68 47.5 115t116.5 47z" />
    <glyph glyph-name="uni04E2" unicode="&#x4e2;" horiz-adv-x="1497" 
d="M254 1366h346l-104 -844l632 844h336l-168 -1366h-346l105 844l-637 -844h-332zM469 1534l25 201h770l-25 -201h-770z" />
    <glyph glyph-name="uni04E3" unicode="&#x4e3;" horiz-adv-x="1224" 
d="M178 915h338l-59 -471l403 471h295l-113 -915h-337l59 483l-399 -483h-299zM258 1104l25 201h811l-25 -201h-811z" />
    <glyph glyph-name="uni04E4" unicode="&#x4e4;" horiz-adv-x="1497" 
d="M254 1366h346l-104 -844l632 844h336l-168 -1366h-346l105 844l-637 -844h-332zM1081 1817q66 0 115 -49t49 -115q0 -69 -47 -116.5t-115 -47.5q-69 0 -118.5 48.5t-49.5 117.5q0 66 49 114t117 48zM668 1817q69 0 116 -48t47 -116q0 -69 -46.5 -116.5t-114.5 -47.5
q-70 0 -118 47.5t-48 118.5q0 68 47.5 115t116.5 47z" />
    <glyph glyph-name="uni04E5" unicode="&#x4e5;" horiz-adv-x="1224" 
d="M178 915h338l-59 -471l403 471h295l-113 -915h-337l59 483l-399 -483h-299zM897 1407q66 0 115 -49t49 -115q0 -69 -47 -116.5t-115 -47.5q-69 0 -118.5 48.5t-49.5 117.5q0 66 49 114t117 48zM483 1407q69 0 116.5 -48t47.5 -116q0 -69 -47 -116.5t-115 -47.5
q-71 0 -118.5 47.5t-47.5 118.5q0 68 47.5 115t116.5 47z" />
    <glyph glyph-name="uni04E6" unicode="&#x4e6;" horiz-adv-x="1648" 
d="M879 1393q324 0 526 -197q188 -185 188 -471q0 -87 -16 -168.5t-38 -138t-52.5 -108t-52.5 -79t-45 -51.5q-203 -207 -537 -207q-178 0 -321.5 56.5t-239.5 154.5q-86 88 -135.5 211t-49.5 269q0 152 52 281.5t143 223.5q102 105 250.5 164.5t327.5 59.5zM864 1065
q-83 0 -160 -29.5t-129 -81.5q-51 -51 -82.5 -125t-31.5 -153q0 -72 24.5 -141.5t67.5 -116.5q46 -51 120.5 -84t170.5 -33q185 0 286 109q107 111 107 282q0 162 -94 260q-51 53 -125.5 83t-153.5 30zM1081 1817q66 0 115 -49t49 -115q0 -69 -47 -116.5t-115 -47.5
q-69 0 -118.5 48.5t-49.5 117.5q0 66 49 114t117 48zM668 1817q69 0 116 -48t47 -116q0 -69 -46.5 -116.5t-114.5 -47.5q-70 0 -118 47.5t-48 118.5q0 68 47.5 115t116.5 47z" />
    <glyph glyph-name="uni04E7" unicode="&#x4e7;" horiz-adv-x="1234" 
d="M631 942q260 0 403 -143q127 -124 127 -326q0 -208 -133 -344q-152 -156 -407 -156q-133 0 -241 41.5t-179 112.5q-129 129 -129 328q0 197 137 331q161 156 422 156zM602 238q90 0 146 59q69 69 69 188q0 97 -55 146q-52 45 -127 45q-88 0 -150 -64q-69 -72 -69 -182
q0 -84 51 -139q53 -53 135 -53zM877 1407q66 0 114.5 -49t48.5 -115q0 -69 -46.5 -116.5t-114.5 -47.5q-69 0 -118.5 48.5t-49.5 117.5q0 66 49 114t117 48zM463 1407q69 0 116.5 -48t47.5 -116q0 -69 -47 -116.5t-115 -47.5q-71 0 -118.5 47.5t-47.5 118.5q0 68 47.5 115
t116.5 47z" />
    <glyph glyph-name="uni04E8" unicode="&#x4e8;" horiz-adv-x="1648" 
d="M879 1393q324 0 526 -197q188 -185 188 -471q0 -87 -16 -168.5t-38 -138t-52.5 -108t-52.5 -79t-45 -51.5q-203 -207 -537 -207q-178 0 -321.5 56.5t-239.5 154.5q-86 88 -135.5 211t-49.5 269q0 152 52 281.5t143 223.5q102 105 250.5 164.5t327.5 59.5zM494 829h723
q-36 109 -136 175q-92 61 -219 61q-137 0 -237 -70q-84 -58 -131 -166zM1221 571h-746q23 -114 109 -184q102 -86 278 -86q140 0 246 88q87 76 113 182z" />
    <glyph glyph-name="uni04E9" unicode="&#x4e9;" horiz-adv-x="1234" 
d="M631 942q260 0 403 -143q127 -124 127 -326q0 -208 -133 -344q-152 -156 -407 -156q-133 0 -241 41.5t-179 112.5q-129 129 -129 328q0 197 137 331q161 156 422 156zM440 545h371q-14 59 -59 94q-47 37 -117 37q-71 0 -121 -35q-51 -37 -74 -96zM807 399h-389
q9 -68 53 -112q49 -49 135 -49q71 0 125 45q54 43 76 116z" />
    <glyph glyph-name="uni04EA" unicode="&#x4ea;" horiz-adv-x="1648" 
d="M879 1393q324 0 526 -197q188 -185 188 -471q0 -87 -16 -168.5t-38 -138t-52.5 -108t-52.5 -79t-45 -51.5q-203 -207 -537 -207q-178 0 -321.5 56.5t-239.5 154.5q-86 88 -135.5 211t-49.5 269q0 152 52 281.5t143 223.5q102 105 250.5 164.5t327.5 59.5zM494 829h723
q-36 109 -136 175q-92 61 -219 61q-137 0 -237 -70q-84 -58 -131 -166zM1221 571h-746q23 -114 109 -184q102 -86 278 -86q140 0 246 88q87 76 113 182zM1081 1817q66 0 115 -49t49 -115q0 -69 -47 -116.5t-115 -47.5q-69 0 -118.5 48.5t-49.5 117.5q0 66 49 114t117 48z
M668 1817q69 0 116 -48t47 -116q0 -69 -46.5 -116.5t-114.5 -47.5q-70 0 -118 47.5t-48 118.5q0 68 47.5 115t116.5 47z" />
    <glyph glyph-name="uni04EB" unicode="&#x4eb;" horiz-adv-x="1234" 
d="M631 942q260 0 403 -143q127 -124 127 -326q0 -208 -133 -344q-152 -156 -407 -156q-133 0 -241 41.5t-179 112.5q-129 129 -129 328q0 197 137 331q161 156 422 156zM440 545h371q-14 59 -59 94q-47 37 -117 37q-71 0 -121 -35q-51 -37 -74 -96zM807 399h-389
q9 -68 53 -112q49 -49 135 -49q71 0 125 45q54 43 76 116zM877 1407q66 0 114.5 -49t48.5 -115q0 -69 -46.5 -116.5t-114.5 -47.5q-69 0 -118.5 48.5t-49.5 117.5q0 66 49 114t117 48zM463 1407q69 0 116.5 -48t47.5 -116q0 -69 -47 -116.5t-115 -47.5q-71 0 -118.5 47.5
t-47.5 118.5q0 68 47.5 115t116.5 47z" />
    <glyph glyph-name="uni04EE" unicode="&#x4ee;" horiz-adv-x="1314" 
d="M92 1366h373l258 -612l301 612h399l-782 -1366h-375l242 410zM336 1534l24 201h770l-24 -201h-770z" />
    <glyph glyph-name="uni04EF" unicode="&#x4ef;" horiz-adv-x="1204" 
d="M874 915h386l-857 -1384h-378l327 541l-323 843h374l99 -247q46 -114 76 -262q48 105 120 221zM242 1104l24 201h811l-24 -201h-811z" />
    <glyph glyph-name="uni04F0" unicode="&#x4f0;" horiz-adv-x="1314" 
d="M92 1366h373l258 -612l301 612h399l-782 -1366h-375l242 410zM946 1817q66 0 115 -49t49 -115q0 -69 -47 -116.5t-115 -47.5q-69 0 -118.5 48.5t-49.5 117.5q0 66 49 114t117 48zM532 1817q69 0 116.5 -48t47.5 -116q0 -69 -46.5 -116.5t-114.5 -47.5q-71 0 -118.5 47.5
t-47.5 118.5q0 68 47 115t116 47z" />
    <glyph glyph-name="uni04F1" unicode="&#x4f1;" horiz-adv-x="1204" 
d="M874 915h386l-857 -1384h-378l327 541l-323 843h374l99 -247q46 -114 76 -262q48 105 120 221zM877 1407q66 0 114.5 -49t48.5 -115q0 -69 -46.5 -116.5t-114.5 -47.5q-69 0 -118.5 48.5t-49.5 117.5q0 66 49 114t117 48zM463 1407q69 0 116.5 -48t47.5 -116
q0 -69 -47 -116.5t-115 -47.5q-71 0 -118.5 47.5t-47.5 118.5q0 68 47.5 115t116.5 47z" />
    <glyph glyph-name="uni04F2" unicode="&#x4f2;" horiz-adv-x="1314" 
d="M92 1366h373l258 -612l301 612h399l-782 -1366h-375l242 410zM518 1839h309l-239 -350h-205zM928 1839h309l-240 -350h-202z" />
    <glyph glyph-name="uni04F3" unicode="&#x4f3;" horiz-adv-x="1204" 
d="M874 915h386l-857 -1384h-378l327 541l-323 843h374l99 -247q46 -114 76 -262q48 105 120 221zM467 1430h309l-239 -351h-205zM877 1430h309l-240 -351h-203z" />
    <glyph glyph-name="uni04F4" unicode="&#x4f4;" horiz-adv-x="1335" 
d="M788 0l66 537q-126 -21 -233 -21q-236 0 -353 82q-125 90 -125 272q0 28 3 58.5t9 71t9 63.5l37 303h346l-37 -287q-10 -74 -10 -102q0 -160 229 -160q88 0 162 14l65 535h347l-168 -1366h-347zM987 1817q66 0 115 -49t49 -115q0 -69 -47 -116.5t-115 -47.5
q-69 0 -118.5 48.5t-49.5 117.5q0 66 49 114t117 48zM573 1817q69 0 116.5 -48t47.5 -116q0 -69 -47 -116.5t-115 -47.5q-70 0 -117.5 47.5t-47.5 118.5q0 68 47 115t116 47z" />
    <glyph glyph-name="uni04F5" unicode="&#x4f5;" horiz-adv-x="1087" 
d="M567 0l39 315q-87 -22 -184 -22q-207 0 -293 86q-29 29 -45 64t-19 75t-2 64.5t5 60.5l32 272h326l-29 -219q-8 -30 -3.5 -67t30.5 -56q28 -20 96 -20t117 14l43 348h338l-113 -915h-338zM795 1407q66 0 114.5 -49t48.5 -115q0 -69 -46.5 -116.5t-114.5 -47.5
q-69 0 -118.5 48.5t-49.5 117.5q0 66 49 114t117 48zM381 1407q69 0 116.5 -48t47.5 -116q0 -69 -47 -116.5t-115 -47.5q-71 0 -118.5 47.5t-47.5 118.5q0 68 47.5 115t116.5 47z" />
    <glyph glyph-name="uni04F8" unicode="&#x4f8;" horiz-adv-x="1763" 
d="M1217 0l167 1366h347l-168 -1366h-346zM86 0l168 1366h346l-65 -537h178q236 0 346 -110q98 -98 98 -256q0 -205 -119 -324q-81 -81 -201.5 -110t-277.5 -29h-473zM467 272h117q124 0 170 31q57 39 57 135q0 57 -29 86q-33 33 -157 33h-123zM1225 1817q66 0 115 -49
t49 -115q0 -69 -47 -116.5t-115 -47.5q-69 0 -118.5 48.5t-49.5 117.5q0 66 49 114t117 48zM811 1817q69 0 116.5 -48t47.5 -116q0 -69 -47 -116.5t-115 -47.5q-71 0 -118.5 47.5t-47.5 118.5q0 68 47.5 115t116.5 47z" />
    <glyph glyph-name="uni04F9" unicode="&#x4f9;" horiz-adv-x="1568" 
d="M1161 915h338l-113 -915h-337zM479 610h172q56 0 94 -3.5t91 -23t90 -55.5q78 -74 78 -196q0 -66 -24 -128.5t-65 -103.5q-49 -49 -125 -74.5t-153 -25.5h-571l110 915h340zM430 213h100q74 0 107 29q31 28 31 77q0 44 -31 62q-21 16 -113 16h-71zM1051 1407
q66 0 114.5 -49t48.5 -115q0 -69 -46.5 -116.5t-114.5 -47.5q-69 0 -118.5 48.5t-49.5 117.5q0 66 49 114t117 48zM637 1407q69 0 116.5 -48t47.5 -116q0 -69 -47 -116.5t-115 -47.5q-71 0 -118.5 47.5t-47.5 118.5q0 68 47.5 115t116.5 47z" />
    <glyph glyph-name="uni1E9E" unicode="&#x1e9e;" horiz-adv-x="1280" 
d="M555 934l-115 -934h-354l107 864q31 264 174 398q142 135 378 135q183 0 299 -86q97 -73 132 -187q12 -42 16 -127l-219 -225q44 -12 88.5 -39.5t73.5 -60.5q60 -72 63 -185q0 -120 -39.5 -217t-132.5 -178q-142 -124 -479 -119l33 277q125 -3 190 51q68 58 68 160
q-3 83 -58 123q-47 35 -153 39l16 141l188 201q5 23 5 51q0 45 -33 78q-30 30 -86 30t-99 -37q-50 -45 -63 -153z" />
    <glyph glyph-name="uni2010" unicode="&#x2010;" horiz-adv-x="722" 
d="M92 414l33 272h518l-33 -272h-518z" />
    <glyph glyph-name="uni2011" unicode="&#x2011;" horiz-adv-x="722" 
d="M92 414l33 272h518l-33 -272h-518z" />
    <glyph glyph-name="figuredash" unicode="&#x2012;" horiz-adv-x="1175" 
d="M131 563l35 271h889l-35 -271h-889z" />
    <glyph glyph-name="endash" unicode="&#x2013;" horiz-adv-x="1175" 
d="M131 408l35 270h889l-35 -270h-889z" />
    <glyph glyph-name="emdash" unicode="&#x2014;" horiz-adv-x="1857" 
d="M131 408l35 270h1571l-35 -270h-1571z" />
    <glyph glyph-name="afii00208" unicode="&#x2015;" horiz-adv-x="1857" 
d="M131 408l35 270h1571l-35 -270h-1571z" />
    <glyph glyph-name="quoteleft" unicode="&#x2018;" horiz-adv-x="638" 
d="M406 784h-281l334 582h225z" />
    <glyph glyph-name="quoteright" unicode="&#x2019;" horiz-adv-x="638" 
d="M401 1366h283l-336 -582h-223z" />
    <glyph glyph-name="quotesinglbase" unicode="&#x201a;" horiz-adv-x="700" 
d="M285 342h313l-373 -647h-250z" />
    <glyph glyph-name="quotedblleft" unicode="&#x201c;" horiz-adv-x="1075" 
d="M844 784h-283l336 582h223zM406 784h-281l334 582h225z" />
    <glyph glyph-name="quotedblright" unicode="&#x201d;" horiz-adv-x="1085" 
d="M848 1366h282l-344 -602h-225zM412 1366h282l-344 -602h-225z" />
    <glyph glyph-name="quotedblbase" unicode="&#x201e;" horiz-adv-x="1103" 
d="M719 342h282l-366 -647h-223zM283 342h282l-366 -647h-224z" />
    <glyph glyph-name="dagger" unicode="&#x2020;" horiz-adv-x="1259" 
d="M561 1087l51 406h301l-51 -406h322l-31 -260h-322l-149 -1212h-301l149 1212h-319l31 260h319z" />
    <glyph glyph-name="daggerdbl" unicode="&#x2021;" horiz-adv-x="1263" 
d="M569 1087l52 406h301l-52 -406h318l-31 -260h-317l-56 -442h318l-33 -260h-317l-62 -510h-301l62 510h-320l33 260h319l56 442h-320l31 260h319z" />
    <glyph glyph-name="bullet" unicode="&#x2022;" horiz-adv-x="2048" 
d="M770 696q0 119 82 203t199 84t200.5 -84.5t83.5 -202.5t-83.5 -202t-200.5 -84t-199 83.5t-82 202.5z" />
    <glyph glyph-name="ellipsis" unicode="&#x2026;" horiz-adv-x="1832" 
d="M266 389q89 0 151 -59.5t62 -145.5q0 -89 -59.5 -150t-145.5 -61t-148.5 62t-62.5 147q0 86 59.5 146.5t143.5 60.5zM879 389q88 0 149.5 -59.5t61.5 -145.5q0 -89 -59.5 -150t-145.5 -61t-147.5 62t-61.5 147q0 86 59 146.5t144 60.5zM1489 389q89 0 150 -59.5
t61 -145.5q0 -89 -59.5 -150t-145.5 -61q-85 0 -147 62t-62 147q0 86 59.5 146.5t143.5 60.5z" />
    <glyph glyph-name="perthousand" unicode="&#x2030;" horiz-adv-x="2639" 
d="M1323 1366h180l-960 -1366h-181zM1329 -16q-162 0 -254 90q-92 92 -92 217q0 67 28.5 137t82.5 123q107 102 278 102q172 0 264 -92q84 -80 84 -209q0 -150 -100 -254q-111 -114 -291 -114zM1366 473q-68 0 -113 -45q-49 -46 -49 -123q0 -61 39 -100t100 -39q64 0 109 45
q47 47 47 123q0 63 -39 102q-37 37 -94 37zM506 1200q-68 0 -113 -45q-49 -46 -49 -123q0 -61 39 -100t100 -39q64 0 109 45q47 47 47 123q0 63 -39 102q-37 37 -94 37zM469 711q-162 0 -254 90q-92 92 -92 217q0 67 28 137t82 123q107 102 279 102t264 -92q84 -80 84 -209
q0 -150 -100 -254q-111 -114 -291 -114zM2214 473q-68 0 -113 -45q-49 -46 -49 -123q0 -61 39 -100t100 -39q64 0 109 45q47 47 47 123q0 63 -39 102q-37 37 -94 37zM2177 -16q-162 0 -254 90q-92 92 -92 217q0 67 28.5 137t82.5 123q107 102 278 102q172 0 264 -92
q84 -80 84 -209q0 -150 -100 -254q-111 -114 -291 -114z" />
    <glyph glyph-name="guilsinglleft" unicode="&#x2039;" horiz-adv-x="681" 
d="M608 776l-260 -327l184 -312l-198 -117l-256 447l366 444z" />
    <glyph glyph-name="guilsinglright" unicode="&#x203a;" horiz-adv-x="681" 
d="M80 160l272 315l-188 320l196 116l256 -444l-366 -447z" />
    <glyph glyph-name="fraction" unicode="&#x2044;" horiz-adv-x="534" 
d="M657 1366h185l-965 -1366h-184z" />
    <glyph glyph-name="Euro" unicode="&#x20ac;" horiz-adv-x="1228" 
d="M1120 389l-41 -342q-152 -78 -342 -78q-263 0 -422 127q-161 129 -184 344h-160l97 185h61q3 60 14 102h-135l96 184h89q42 125 113.5 212t146.5 139q192 133 462 133q222 0 379 -90l-155 -299q-124 77 -279 77q-112 0 -194 -45q-83 -48 -117 -127h549l-97 -184h-512
q-12 -53 -12 -102h469l-96 -185h-350q22 -74 100 -118q75 -41 191 -41q196 0 329 108z" />
    <glyph glyph-name="uni20B4" unicode="&#x20b4;" horiz-adv-x="1228" 
d="M377 1020l-105 260q231 117 510 117q193 0 283 -68q92 -73 92 -194q0 -123 -86 -209h141l-22 -199h-309l-152 -129h445l-25 -199h-594q-39 -30 -39 -77q0 -37 29 -60q30 -24 108 -24q83 0 159 15t173 60l111 -241q-120 -57 -260.5 -86t-270.5 -29q-233 0 -332 68
q-100 73 -100 192q0 107 68 182h-123l24 199h267l151 129h-401l22 199h572q45 36 45 92q0 46 -31 69q-31 25 -98 25q-128 0 -252 -92z" />
    <glyph glyph-name="uni20B6" unicode="&#x20b6;" horiz-adv-x="1228" 
d="M334 1366h438q264 0 381 -117q104 -104 104 -297q0 -184 -102 -293q-135 -147 -453 -147h-127l-16 -129h369l-25 -199h-368l-23 -184h-346l22 184h-168l25 199h168l16 129h-168l27 225h168zM721 1079h-76l-41 -340h88q119 0 170 58q39 46 39 121q0 79 -35 116
q-19 22 -48 32.5t-45.5 11.5t-51.5 1z" />
    <glyph glyph-name="uni20B6" unicode="&#x20cf;" horiz-adv-x="1228" 
d="M334 1366h438q264 0 381 -117q104 -104 104 -297q0 -184 -102 -293q-135 -147 -453 -147h-127l-16 -129h369l-25 -199h-368l-23 -184h-346l22 184h-168l25 199h168l16 129h-168l27 225h168zM721 1079h-76l-41 -340h88q119 0 170 58q39 46 39 121q0 79 -35 116
q-19 22 -48 32.5t-45.5 11.5t-51.5 1z" />
    <glyph glyph-name="uni20B6" unicode="&#x20ce;" horiz-adv-x="1228" 
d="M334 1366h438q264 0 381 -117q104 -104 104 -297q0 -184 -102 -293q-135 -147 -453 -147h-127l-16 -129h369l-25 -199h-368l-23 -184h-346l22 184h-168l25 199h168l16 129h-168l27 225h168zM721 1079h-76l-41 -340h88q119 0 170 58q39 46 39 121q0 79 -35 116
q-19 22 -48 32.5t-45.5 11.5t-51.5 1z" />
    <glyph glyph-name="uni20B6" unicode="&#x20cd;" horiz-adv-x="1228" 
d="M334 1366h438q264 0 381 -117q104 -104 104 -297q0 -184 -102 -293q-135 -147 -453 -147h-127l-16 -129h369l-25 -199h-368l-23 -184h-346l22 184h-168l25 199h168l16 129h-168l27 225h168zM721 1079h-76l-41 -340h88q119 0 170 58q39 46 39 121q0 79 -35 116
q-19 22 -48 32.5t-45.5 11.5t-51.5 1z" />
    <glyph glyph-name="uni20B6" unicode="&#x20cc;" horiz-adv-x="1228" 
d="M334 1366h438q264 0 381 -117q104 -104 104 -297q0 -184 -102 -293q-135 -147 -453 -147h-127l-16 -129h369l-25 -199h-368l-23 -184h-346l22 184h-168l25 199h168l16 129h-168l27 225h168zM721 1079h-76l-41 -340h88q119 0 170 58q39 46 39 121q0 79 -35 116
q-19 22 -48 32.5t-45.5 11.5t-51.5 1z" />
    <glyph glyph-name="uni20B6" unicode="&#x20cb;" horiz-adv-x="1228" 
d="M334 1366h438q264 0 381 -117q104 -104 104 -297q0 -184 -102 -293q-135 -147 -453 -147h-127l-16 -129h369l-25 -199h-368l-23 -184h-346l22 184h-168l25 199h168l16 129h-168l27 225h168zM721 1079h-76l-41 -340h88q119 0 170 58q39 46 39 121q0 79 -35 116
q-19 22 -48 32.5t-45.5 11.5t-51.5 1z" />
    <glyph glyph-name="uni20B6" unicode="&#x20ca;" horiz-adv-x="1228" 
d="M334 1366h438q264 0 381 -117q104 -104 104 -297q0 -184 -102 -293q-135 -147 -453 -147h-127l-16 -129h369l-25 -199h-368l-23 -184h-346l22 184h-168l25 199h168l16 129h-168l27 225h168zM721 1079h-76l-41 -340h88q119 0 170 58q39 46 39 121q0 79 -35 116
q-19 22 -48 32.5t-45.5 11.5t-51.5 1z" />
    <glyph glyph-name="uni20B6" unicode="&#x20c9;" horiz-adv-x="1228" 
d="M334 1366h438q264 0 381 -117q104 -104 104 -297q0 -184 -102 -293q-135 -147 -453 -147h-127l-16 -129h369l-25 -199h-368l-23 -184h-346l22 184h-168l25 199h168l16 129h-168l27 225h168zM721 1079h-76l-41 -340h88q119 0 170 58q39 46 39 121q0 79 -35 116
q-19 22 -48 32.5t-45.5 11.5t-51.5 1z" />
    <glyph glyph-name="uni20B6" unicode="&#x20c8;" horiz-adv-x="1228" 
d="M334 1366h438q264 0 381 -117q104 -104 104 -297q0 -184 -102 -293q-135 -147 -453 -147h-127l-16 -129h369l-25 -199h-368l-23 -184h-346l22 184h-168l25 199h168l16 129h-168l27 225h168zM721 1079h-76l-41 -340h88q119 0 170 58q39 46 39 121q0 79 -35 116
q-19 22 -48 32.5t-45.5 11.5t-51.5 1z" />
    <glyph glyph-name="uni20B6" unicode="&#x20c7;" horiz-adv-x="1228" 
d="M334 1366h438q264 0 381 -117q104 -104 104 -297q0 -184 -102 -293q-135 -147 -453 -147h-127l-16 -129h369l-25 -199h-368l-23 -184h-346l22 184h-168l25 199h168l16 129h-168l27 225h168zM721 1079h-76l-41 -340h88q119 0 170 58q39 46 39 121q0 79 -35 116
q-19 22 -48 32.5t-45.5 11.5t-51.5 1z" />
    <glyph glyph-name="uni20B6" unicode="&#x20c6;" horiz-adv-x="1228" 
d="M334 1366h438q264 0 381 -117q104 -104 104 -297q0 -184 -102 -293q-135 -147 -453 -147h-127l-16 -129h369l-25 -199h-368l-23 -184h-346l22 184h-168l25 199h168l16 129h-168l27 225h168zM721 1079h-76l-41 -340h88q119 0 170 58q39 46 39 121q0 79 -35 116
q-19 22 -48 32.5t-45.5 11.5t-51.5 1z" />
    <glyph glyph-name="uni20B6" unicode="&#x20c5;" horiz-adv-x="1228" 
d="M334 1366h438q264 0 381 -117q104 -104 104 -297q0 -184 -102 -293q-135 -147 -453 -147h-127l-16 -129h369l-25 -199h-368l-23 -184h-346l22 184h-168l25 199h168l16 129h-168l27 225h168zM721 1079h-76l-41 -340h88q119 0 170 58q39 46 39 121q0 79 -35 116
q-19 22 -48 32.5t-45.5 11.5t-51.5 1z" />
    <glyph glyph-name="uni20B6" unicode="&#x20c4;" horiz-adv-x="1228" 
d="M334 1366h438q264 0 381 -117q104 -104 104 -297q0 -184 -102 -293q-135 -147 -453 -147h-127l-16 -129h369l-25 -199h-368l-23 -184h-346l22 184h-168l25 199h168l16 129h-168l27 225h168zM721 1079h-76l-41 -340h88q119 0 170 58q39 46 39 121q0 79 -35 116
q-19 22 -48 32.5t-45.5 11.5t-51.5 1z" />
    <glyph glyph-name="uni20B6" unicode="&#x20c3;" horiz-adv-x="1228" 
d="M334 1366h438q264 0 381 -117q104 -104 104 -297q0 -184 -102 -293q-135 -147 -453 -147h-127l-16 -129h369l-25 -199h-368l-23 -184h-346l22 184h-168l25 199h168l16 129h-168l27 225h168zM721 1079h-76l-41 -340h88q119 0 170 58q39 46 39 121q0 79 -35 116
q-19 22 -48 32.5t-45.5 11.5t-51.5 1z" />
    <glyph glyph-name="uni20B6" unicode="&#x20c2;" horiz-adv-x="1228" 
d="M334 1366h438q264 0 381 -117q104 -104 104 -297q0 -184 -102 -293q-135 -147 -453 -147h-127l-16 -129h369l-25 -199h-368l-23 -184h-346l22 184h-168l25 199h168l16 129h-168l27 225h168zM721 1079h-76l-41 -340h88q119 0 170 58q39 46 39 121q0 79 -35 116
q-19 22 -48 32.5t-45.5 11.5t-51.5 1z" />
    <glyph glyph-name="uni20B6" unicode="&#x20c1;" horiz-adv-x="1228" 
d="M334 1366h438q264 0 381 -117q104 -104 104 -297q0 -184 -102 -293q-135 -147 -453 -147h-127l-16 -129h369l-25 -199h-368l-23 -184h-346l22 184h-168l25 199h168l16 129h-168l27 225h168zM721 1079h-76l-41 -340h88q119 0 170 58q39 46 39 121q0 79 -35 116
q-19 22 -48 32.5t-45.5 11.5t-51.5 1z" />
    <glyph glyph-name="uni20B6" unicode="&#x20c0;" horiz-adv-x="1228" 
d="M334 1366h438q264 0 381 -117q104 -104 104 -297q0 -184 -102 -293q-135 -147 -453 -147h-127l-16 -129h369l-25 -199h-368l-23 -184h-346l22 184h-168l25 199h168l16 129h-168l27 225h168zM721 1079h-76l-41 -340h88q119 0 170 58q39 46 39 121q0 79 -35 116
q-19 22 -48 32.5t-45.5 11.5t-51.5 1z" />
    <glyph glyph-name="uni20B6" unicode="&#x20bf;" horiz-adv-x="1228" 
d="M334 1366h438q264 0 381 -117q104 -104 104 -297q0 -184 -102 -293q-135 -147 -453 -147h-127l-16 -129h369l-25 -199h-368l-23 -184h-346l22 184h-168l25 199h168l16 129h-168l27 225h168zM721 1079h-76l-41 -340h88q119 0 170 58q39 46 39 121q0 79 -35 116
q-19 22 -48 32.5t-45.5 11.5t-51.5 1z" />
    <glyph glyph-name="uni20B6" unicode="&#x20be;" horiz-adv-x="1228" 
d="M334 1366h438q264 0 381 -117q104 -104 104 -297q0 -184 -102 -293q-135 -147 -453 -147h-127l-16 -129h369l-25 -199h-368l-23 -184h-346l22 184h-168l25 199h168l16 129h-168l27 225h168zM721 1079h-76l-41 -340h88q119 0 170 58q39 46 39 121q0 79 -35 116
q-19 22 -48 32.5t-45.5 11.5t-51.5 1z" />
    <glyph glyph-name="uni20B6" unicode="&#x20bd;" horiz-adv-x="1228" 
d="M334 1366h438q264 0 381 -117q104 -104 104 -297q0 -184 -102 -293q-135 -147 -453 -147h-127l-16 -129h369l-25 -199h-368l-23 -184h-346l22 184h-168l25 199h168l16 129h-168l27 225h168zM721 1079h-76l-41 -340h88q119 0 170 58q39 46 39 121q0 79 -35 116
q-19 22 -48 32.5t-45.5 11.5t-51.5 1z" />
    <glyph glyph-name="uni20B6" unicode="&#x20bc;" horiz-adv-x="1228" 
d="M334 1366h438q264 0 381 -117q104 -104 104 -297q0 -184 -102 -293q-135 -147 -453 -147h-127l-16 -129h369l-25 -199h-368l-23 -184h-346l22 184h-168l25 199h168l16 129h-168l27 225h168zM721 1079h-76l-41 -340h88q119 0 170 58q39 46 39 121q0 79 -35 116
q-19 22 -48 32.5t-45.5 11.5t-51.5 1z" />
    <glyph glyph-name="uni20B6" unicode="&#x20bb;" horiz-adv-x="1228" 
d="M334 1366h438q264 0 381 -117q104 -104 104 -297q0 -184 -102 -293q-135 -147 -453 -147h-127l-16 -129h369l-25 -199h-368l-23 -184h-346l22 184h-168l25 199h168l16 129h-168l27 225h168zM721 1079h-76l-41 -340h88q119 0 170 58q39 46 39 121q0 79 -35 116
q-19 22 -48 32.5t-45.5 11.5t-51.5 1z" />
    <glyph glyph-name="uni20B6" unicode="&#x20ba;" horiz-adv-x="1228" 
d="M334 1366h438q264 0 381 -117q104 -104 104 -297q0 -184 -102 -293q-135 -147 -453 -147h-127l-16 -129h369l-25 -199h-368l-23 -184h-346l22 184h-168l25 199h168l16 129h-168l27 225h168zM721 1079h-76l-41 -340h88q119 0 170 58q39 46 39 121q0 79 -35 116
q-19 22 -48 32.5t-45.5 11.5t-51.5 1z" />
    <glyph glyph-name="uni20B6" unicode="&#x20b9;" horiz-adv-x="1228" 
d="M334 1366h438q264 0 381 -117q104 -104 104 -297q0 -184 -102 -293q-135 -147 -453 -147h-127l-16 -129h369l-25 -199h-368l-23 -184h-346l22 184h-168l25 199h168l16 129h-168l27 225h168zM721 1079h-76l-41 -340h88q119 0 170 58q39 46 39 121q0 79 -35 116
q-19 22 -48 32.5t-45.5 11.5t-51.5 1z" />
    <glyph glyph-name="uni20B6" unicode="&#x20b7;" horiz-adv-x="1228" 
d="M334 1366h438q264 0 381 -117q104 -104 104 -297q0 -184 -102 -293q-135 -147 -453 -147h-127l-16 -129h369l-25 -199h-368l-23 -184h-346l22 184h-168l25 199h168l16 129h-168l27 225h168zM721 1079h-76l-41 -340h88q119 0 170 58q39 46 39 121q0 79 -35 116
q-19 22 -48 32.5t-45.5 11.5t-51.5 1z" />
    <glyph glyph-name="uni20B8" unicode="&#x20b8;" horiz-adv-x="1228" 
d="M1106 778h-287l-98 -778h-344l96 778h-293l35 281h926zM1149 1147h-926l29 219h926z" />
    <glyph glyph-name="afii61352" unicode="&#x2116;" horiz-adv-x="2410" 
d="M1255 1366h347l-168 -1366h-379l-363 612q-105 177 -168 338q0 -209 -14 -319l-78 -631h-346l168 1366h373l389 -659q27 -47 139 -267q4 138 16 234zM2068 1366q92 0 164.5 -29t118.5 -77q80 -83 80 -203q0 -136 -92 -232q-102 -106 -279 -106q-181 0 -291 110
q-83 83 -83 205q0 63 24 122t64 99q51 52 128.5 81.5t165.5 29.5zM1655 588h723l-25 -195h-723zM2054 901q64 0 103 39q41 44 41 109q0 59 -29 92q-36 39 -107 39q-59 0 -98 -37q-45 -45 -45 -113q0 -55 31 -88q36 -41 104 -41z" />
    <glyph glyph-name="uni2117" unicode="&#x2117;" horiz-adv-x="1579" 
d="M557 1083h303q152 0 227 -73q68 -68 68 -185q0 -118 -68 -186q-74 -74 -225 -74h-65v-258h-240v776zM797 903v-158h14q56 0 80 19q29 21 29 61t-31 60q-26 18 -78 18h-14zM1538 682q0 -138 -55 -271.5t-154 -232.5q-100 -100 -238 -154.5t-276 -54.5q-136 0 -273 54.5
t-239 154.5q-99 99 -154 232.5t-55 271.5q0 139 55 274t154 232q102 100 239 154.5t273 54.5q138 0 276 -54.5t238 -154.5q99 -97 154 -232t55 -274zM815 1268q-237 0 -405 -168q-172 -172 -172 -418t172 -418q168 -168 405 -168q240 0 408 168q172 172 172 418t-172 418
q-168 168 -408 168z" />
    <glyph glyph-name="trademark" unicode="&#x2122;" horiz-adv-x="1724" 
d="M672 1174h-172l-74 -586h-233l71 586h-176l25 192h581zM1444 1366h235l35 -778h-235l-15 416l-223 -416h-129l-76 299q-14 58 -26 131q-10 -43 -25 -94l-104 -336h-242l258 778h227l66 -262q22 -89 33 -152z" />
    <glyph glyph-name="partialdiff" unicode="&#x2202;" horiz-adv-x="1155" 
d="M180 1161l35 225q175 -12 343.5 -71.5t287.5 -171.5q69 -64 117.5 -143.5t73 -159t34.5 -146.5t10 -131q0 -132 -40 -248.5t-115 -197.5q-134 -142 -359 -142q-216 0 -352 131q-143 140 -143 347q0 196 137 329q120 117 297 117q144 0 252 -82q-70 165 -217 246
q-70 39 -168 65.5t-193 32.5zM578 225q80 0 139 56q69 69 69 168q0 51 -19.5 95.5t-51.5 71.5q-56 50 -146 50q-85 0 -143 -52q-72 -66 -72 -165q0 -96 66 -162q62 -62 158 -62z" />
    <glyph glyph-name="product" unicode="&#x220f;" horiz-adv-x="1501" 
d="M88 1290v246h1337v-246h-168v-1556h168v-246h-600v246h150v1556h-434v-1556h145v-246h-598v246h170v1556h-170z" />
    <glyph glyph-name="summation" unicode="&#x2211;" horiz-adv-x="1363" 
d="M47 1536h1227v-506h-240l-26 260h-646l512 -743l-512 -813h664l16 266h250v-512h-1245v266l498 793l-498 723v266z" />
    <glyph glyph-name="minus" unicode="&#x2212;" 
d="M96 573v246h887v-246h-887z" />
    <glyph glyph-name="uni2215" unicode="&#x2215;" horiz-adv-x="1492" 
d="M-123 -385l1286 1878h269l-1289 -1878h-266z" />
    <glyph glyph-name="uni2219" unicode="&#x2219;" horiz-adv-x="475" 
d="M262 936q101 0 171.5 -69t70.5 -167q0 -103 -68 -173t-168 -70q-97 0 -168 71.5t-71 169.5t68 168t165 70z" />
    <glyph glyph-name="radical" unicode="&#x221a;" horiz-adv-x="1366" 
d="M850 1694h596v-240h-365l-338 -1454h-354l-115 555h-194v238h414l36 -172q4 -13 7 -31q9 -75 12 -119q8 -79 8 -149h23q5 80 14 149q28 251 74 444z" />
    <glyph glyph-name="infinity" unicode="&#x221e;" horiz-adv-x="1366" 
d="M1028 360q-87 0 -162 39t-149 123q-78 -85 -154.5 -123.5t-165.5 -38.5q-148 0 -242 94t-94 240t94 240t240 94q86 0 157 -37t153 -123q145 160 319 160q148 0 242 -93t94 -239q0 -147 -93.5 -241.5t-238.5 -94.5zM983 791q-69 0 -141 -97q38 -51 70.5 -72.5t70.5 -21.5
q43 0 72.5 27.5t29.5 68.5q0 38 -30.5 66.5t-71.5 28.5zM440 600q70 0 140 94q-38 51 -71 72.5t-71 21.5q-43 0 -72.5 -27t-29.5 -67q0 -39 30.5 -66.5t73.5 -27.5z" />
    <glyph glyph-name="integral" unicode="&#x222b;" 
d="M293 -512q-73 0 -193 20l50 238q66 -20 112 -20q63 0 91 34t28 111v37v90v975q0 234 12.5 307.5t61.5 134.5q97 121 293 121q71 0 186 -20l-47 -238q-68 20 -115 20q-62 0 -90.5 -34.5t-28.5 -110.5v-127v-137v-838q0 -234 -12 -307.5t-61 -134.5q-97 -121 -287 -121z
" />
    <glyph glyph-name="approxequal" unicode="&#x2248;" 
d="M336 821q-51 0 -81.5 -25t-68.5 -100l-145 97q50 126 100 186q79 98 211 98q62 0 211 -53q96 -35 120.5 -42t55.5 -7q50 0 80.5 22t67.5 84l149 -88q-52 -111 -91 -159.5t-101 -81.5t-133 -33q-33 0 -74 11t-135 46q-87 30 -114.5 37.5t-51.5 7.5zM336 406
q-51 0 -81.5 -25.5t-68.5 -99.5l-145 94q29 75 50 114t50 74q80 99 211 99q59 0 211 -54q96 -35 120.5 -42t55.5 -7q50 0 80.5 22t67.5 83l149 -86q-52 -112 -91 -161t-101 -81q-62 -33 -133 -33q-32 0 -73 10.5t-136 44.5q-89 32 -115.5 40t-50.5 8z" />
    <glyph glyph-name="notequal" unicode="&#x2260;" 
d="M92 965h467l113 221h209l-111 -221h209v-238h-317l-68 -137h385v-240h-494l-100 -194h-209l96 194h-180v240h289l70 137h-359v238z" />
    <glyph glyph-name="lessequal" unicode="&#x2264;" 
d="M70 946l886 424v-248l-606 -288l604 -289l2 -248l-886 426v223zM70 240h886v-240h-886v240z" />
    <glyph glyph-name="greaterequal" unicode="&#x2265;" 
d="M983 723l-889 -426v248l608 289l-606 288l-2 248l889 -424v-223zM983 0h-889v240h889v-240z" />
    <glyph glyph-name="dotmath" unicode="&#x22c5;" horiz-adv-x="475" 
d="M262 936q101 0 171.5 -69t70.5 -167q0 -103 -68 -173t-168 -70q-97 0 -168 71.5t-71 169.5t68 168t165 70z" />
    <glyph glyph-name="lozenge" unicode="&#x25ca;" horiz-adv-x="1677" 
d="M178 684l531 735l532 -735l-532 -737zM930 684l-221 303l-220 -303l220 -303z" />
    <glyph glyph-name="openbullet" unicode="&#x25e6;" 
d="M582 729q-130 0 -223 92t-93 221q0 128 93 219t223 91q132 0 224.5 -91t92.5 -219q0 -129 -92.5 -221t-224.5 -92zM582 1196q-64 0 -110 -45.5t-46 -108.5q0 -64 45.5 -109.5t110.5 -45.5q66 0 111.5 45t45.5 108q0 65 -45.5 110.5t-111.5 45.5z" />
    <glyph glyph-name="uniF400" unicode="&#xf400;" horiz-adv-x="4" 
d="M-559 1430h338l-271 -351h-231z" />
    <glyph glyph-name="uniF401" unicode="&#xf401;" horiz-adv-x="4" 
d="M-559 1839h338l-271 -350h-231z" />
    <glyph glyph-name="uniF406" unicode="&#xf406;" 
d="M268 1763q0 4 1 17.5t1 23.5h203q9 -127 133 -127q64 0 104 31t62 96h209q-26 -152 -124 -233.5t-253 -81.5q-148 0 -242 76.5t-94 197.5z" />
    <glyph glyph-name="uniF407" unicode="&#xf407;" 
d="M426 -94l229 -90l-278 -299l-189 82z" />
    <glyph glyph-name="uniF408" unicode="&#xf408;" 
d="M645 1591l-219 -135l-143 141l393 250l307 -243l-168 -148z" />
    <glyph glyph-name="uniF409" unicode="&#xf409;" 
d="M410 -102l307 -33l-246 -397l-205 24z" />
    <glyph glyph-name="uniF40A" unicode="&#xf40a;" 
d="M451 1393l307 -54l-287 -413l-205 37z" />
    <glyph glyph-name="uniF40B" unicode="&#xf40b;" 
d="M422 1661q0 78 54 132t132 54t132.5 -54t54.5 -132t-54.5 -132t-132.5 -54t-132 54t-54 132z" />
    <glyph glyph-name="uniF40C" unicode="&#xf40c;" 
d="M618 1489q-131 0 -203.5 53t-72.5 150q0 92 73.5 146t198.5 54q123 0 195 -54t72 -148q0 -92 -71.5 -146.5t-191.5 -54.5zM612 1765q-47 0 -74.5 -20t-27.5 -55q0 -34 27.5 -55t72.5 -21q49 0 77 20.5t28 55.5t-27.5 55t-75.5 20z" />
    <glyph glyph-name="uniF40D" unicode="&#xf40d;" 
d="M860 1788l162 -94q-49 -93 -107 -142q-70 -63 -157 -63q-53 0 -135 31l-74 28q-10 4 -33.5 13.5t-37.5 13.5t-27 4q-37 0 -62 -27.5t-35 -58.5l-159 94q39 86 98 139q72 62 174 62q65 0 139 -29l60 -24q16 -6 39.5 -16.5t37.5 -15.5t25 -5q59 0 92 90z" />
    <glyph glyph-name="uniF40E" unicode="&#xf40e;" 
d="M659 -182l-65 -176q-62 -37 -145 -37q-72 0 -119 47t-47 115q0 86 73 159q42 42 95 74h149q-28 -20 -78 -70q-1 -2 -6 -7t-7 -7.5t-6.5 -8t-7 -9.5t-5.5 -10t-5 -11.5t-3 -12.5t-1 -14q0 -33 21 -51q18 -18 51 -18q42 0 106 37z" />
    <glyph glyph-name="uniF4C6" unicode="&#xf4c6;" horiz-adv-x="1341" 
d="M1309 1366l-183 -1466q-7 -53 -15 -92t-32 -93.5t-61 -93.5q-30 -31 -68 -51t-82 -28t-75.5 -10.5t-75.5 -2.5q-95 0 -174 20l28 234q30 -12 70 -12q68 0 96 28q32 30 45 127l78 611q-155 -21 -258 -21q-235 0 -346 80q-113 85 -113 244q0 15 13 129l51 397h346l-43 -365
q-4 -28 -4 -51q0 -71 45 -104q41 -29 164 -29q93 0 182 14l66 535h346z" />
    <glyph glyph-name="uniF4C7" unicode="&#xf4c7;" horiz-adv-x="1087" 
d="M1018 915l-121 -989q-24 -218 -115 -307q-90 -90 -286 -90q-98 0 -174 18l28 238q27 -14 68 -14q70 0 100 32q32 32 41 123l47 389q-87 -22 -184 -22q-207 0 -293 86q-68 68 -68 184q0 14 1 28t3 29.5t3 22.5l32 272h326l-29 -219q-4 -32 -4 -49q0 -52 31 -74
q28 -20 96 -20t117 14l43 348h338z" />
    <glyph glyph-name="uniF4CC" unicode="&#xf4cc;" horiz-adv-x="1314" 
d="M92 1366h373l258 -612l301 612h399l-782 -1366h-375l242 410zM784 1839h338l-270 -350h-231z" />
    <glyph glyph-name="uniF4CD" unicode="&#xf4cd;" horiz-adv-x="1204" 
d="M874 915h386l-857 -1384h-378l327 541l-323 843h374l99 -247q46 -114 76 -262q48 105 120 221zM733 1430h338l-270 -351h-232z" />
    <glyph glyph-name="dollar.fitted" unicode="&#xf5f5;" horiz-adv-x="1101" 
d="M999 438q0 -175 -110.5 -294.5t-304.5 -153.5l-27 -219h-205l27 215q-90 12 -167 43.5t-185 99.5l153 258q91 -60 154 -84t129 -24q83 0 133.5 36.5t50.5 96.5q0 45 -31 75t-127 80q-122 62 -175 102t-87 93q-51 79 -51 196q0 159 98.5 268.5t276.5 147.5l24 213h205
l-24 -207q96 -13 155.5 -36t155.5 -82l-149 -261q-133 101 -240 101q-70 0 -110 -31.5t-40 -85.5q0 -51 34.5 -83.5t137.5 -78.5q166 -76 232.5 -162t66.5 -223z" />
    <glyph glyph-name="Euro.fitted" unicode="&#xf5f6;" horiz-adv-x="1419" 
d="M1188 389l-41 -342q-152 -78 -342 -78q-263 0 -422 127q-161 129 -184 344h-160l96 185h62q3 60 14 102h-135l96 184h88q42 125 113.5 212t146.5 139q192 133 463 133q222 0 379 -90l-156 -299q-124 77 -278 77q-113 0 -195 -45q-83 -48 -117 -127h549l-96 -184h-512
q-12 -53 -12 -102h469l-96 -185h-351q22 -73 101 -118q75 -41 190 -41q197 0 330 108z" />
    <glyph glyph-name="cent.fitted" unicode="&#xf5f7;" horiz-adv-x="868" 
d="M723 256q-110 -44 -205 -49l-22 -187h-193l25 213q-132 43 -212.5 162.5t-80.5 270.5q0 200 114.5 340t311.5 172l18 174h193l-21 -172q61 -10 92.5 -20.5t85.5 -37.5l-34 -288q-50 39 -93 55t-96 16q-97 0 -160 -65t-63 -166q0 -83 52 -136t134 -53q91 0 189 60z" />
    <glyph glyph-name="sterling.fitted" unicode="&#xf5f8;" horiz-adv-x="1296" 
d="M354 516h-256l25 197h147q-24 87 -24 161q0 211 137 357q152 160 405 160q215 0 334 -127q105 -110 105 -285q0 -61 -8 -102h-338q4 24 4 63q0 89 -35 129q-34 43 -98 43q-81 0 -127 -70q-41 -62 -41 -172q0 -81 28 -157h314l-25 -197h-256q0 -68 -6.5 -115.5
t-28.5 -99.5l92 -29q22 -6 56.5 -18.5t55.5 -17.5t40 -5q46 0 70.5 26t29.5 65h222q-7 -72 -35.5 -147t-73.5 -120q-84 -84 -229 -84q-41 0 -79 6.5t-61 13t-67 21.5l-72 25q-100 35 -170 35q-86 0 -108 -72h-236q23 123 92 205q81 97 205 117q25 65 25 118q0 41 -13 76z
" />
    <glyph glyph-name="yen.fitted" unicode="&#xf5f9;" horiz-adv-x="1341" 
d="M428 674h-334l27 215h205l-230 477h404l155 -393l246 393h410l-361 -477h215l-26 -215h-351l-14 -19l-12 -108h362l-26 -213h-363l-41 -334h-336l41 334h-346l27 213h346l12 108z" />
    <glyph glyph-name="florin.fitted" unicode="&#xf5fa;" horiz-adv-x="1392" 
d="M479 231l123 488h-156l48 196h159l60 228q48 175 137 262q114 111 305 111q122 0 219 -52l-74 -284q-60 45 -120 45q-64 0 -101 -37q-14 -14 -26 -40t-17.5 -44t-15.5 -55l-35 -134h199l-51 -196h-199l-131 -526q-36 -146 -81.5 -258t-121.5 -185q-140 -135 -403 -135
q-101 0 -179 18l76 299q49 -18 107 -18q97 0 153 45q42 34 70 100t55 172z" />
    <glyph glyph-name="uni20B4.fitted" unicode="&#xf5fb;" horiz-adv-x="1224" 
d="M342 1020l-104 260q231 117 510 117q192 0 282 -68q92 -73 92 -194q0 -123 -86 -209h142l-23 -199h-309l-152 -129h445l-25 -199h-594q-39 -30 -39 -77q0 -37 29 -60q30 -24 108 -24q83 0 159 15t173 60l111 -241q-120 -57 -260.5 -86t-270.5 -29q-232 0 -331 68
q-101 74 -101 192q0 107 68 182h-123l25 199h266l151 129h-401l22 199h572q45 36 45 92q0 46 -31 69q-31 25 -98 25q-128 0 -252 -92z" />
    <glyph glyph-name="uni20B6.fitted" unicode="&#xf5fc;" horiz-adv-x="1304" 
d="M352 1366h439q263 0 380 -117q105 -105 105 -297q0 -184 -102 -293q-135 -147 -453 -147h-127l-16 -129h368l-24 -199h-369l-23 -184h-346l23 184h-168l24 199h168l17 129h-168l26 225h168zM739 1079h-75l-41 -340h88q119 0 170 58q39 46 39 121q0 79 -35 116
q-19 22 -48 32.5t-46 11.5t-52 1z" />
    <glyph glyph-name="uni20B8.fitted" unicode="&#xf5fd;" horiz-adv-x="1067" 
d="M969 778h-287l-98 -778h-344l96 778h-293l35 281h926zM1012 1147h-926l29 219h925z" />
    <glyph glyph-name="numbersign.fitted" unicode="&#xf5ff;" horiz-adv-x="1374" 
d="M1024 612h207l-66 -239h-209l-104 -373h-274l106 373h-172l-106 -373h-271l107 373h-209l67 239h207l47 170h-204l65 238h207l98 346h268l-96 -346h172l99 346h272l-98 -346h204l-65 -238h-205zM750 612l49 170h-174l-47 -170h172z" />
    <glyph glyph-name="uniF639" unicode="&#xf639;" horiz-adv-x="1306" 
d="M707 1397q236 0 380.5 -153.5t155.5 -414.5q2 -12 2 -36q0 -164 -45 -319.5t-127 -270.5q-86 -120 -197 -177t-260 -57q-256 0 -405.5 168t-149.5 457q0 233 82 416t229.5 285t334.5 102zM610 268q127 0 206 147t79 382q0 141 -48 220t-136 79q-84 0 -153 -65
t-108.5 -179.5t-39.5 -253.5q0 -153 53.5 -241.5t146.5 -88.5z" />
    <glyph glyph-name="uniF63A" unicode="&#xf63a;" horiz-adv-x="1247" 
d="M705 301h421l-39 -301h-1042q235 215 375 362q113 116 221 246q98 119 141 196.5t43 137.5q0 69 -43 111.5t-112 42.5q-88 0 -128.5 -53t-49.5 -173h-353q11 129 42 214t95 153q71 75 178.5 117.5t229.5 42.5q228 0 362 -120.5t134 -324.5q0 -186 -113 -323
q-43 -54 -111 -119q-100 -95 -251 -209z" />
    <glyph glyph-name="uniF63B" unicode="&#xf63b;" horiz-adv-x="1222" 
d="M590 -31q-260 0 -401 128.5t-144 367.5h356v-29q0 -83 50 -129.5t139 -46.5q87 0 138.5 45.5t51.5 122.5q0 72 -48 115t-130 43q-23 0 -43 -2l33 258q46 -6 61 -6q72 0 117 40.5t45 106.5q0 59 -40 96t-103 37q-70 0 -107 -39t-49 -127h-354q15 109 59 200t109 144
q127 103 338 103q227 0 357 -106t130 -292q0 -104 -40.5 -171t-137.5 -119q84 -46 121 -112t37 -171q0 -203 -151 -330t-394 -127z" />
    <glyph glyph-name="uniF63C" unicode="&#xf63c;" horiz-adv-x="1216" 
d="M1120 256h-137l-33 -256h-315l31 256h-648l19 276l670 834h411l-102 -836h137zM373 530h327l25 203q16 145 53 328q-71 -106 -123 -172z" />
    <glyph glyph-name="uniF63D" unicode="&#xf63d;" horiz-adv-x="1241" 
d="M436 1366h738l-37 -301h-480l-55 -168q53 6 107 6q217 0 336.5 -107.5t119.5 -301.5q0 -112 -46 -209.5t-126 -167t-193.5 -109t-244.5 -39.5q-189 0 -356 70q-25 10 -158 78l98 313q63 -54 116.5 -83.5t129.5 -53.5q95 -25 160 -25q118 0 192 60t74 155
q0 98 -75.5 150.5t-215.5 52.5q-81 0 -150.5 -14t-172.5 -51z" />
    <glyph glyph-name="uniF63E" unicode="&#xf63e;" horiz-adv-x="1224" 
d="M1081 1366l-428 -479q57 8 92 8q189 0 306.5 -118.5t117.5 -309.5q0 -218 -162 -358t-415 -140q-239 0 -395 132t-156 333q0 87 31 166q33 84 83 158.5t152 189.5l367 418h407zM815 459v8q-3 85 -60.5 136.5t-148.5 51.5q-97 0 -160 -58.5t-63 -147.5q0 -86 61.5 -143.5
t153.5 -57.5q95 0 156 59.5t61 151.5z" />
    <glyph glyph-name="uniF63F" unicode="&#xf63f;" horiz-adv-x="1218" 
d="M156 1366h1048l-755 -1366h-379l417 752q79 146 189 313h-557z" />
    <glyph glyph-name="uniF640" unicode="&#xf640;" horiz-adv-x="1202" 
d="M1122 1036q0 -115 -57 -182t-197 -117q104 -38 156.5 -81.5t81.5 -114.5t29 -154q0 -190 -146 -304t-391 -114q-252 0 -398.5 108.5t-146.5 297.5q0 86 33.5 159.5t95.5 120.5q35 27 71.5 43.5t111.5 38.5q-92 53 -134.5 120.5t-42.5 162.5q0 163 137.5 270t346.5 107
q210 0 330 -96.5t120 -264.5zM653 885q63 0 105.5 39.5t42.5 99.5q0 61 -39.5 98t-102.5 37q-64 0 -107.5 -40.5t-43.5 -100.5q0 -58 41 -95.5t104 -37.5zM780 420v10q-6 63 -56.5 101t-127.5 38q-82 0 -135 -44t-53 -111q0 -68 53 -112t135 -44q80 0 132 46t52 116z" />
    <glyph glyph-name="uniF641" unicode="&#xf641;" horiz-adv-x="1226" 
d="M143 0l432 479q-59 -12 -79 -12q-189 0 -315 125t-126 313q0 143 74.5 255t207.5 174.5t302 62.5q243 0 395 -129.5t152 -335.5q0 -214 -211 -453l-424 -479h-408zM844 924v12q-6 80 -63.5 130t-143.5 50q-95 0 -160 -61t-65 -150q0 -83 60 -138.5t151 -55.5
q96 0 158.5 60t62.5 153z" />
    <glyph glyph-name="uniF6BA" unicode="&#xf6ba;" horiz-adv-x="722" 
d="M92 561l33 273h518l-33 -273h-518z" />
    <glyph glyph-name="uniF6BB" unicode="&#xf6bb;" horiz-adv-x="1175" 
d="M131 563l35 271h889l-35 -271h-889z" />
    <glyph glyph-name="uniF6BC" unicode="&#xf6bc;" horiz-adv-x="1857" 
d="M131 563l35 271h1571l-35 -271h-1571z" />
    <glyph glyph-name="uniF6C3" unicode="&#xf6c3;" 
d="M410 -102l307 -33l-246 -377l-205 25z" />
    <glyph glyph-name="uniF6C9" unicode="&#xf6c9;" 
d="M631 1839h338l-271 -350h-231z" />
    <glyph glyph-name="uniF6CA" unicode="&#xf6ca;" 
d="M428 1847l180 -135l217 135l138 -147l-377 -244l-322 250z" />
    <glyph glyph-name="uniF6CB" unicode="&#xf6cb;" 
d="M815 1817q66 0 115 -49t49 -115q0 -69 -47 -116.5t-115 -47.5q-69 0 -118.5 48.5t-49.5 117.5q0 66 49 114t117 48zM401 1817q69 0 116.5 -48t47.5 -116q0 -69 -47 -116.5t-115 -47.5q-70 0 -117.5 47.5t-47.5 118.5q0 68 47 115t116 47z" />
    <glyph glyph-name="uniF6CE" unicode="&#xf6ce;" 
d="M475 1489l-182 350h336l78 -350h-232z" />
    <glyph glyph-name="uniF6CF" unicode="&#xf6cf;" 
d="M385 1839h309l-239 -350h-205zM795 1839h309l-240 -350h-202z" />
    <glyph glyph-name="uniF6D0" unicode="&#xf6d0;" 
d="M193 1534l24 201h770l-24 -201h-770z" />
    <glyph glyph-name="uniF6D1" unicode="&#xf6d1;" 
d="M737 1839l221 -98q-46 -124 -157 -191q-98 -59 -262 -59q-177 0 -273 61q-104 66 -147 189l235 98q14 -61 58 -96q45 -39 133 -39q74 0 125 39q47 38 67 96z" />
    <glyph glyph-name="uniF6D4" unicode="&#xf6d4;" 
d="M674 1386l223 -79q-33 -116 -135 -185q-97 -61 -250 -61q-172 0 -262 63q-93 66 -127 183l235 79q12 -61 43 -92q35 -37 107 -37q80 0 119 41q30 30 47 88z" />
    <glyph glyph-name="uniF6DC" unicode="&#xf6dc;" horiz-adv-x="688" 
d="M100 1366h541l-170 -1366h-344l131 1065h-195z" />
    <glyph glyph-name="uniF6DE" unicode="&#xf6de;" horiz-adv-x="1392" 
d="M98 408l27 270h1178l-27 -270h-1178z" />
    <glyph glyph-name="nbspace" horiz-adv-x="477" 
 />
    <glyph glyph-name="hyphenminus" horiz-adv-x="722" 
d="M92 414l33 272h518l-33 -272h-518z" />
    <glyph glyph-name="dotlessi1" horiz-adv-x="583" 
d="M178 915h338l-113 -915h-337z" />
    </font>
</defs>
</svg>
